<?xml version="1.0" encoding="utf-8"?>
<!-- Generator: Adobe Illustrator 15.0.0, SVG Export Plug-In . SVG Version: 6.00 Build 0)  -->
<!DOCTYPE svg PUBLIC "-//W3C//DTD SVG 1.1//EN" "http://www.w3.org/Graphics/SVG/1.1/DTD/svg11.dtd">
<svg version="1.1" xmlns="http://www.w3.org/2000/svg" xmlns:xlink="http://www.w3.org/1999/xlink" x="0px" y="0px" width="659px"
	 height="224px" viewBox="-56.107 -55.979 659 224" enable-background="new -56.107 -55.979 659 224" xml:space="preserve">
<g id="Ebene_2">
	<rect x="-56.107" y="-56.021" fill="#FFFFFF" width="659" height="224.043"/>
</g>
<g id="svg3438" xmlns:svg="http://www.w3.org/2000/svg" xmlns:cc="http://creativecommons.org/ns#" xmlns:dc="http://purl.org/dc/elements/1.1/" xmlns:rdf="http://www.w3.org/1999/02/22-rdf-syntax-ns#">
	<g id="layer1" transform="translate(-129.46408,-390.62639)">
		<path id="path374" fill="#1D1D1B" d="M499.736,483.24c0.287,0.047,0.685,0.083,1.187,0.107c0.504,0.021,0.898,0.033,1.186,0.033
			c0.241,0,0.624-0.012,1.152-0.033c0.525-0.024,0.933-0.061,1.223-0.107v-17.021c1.101,0.379,2.323,0.662,3.665,0.852
			c1.342,0.188,2.589,0.285,3.741,0.285c3.115,0,5.881-0.462,8.305-1.385c2.418-0.92,4.457-2.244,6.11-3.971
			c1.654-1.727,2.913-3.83,3.775-6.313c0.862-2.481,1.293-5.285,1.293-8.405c0-3.121-0.37-5.79-1.112-8.015
			c-0.743-2.222-1.776-4.065-3.094-5.533c-1.317-1.464-2.91-2.54-4.78-3.225c-1.871-0.685-3.931-1.03-6.184-1.03
			c-3.021,0-5.478,0.593-7.37,1.773c-1.895,1.183-3.344,2.531-4.35,4.044l-0.434-4.964c-0.288-0.049-0.646-0.083-1.076-0.107
			c-0.435-0.025-0.792-0.037-1.079-0.037s-0.648,0.012-1.079,0.037c-0.431,0.024-0.792,0.058-1.079,0.107V483.24L499.736,483.24z
			 M504.483,445.438c0-2.271,0.37-4.148,1.112-5.64c0.743-1.488,1.679-2.693,2.807-3.616c1.125-0.923,2.359-1.571,3.701-1.95
			c1.342-0.379,2.589-0.569,3.738-0.569c3.692,0,6.364,1.232,8.018,3.689c1.654,2.458,2.482,5.863,2.482,10.212
			c0,2.742-0.36,5.096-1.079,7.058s-1.702,3.579-2.949,4.856c-1.248,1.278-2.709,2.211-4.384,2.804
			c-1.681,0.59-3.454,0.886-5.321,0.886c-1.966,0-3.537-0.106-4.711-0.32c-1.177-0.211-2.313-0.531-3.414-0.957V445.438
			L504.483,445.438z M562.291,462.46c-1.247,0.236-2.516,0.426-3.809,0.566c-1.296,0.143-2.687,0.213-4.172,0.213
			c-1.149,0-2.299-0.082-3.451-0.247c-1.149-0.165-2.204-0.498-3.164-0.993c-0.96-0.498-1.739-1.217-2.335-2.164
			c-0.603-0.945-0.898-2.197-0.898-3.76c0-2.457,0.98-4.35,2.946-5.674c1.966-1.322,4.747-1.986,8.342-1.986
			c1.101,0,2.265,0.061,3.488,0.178c1.223,0.119,2.24,0.227,3.053,0.32V462.46z M562.291,444.8c-0.813-0.095-1.843-0.202-3.09-0.318
			c-1.247-0.12-2.732-0.177-4.46-0.177c-2.203,0-4.23,0.26-6.073,0.779c-1.847,0.52-3.43,1.29-4.747,2.304
			c-1.317,1.018-2.348,2.269-3.091,3.76c-0.745,1.488-1.115,3.18-1.115,5.071c0,3.925,1.28,6.761,3.845,8.51
			c2.565,1.751,6.077,2.626,10.537,2.626c2.155,0,4.432-0.168,6.828-0.498s4.436-0.66,6.113-0.994v-23.9
			c0-4.301-1.128-7.458-3.38-9.469c-2.253-2.008-5.704-3.014-10.354-3.014c-1.916,0-3.787,0.132-5.609,0.392
			c-1.821,0.26-3.355,0.578-4.6,0.957c0,0.709,0.082,1.467,0.25,2.271c0.168,0.804,0.37,1.418,0.611,1.843
			c1.244-0.379,2.659-0.697,4.243-0.957c1.58-0.26,3.332-0.392,5.248-0.392c2.923,0,5.13,0.722,6.615,2.164
			c1.485,1.443,2.229,3.723,2.229,6.844L562.291,444.8L562.291,444.8z M578.975,466.501c0.287,0.047,0.694,0.083,1.22,0.107
			c0.528,0.024,0.911,0.037,1.152,0.037c0.287,0,0.682-0.013,1.186-0.037c0.505-0.024,0.899-0.061,1.187-0.107V447.92
			c0-4.729,0.981-8.109,2.949-10.142c1.963-2.033,4.576-3.05,7.838-3.05h0.682c0.217,0,0.517,0.024,0.898,0.073
			c0.144-0.712,0.217-1.443,0.217-2.201c0-0.709-0.073-1.464-0.217-2.268c-0.336-0.049-0.636-0.07-0.898-0.07h-0.755
			c-2.828,0-5.105,0.602-6.832,1.807c-1.724,1.207-3.065,2.684-4.025,4.432c0-0.945-0.024-1.996-0.07-3.155
			c-0.049-1.158-0.122-2.164-0.218-3.014c-0.385-0.049-0.742-0.083-1.078-0.107c-0.337-0.024-0.694-0.037-1.079-0.037
			c-0.337,0-0.682,0.012-1.043,0.037c-0.357,0.024-0.73,0.058-1.112,0.107V466.501L578.975,466.501z M605.794,458.062
			c0,3.262,0.85,5.615,2.552,7.059c1.7,1.439,3.919,2.16,6.651,2.16c2.302,0,4.313-0.26,6.04-0.779
			c-0.144-1.418-0.385-2.741-0.718-3.971c-1.247,0.426-2.712,0.64-4.387,0.64c-0.672,0-1.332-0.062-1.978-0.177
			c-0.647-0.12-1.223-0.367-1.727-0.746c-0.505-0.379-0.911-0.911-1.223-1.596c-0.313-0.686-0.468-1.621-0.468-2.803v-23.546h9.925
			c0.046-0.235,0.082-0.544,0.107-0.923c0.024-0.376,0.036-0.755,0.036-1.134c0-0.376-0.012-0.73-0.036-1.064
			c-0.025-0.33-0.062-0.614-0.107-0.85h-9.925v-11.136h-0.287l-4.457,4.325v6.811h-6.257c-0.049,0.235-0.083,0.52-0.107,0.85
			c-0.024,0.333-0.036,0.688-0.036,1.064c0,0.379,0.012,0.758,0.036,1.134c0.024,0.379,0.059,0.688,0.107,0.923h6.257V458.062
			L605.794,458.062z M657.708,449.124c0.046-0.471,0.083-1.039,0.107-1.699c0.024-0.663,0.036-1.208,0.036-1.632
			c0-2.363-0.323-4.551-0.972-6.56c-0.648-2.011-1.607-3.735-2.876-5.178c-1.271-1.443-2.84-2.565-4.711-3.369
			c-1.867-0.804-4.001-1.208-6.397-1.208c-2.876,0-5.346,0.499-7.406,1.492c-2.063,0.99-3.754,2.363-5.071,4.111
			c-1.317,1.751-2.298,3.784-2.946,6.101s-0.972,4.799-0.972,7.447c0,2.741,0.348,5.26,1.042,7.553
			c0.697,2.295,1.772,4.267,3.237,5.924c1.461,1.653,3.331,2.943,5.608,3.863c2.277,0.923,4.998,1.385,8.162,1.385
			c2.203,0,4.242-0.168,6.109-0.498c1.871-0.33,3.5-0.805,4.892-1.418c-0.05-0.615-0.145-1.3-0.288-2.059
			c-0.144-0.754-0.336-1.393-0.574-1.912c-1.488,0.52-3.011,0.932-4.566,1.24c-1.56,0.309-3.25,0.461-5.071,0.461
			c-4.506,0-7.883-1.137-10.136-3.404c-2.256-2.271-3.381-5.816-3.381-10.641H657.708L657.708,449.124z M631.678,445.225
			c0.382-3.687,1.51-6.547,3.381-8.58c1.867-2.033,4.48-3.051,7.837-3.051c1.822,0,3.378,0.33,4.674,0.994
			c1.293,0.663,2.348,1.525,3.164,2.589c0.813,1.064,1.412,2.305,1.797,3.723c0.382,1.418,0.574,2.861,0.574,4.325H631.678
			L631.678,445.225z M670.507,466.501c0.287,0.047,0.693,0.083,1.223,0.107c0.525,0.024,0.907,0.037,1.149,0.037
			c0.287,0,0.682-0.013,1.186-0.037s0.898-0.061,1.186-0.107v-36.169h-9.347c-0.049,0.235-0.083,0.544-0.107,0.92
			c-0.024,0.379-0.036,0.758-0.036,1.137s0.012,0.733,0.036,1.063s0.059,0.615,0.107,0.85h4.604V466.501L670.507,466.501z
			 M669.715,421.572c0.623,0.024,1.149,0.037,1.58,0.037c0.386,0,0.865-0.012,1.439-0.037c0.575-0.021,1.055-0.059,1.438-0.107
			c0.049-0.425,0.085-0.944,0.109-1.559c0.021-0.614,0.034-1.134,0.034-1.562c0-0.376-0.013-0.85-0.034-1.418
			c-0.024-0.565-0.061-1.039-0.109-1.418c-0.383-0.046-0.862-0.08-1.438-0.104c-0.574-0.025-1.054-0.037-1.439-0.037
			c-0.431,0-0.956,0.012-1.58,0.037c-0.624,0.024-1.149,0.058-1.583,0.104c-0.046,0.379-0.083,0.853-0.107,1.418
			c-0.024,0.569-0.037,1.042-0.037,1.418c0,0.428,0.013,0.948,0.037,1.562s0.062,1.134,0.107,1.559
			C668.565,421.514,669.091,421.551,669.715,421.572"/>
		<path id="path378" fill="#4C2582" d="M257.783,483.311c0.91,0.141,1.785,0.235,2.625,0.284c0.838,0.046,1.663,0.07,2.479,0.07
			c0.815,0,1.642-0.024,2.481-0.07c0.838-0.049,1.712-0.144,2.623-0.284v-16.313c0.528,0.095,1.188,0.178,1.978,0.251
			c0.792,0.07,1.593,0.104,2.408,0.104c3.164,0,5.994-0.458,8.485-1.382c2.491-0.923,4.604-2.234,6.328-3.937
			c1.727-1.702,3.044-3.769,3.955-6.205s1.366-5.187,1.366-8.263c0-3.166-0.373-5.911-1.116-8.228
			c-0.742-2.314-1.784-4.243-3.127-5.78c-1.342-1.534-2.912-2.681-4.71-3.438c-1.797-0.755-3.726-1.134-5.786-1.134
			c-1.345,0-2.567,0.177-3.668,0.532c-1.104,0.355-2.097,0.816-2.983,1.382c-0.89,0.568-1.645,1.22-2.265,1.95
			c-0.624,0.733-1.152,1.479-1.584,2.234c-0.049-0.33-0.106-0.743-0.18-1.241c-0.07-0.495-0.169-1.002-0.288-1.525
			c-0.119-0.52-0.238-1.003-0.357-1.452c-0.122-0.449-0.254-0.792-0.397-1.03c-1.391-0.285-2.757-0.425-4.099-0.425
			c-0.813,0-1.544,0.025-2.191,0.07c-0.648,0.049-1.309,0.141-1.978,0.285V483.311L257.783,483.311z M267.992,446.218
			c0-1.18,0.119-2.292,0.36-3.334c0.238-1.04,0.624-1.95,1.149-2.729c0.529-0.78,1.211-1.394,2.051-1.843
			c0.838-0.45,1.855-0.676,3.057-0.676c1.293,0,2.385,0.263,3.271,0.783c0.886,0.52,1.616,1.229,2.191,2.127
			c0.577,0.898,0.984,1.975,1.223,3.225c0.241,1.253,0.36,2.614,0.36,4.081c0,3.83-0.792,6.691-2.372,8.58
			c-1.583,1.892-3.86,2.836-6.831,2.836c-1.679,0-3.164-0.186-4.46-0.565V446.218L267.992,446.218z M302.505,466.502
			c1.727,0.284,3.381,0.425,4.964,0.425c1.629,0,3.308-0.141,5.031-0.425v-36.667h-14.813c-0.287,1.231-0.431,2.482-0.431,3.759
			c0,0.615,0.036,1.266,0.109,1.95c0.07,0.685,0.178,1.336,0.321,1.95h4.817V466.502L302.505,466.502z M303.657,423.948
			c0.957,0.049,1.822,0.07,2.589,0.07c0.813,0,1.69-0.021,2.623-0.07c0.935-0.046,1.81-0.141,2.625-0.285
			c0.144-0.801,0.239-1.604,0.288-2.408c0.046-0.804,0.073-1.583,0.073-2.342c0-0.804-0.027-1.595-0.073-2.375
			c-0.049-0.782-0.144-1.571-0.288-2.378c-0.815-0.141-1.702-0.248-2.659-0.318c-0.96-0.07-1.846-0.107-2.662-0.107
			c-0.768,0-1.617,0.037-2.553,0.107c-0.935,0.07-1.81,0.177-2.625,0.318c-0.287,1.657-0.432,3.24-0.432,4.753
			c0,1.559,0.145,3.146,0.432,4.75C301.811,423.807,302.697,423.902,303.657,423.948 M322.565,466.573
			c0.911,0.144,1.785,0.235,2.626,0.284c0.838,0.046,1.666,0.07,2.482,0.07c0.813,0,1.653-0.024,2.516-0.07
			c0.861-0.049,1.724-0.141,2.589-0.284v-17.447c0-2.552,0.3-4.539,0.898-5.958s1.354-2.482,2.265-3.191
			c0.911-0.709,1.868-1.146,2.877-1.311c1.005-0.165,1.916-0.248,2.732-0.248h1.186c0.648,0,1.232,0.046,1.761,0.141
			c0.192-0.85,0.324-1.749,0.397-2.696c0.07-0.944,0.107-1.818,0.107-2.623c0-0.663-0.024-1.299-0.073-1.917
			c-0.049-0.611-0.119-1.155-0.215-1.629c-0.287-0.095-0.745-0.165-1.366-0.214c-0.623-0.046-1.177-0.07-1.653-0.07
			c-2.302,0-4.218,0.578-5.753,1.736c-1.534,1.162-2.83,2.473-3.882,3.937c-0.049-0.33-0.11-0.743-0.18-1.241
			c-0.074-0.495-0.156-0.993-0.254-1.488c-0.095-0.498-0.205-0.969-0.321-1.418c-0.122-0.449-0.254-0.792-0.397-1.03
			c-0.672-0.141-1.354-0.26-2.048-0.355c-0.697-0.095-1.403-0.141-2.121-0.141c-0.768,0-1.474,0.037-2.121,0.107
			c-0.648,0.07-1.33,0.178-2.052,0.318V466.573L322.565,466.573z M369.306,459.056c-0.529,0.096-1.152,0.202-1.871,0.318
			c-0.719,0.119-1.437,0.178-2.158,0.178c-0.623,0-1.354-0.037-2.191-0.107c-0.841-0.07-1.629-0.26-2.372-0.565
			c-0.746-0.31-1.379-0.792-1.907-1.455c-0.525-0.66-0.789-1.608-0.789-2.837c0-1.843,0.682-3.179,2.049-4.007
			c1.366-0.829,3.225-1.241,5.572-1.241c0.525,0,1.124,0.033,1.797,0.107c0.673,0.07,1.296,0.152,1.871,0.247V459.056
			L369.306,459.056z M369.306,443.238c-1.679-0.141-3.213-0.211-4.604-0.211c-1.917,0-3.836,0.202-5.753,0.602
			c-1.916,0.404-3.655,1.064-5.212,1.987c-1.559,0.92-2.83,2.152-3.812,3.686c-0.981,1.538-1.473,3.442-1.473,5.711
			c0,2.271,0.394,4.184,1.186,5.746c0.792,1.559,1.917,2.836,3.381,3.83c1.461,0.99,3.209,1.699,5.248,2.127
			c2.036,0.426,4.279,0.637,6.722,0.637c3.02,0,5.729-0.236,8.128-0.71c2.396-0.471,4.432-0.966,6.11-1.488v-21.278
			c0-5.199-1.403-8.983-4.206-11.346s-6.7-3.546-11.686-3.546c-1.822,0-3.787,0.166-5.896,0.496s-4.219,0.853-6.327,1.562
			c0,1.513,0.168,2.813,0.504,3.9c0.333,1.088,0.838,2.247,1.51,3.476c2.923-0.994,5.68-1.492,8.269-1.492
			c1.198,0,2.289,0.073,3.271,0.214c0.984,0.141,1.81,0.416,2.482,0.816c0.672,0.4,1.198,0.957,1.583,1.666
			c0.382,0.709,0.575,1.632,0.575,2.767V443.238L369.306,443.238z M389.293,454.089c0,4.539,1.149,7.816,3.451,9.824
			c2.302,2.012,5.633,3.014,9.995,3.014c2.348,0,4.625-0.26,6.831-0.779c0.046-0.33,0.083-0.676,0.107-1.027
			c0.024-0.357,0.037-0.791,0.037-1.314c0-0.754-0.074-1.617-0.218-2.588c-0.144-0.967-0.382-1.902-0.718-2.801
			c-0.529,0.096-1.141,0.202-1.834,0.318c-0.694,0.119-1.403,0.178-2.121,0.178c-0.911,0-1.703-0.096-2.372-0.285
			c-0.673-0.187-1.235-0.541-1.69-1.063c-0.456-0.52-0.805-1.229-1.043-2.128c-0.241-0.895-0.36-2.078-0.36-3.545v-14.397h8.702
			c0.144-0.755,0.238-1.442,0.287-2.057c0.046-0.614,0.07-1.253,0.07-1.913c0-0.615-0.024-1.208-0.07-1.773
			c-0.049-0.569-0.144-1.208-0.287-1.917h-8.702v-10.711h-1.653l-13.446,16.953l0.36,1.418h4.674V454.089L389.293,454.089z
			 M447.822,451.253c0.098-0.52,0.18-1.217,0.253-2.092c0.07-0.873,0.107-1.76,0.107-2.659c0-2.458-0.36-4.762-1.079-6.917
			c-0.719-2.149-1.785-4.004-3.2-5.566c-1.412-1.559-3.127-2.788-5.142-3.687c-2.011-0.898-4.313-1.348-6.901-1.348
			c-2.975,0-5.572,0.507-7.801,1.525c-2.231,1.015-4.1,2.399-5.609,4.148s-2.65,3.806-3.417,6.171
			c-0.768,2.363-1.149,4.894-1.149,7.586c0,2.746,0.37,5.273,1.115,7.59c0.743,2.317,1.893,4.316,3.451,5.994
			c1.556,1.679,3.57,2.99,6.04,3.935c2.467,0.947,5.429,1.418,8.88,1.418c4.698,0,8.916-0.709,12.654-2.128
			c-0.049-1.512-0.263-2.931-0.647-4.254c-0.383-1.324-0.838-2.458-1.363-3.405c-1.538,0.568-3.155,1.005-4.854,1.314
			c-1.702,0.306-3.368,0.458-4.997,0.458c-2.975,0-5.371-0.636-7.192-1.913c-1.822-1.278-2.828-3.335-3.021-6.171H447.822
			L447.822,451.253z M424.022,444.231c0.238-2.412,0.981-4.279,2.229-5.603c1.247-1.324,3.068-1.984,5.465-1.984
			c2.109,0,3.751,0.697,4.925,2.091c1.174,1.397,1.81,3.228,1.907,5.496H424.022L424.022,444.231z M456.233,466.502
			c1.728,0.284,3.43,0.425,5.108,0.425c1.675,0,3.377-0.141,5.104-0.425v-19.22c0-1.987,0.214-3.592,0.647-4.824
			c0.432-1.229,0.994-2.186,1.688-2.874c0.697-0.685,1.477-1.143,2.339-1.381c0.861-0.235,1.699-0.354,2.516-0.354
			c1.965,0,3.344,0.685,4.136,2.057c0.791,1.373,1.186,3.332,1.186,5.887v20.709c1.727,0.284,3.427,0.425,5.104,0.425
			c1.679,0,3.381-0.141,5.104-0.425v-23.405c0-4.869-1.066-8.439-3.197-10.71c-2.133-2.268-5.313-3.402-9.527-3.402
			c-1.345,0-2.564,0.177-3.668,0.532c-1.104,0.354-2.097,0.816-2.983,1.381c-0.89,0.569-1.666,1.208-2.338,1.917
			c-0.673,0.709-1.247,1.418-1.725,2.127c-0.049-0.33-0.109-0.733-0.18-1.207c-0.074-0.471-0.156-0.957-0.254-1.452
			c-0.095-0.498-0.202-0.969-0.321-1.418c-0.122-0.449-0.254-0.792-0.397-1.03c-0.672-0.141-1.317-0.248-1.94-0.318
			c-0.624-0.07-1.342-0.107-2.158-0.107c-0.813,0-1.556,0.037-2.229,0.107c-0.672,0.07-1.342,0.177-2.015,0.318V466.502
			L456.233,466.502z"/>
		<path id="path382" fill="#FFFFFF" d="M234.364,446.649c0,26.202-21.538,47.442-48.109,47.442c-26.56,0-48.103-21.24-48.103-47.442
			s21.543-47.442,48.103-47.442C212.826,399.207,234.364,420.448,234.364,446.649"/>
		<path id="path386" fill="#231F20" d="M186.254,395.659c-28.549,0-51.7,22.818-51.7,50.991c0,28.155,23.151,50.988,51.7,50.988
			c28.556,0,51.707-22.833,51.707-50.988C237.961,418.477,214.81,395.659,186.254,395.659 M186.254,492.4
			c-25.611,0-46.385-20.486-46.385-45.75c0-25.266,20.773-45.752,46.385-45.752c25.627,0,46.392,20.486,46.392,45.752
			C232.645,471.914,211.881,492.4,186.254,492.4"/>
		<path id="path390" fill="#231F20" d="M208.359,421.271c-11.188-6.187-25.202-6.238-36.319-3.429v-4.747h-4.827v6.205
			c-2.072,0.736-3.988,1.574-5.694,2.482c0,0,2.399-0.291,5.694-0.095v41.5c-2.399,3.645-2.977,7.189-2.408,11.279
			c0.636,4.572,4.136,7.627,6.893,9.885c-1.623-4.611-1.748-8.809-1.269-11.35c0.911-4.74,3.732-8.148,15.9-10.746
			c12.624-2.684,27.59-3.928,32.532-16.021C221.114,440.708,222.512,429.105,208.359,421.271 M178.847,452.483
			c-2.702,1.87-4.951,3.616-6.807,5.284v-35.451c3.76,0.783,7.742,2.387,10.484,5.572
			C189.273,435.75,186.986,446.852,178.847,452.483"/>
		<path id="path394" fill="#231F20" d="M130.464,446.649c0-30.398,24.982-55.023,55.79-55.023c30.812,0,55.794,24.625,55.797,55.023
			c-0.003,30.38-24.985,55.02-55.797,55.02C155.446,501.669,130.464,477.03,130.464,446.649 M147.523,408.444
			c-9.913,9.778-16.045,23.279-16.045,38.205c0,14.917,6.132,28.418,16.045,38.196c9.916,9.779,23.606,15.824,38.73,15.824
			c15.128,0,28.821-6.045,38.737-15.824c9.913-9.777,16.045-23.279,16.045-38.196c0-14.926-6.132-28.427-16.045-38.205
			c-9.916-9.775-23.609-15.818-38.737-15.818C171.127,392.626,157.439,398.669,147.523,408.444"/>
	</g>
</g>
</svg>
