<?xml version="1.0" encoding="ISO-8859-1"?>
<!-- Generator: Adobe Illustrator 16.0.0, SVG Export Plug-In . SVG Version: 6.00 Build 0)  -->
<!DOCTYPE svg PUBLIC "-//W3C//DTD SVG 1.1//EN" "http://www.w3.org/Graphics/SVG/1.1/DTD/svg11.dtd">
<svg version="1.1" id="Signet" xmlns="http://www.w3.org/2000/svg" xmlns:xlink="http://www.w3.org/1999/xlink" x="0px" y="0px" width="256px" height="256px" viewBox="0 0 256 256" style="enable-background:new 0 0 256 256;" xml:space="preserve">
<polygon style="fill:#FFFFFF;" points="144.503,103.625 140.37,104.259 140.676,108.43 137.603,105.593 134.533,108.434   134.835,104.262 130.7,103.633 134.15,101.269 132.064,97.643 136.063,98.866 137.597,94.976 139.136,98.864 143.134,97.637   141.052,101.265 "/>
<polygon style="fill:#FFFFFF;" points="165.503,78.625 161.37,79.259 161.676,83.43 158.603,80.593 155.533,83.434 155.835,79.262   151.7,78.633 155.15,76.269 153.064,72.643 157.063,73.866 158.597,69.976 160.136,73.864 164.134,72.637 162.052,76.265 "/>
<polygon style="fill:#FFFFFF;" points="187.503,96.625 183.37,97.259 183.676,101.43 180.603,98.593 177.533,101.434   177.835,97.262 173.7,96.633 177.15,94.269 175.064,90.643 179.063,91.866 180.597,87.976 182.136,91.864 186.134,90.637   184.052,94.265 "/>
<polygon style="fill:#FFFFFF;" points="168.503,138.625 164.37,139.26 164.676,143.43 161.603,140.594 158.533,143.434   158.835,139.262 154.7,138.633 158.15,136.269 156.064,132.643 160.063,133.865 161.597,129.976 163.136,133.863 167.134,132.637   165.052,136.265 "/>
<polygon style="fill:#FFFFFF;" points="171.908,114.382 169.394,113.063 166.881,114.387 167.358,111.587 165.324,109.607   168.134,109.196 169.389,106.649 170.647,109.194 173.457,109.601 171.426,111.584 "/>
<polygon style="fill:#FFFFFF;" points="172.612,138.438 168.455,138.062 167.754,142.177 165.453,138.692 161.799,140.712   163.091,136.738 159.235,135.141 163.145,133.673 161.989,129.664 165.571,131.806 167.99,128.403 168.551,132.538 172.72,132.304   169.834,135.319 "/>
<polygon style="fill:#FFFFFF;" points="191.579,96.512 187.423,96.133 186.722,100.247 184.421,96.763 180.769,98.781   182.059,94.813 178.201,93.213 182.11,91.749 180.957,87.733 184.541,89.876 186.959,86.473 187.517,90.609 191.688,90.38   188.801,93.395 "/>
<polygon style="fill:#FFFFFF;" points="170.617,78.537 166.46,78.167 165.757,82.28 163.459,78.797 159.802,80.814 161.093,76.842   157.236,75.243 161.147,73.777 159.991,69.766 163.576,71.91 165.993,68.504 166.553,72.643 170.721,72.407 167.835,75.424 "/>
<polygon style="fill:#FFFFFF;" points="148.655,103.501 144.498,103.123 143.795,107.236 141.498,103.753 137.841,105.771   139.132,101.799 135.273,100.203 139.185,98.733 138.03,94.722 141.613,96.866 144.031,93.462 144.59,97.599 148.762,97.362   145.873,100.38 "/>
<polygon style="fill:#FFFFFF;" points="176.486,112.673 174.034,111.247 171.477,112.469 172.066,109.695 170.117,107.639   172.938,107.342 174.292,104.852 175.443,107.444 178.229,107.962 176.123,109.86 "/>
<g>
	<path style="fill:#FFFFFF;" d="M236.486,146.885c-10.654,59.474-67.511,99.063-126.996,88.406   c-59.484-10.653-99.07-67.51-88.414-126.984c10.651-59.482,67.508-99.06,126.995-88.402   C207.554,30.557,247.136,87.409,236.486,146.885L236.486,146.885z"/>
	<path style="fill:#000100;" d="M145.36,35.036c-51.125-9.156-99.998,24.87-109.153,75.99   c-9.158,51.125,24.864,100.003,75.99,109.164c51.124,9.148,99.992-24.882,109.15-76.004   C230.505,93.067,196.485,44.193,145.36,35.036L145.36,35.036z M236.481,146.896c-10.653,59.483-67.51,99.072-126.995,88.422   C50,224.66,10.416,167.801,21.074,108.315C31.725,48.832,88.585,9.247,148.071,19.904   C207.554,30.557,247.136,87.417,236.481,146.896L236.481,146.896z"/>
	<g>
		<polygon style="fill:#000100;" points="87.734,50.753 88.291,161.191 100.328,155.942 98.192,150.632 94.897,52.033     87.734,50.753   "/>
		<path style="fill:#000100;" d="M77.697,72.382c0,0,102.554-38.904,117.626,31.543c0,0,9.657,33.044-38.848,44.821    c0,0-33.144,8.24-36.416,8.267c-3.29,0.033-3.29,0.033-3.29,0.033s-32.593,6.487-25.002,46.677c0,0-25.204-35.945,21.928-64.487    c0,0,18.241-15.232,12.537-38.435C126.232,100.802,120.586,73.241,77.697,72.382L77.697,72.382z"/>
		<polygon style="fill:#000100;" points="88.252,153.215 88.163,172.257 101.04,158.845 88.252,153.215   "/>
		<path style="fill:#000100;" d="M146.725,151.137c0,0-49.711,8.309-54.696,29.868c-4.984,21.564-6.068-32.612,25.806-35.055    c31.871-2.42,2.732-1.481,2.732-1.481l30.386-2.719l-3.832,7.167"/>
	</g>
</g>
<polygon style="fill:#FFFFFF;" points="145.02,101.449 141.016,102.583 141.841,106.666 138.453,104.25 135.773,107.433   135.555,103.28 131.391,103.169 134.509,100.409 131.994,97.088 136.098,97.794 137.124,93.766 139.129,97.413 142.922,95.705   141.316,99.548 "/>
<polygon style="fill:#FFFFFF;" points="165.423,76.749 161.421,77.884 162.245,81.966 158.857,79.55 156.179,82.733 155.959,78.579   151.795,78.469 154.912,75.709 152.399,72.388 156.501,73.095 157.529,69.066 159.533,72.713 163.326,71.004 161.723,74.848 "/>
<polygon style="fill:#FFFFFF;" points="187.976,95.005 183.973,96.141 184.798,100.222 181.409,97.806 178.73,100.99   178.512,96.836 174.348,96.725 177.465,93.966 174.952,90.645 179.054,91.352 180.081,87.322 182.085,90.97 185.88,89.26   184.273,93.104 "/>
<polygon style="fill:#FFFFFF;" points="168.646,135.815 164.643,136.949 165.467,141.032 162.078,138.615 159.4,141.799   159.181,137.646 155.018,137.534 158.134,134.775 155.621,131.453 159.724,132.16 160.75,128.131 162.755,131.779 166.549,130.07   164.943,133.914 "/>
<polygon style="fill:#FFFFFF;" points="172.745,112.575 170.051,111.706 167.812,113.434 167.807,110.608 165.479,109.012   168.159,108.131 168.958,105.418 170.626,107.701 173.45,107.624 171.794,109.91 "/>
</svg>