<?xml version="1.0" encoding="UTF-8" standalone="no"?>
<!-- Created with Inkscape (http://www.inkscape.org/) -->

<svg
   xmlns:dc="http://purl.org/dc/elements/1.1/"
   xmlns:cc="http://creativecommons.org/ns#"
   xmlns:rdf="http://www.w3.org/1999/02/22-rdf-syntax-ns#"
   xmlns:svg="http://www.w3.org/2000/svg"
   xmlns="http://www.w3.org/2000/svg"
   xmlns:xlink="http://www.w3.org/1999/xlink"
   xmlns:sodipodi="http://sodipodi.sourceforge.net/DTD/sodipodi-0.dtd"
   xmlns:inkscape="http://www.inkscape.org/namespaces/inkscape"
   width="135.00011"
   height="135.00002"
   id="svg3279"
   version="1.1"
   inkscape:version="0.48.4 r9939"
   sodipodi:docname="New document 2">
  <defs
     id="defs3281">
    <path
       inkscape:connector-curvature="0"
       id="circle3872-7-9-2-7-1-1-8-6-4-4-1-1"
       d="m 244.57968,-681.1214 c -77.94847,0.24635 -148.811606,65.89405 -154.813509,143.63993 -6.739431,66.34273 31.714849,134.92091 93.392139,161.14158 57.92258,26.17502 131.34075,14.53386 176.34284,-30.95748 44.86209,-43.09884 61.55501,-113.94879 37.80549,-172.10695 -23.65759,-61.1467 -86.45621,-104.68369 -152.72696,-101.71708 z"
       style="fill:none" />
  </defs>
  <sodipodi:namedview
     id="base"
     pagecolor="#ffffff"
     bordercolor="#666666"
     borderopacity="1.0"
     inkscape:pageopacity="0.0"
     inkscape:pageshadow="2"
     inkscape:zoom="2.8"
     inkscape:cx="138.95181"
     inkscape:cy="27.970874"
     inkscape:document-units="px"
     inkscape:current-layer="layer1"
     showgrid="false"
     fit-margin-top="0"
     fit-margin-left="0"
     fit-margin-right="0"
     fit-margin-bottom="0"
     inkscape:window-width="1920"
     inkscape:window-height="1017"
     inkscape:window-x="-8"
     inkscape:window-y="-8"
     inkscape:window-maximized="1" />
  <metadata
     id="metadata3284">
    <rdf:RDF>
      <cc:Work
         rdf:about="">
        <dc:format>image/svg+xml</dc:format>
        <dc:type
           rdf:resource="http://purl.org/dc/dcmitype/StillImage" />
        <dc:title></dc:title>
      </cc:Work>
    </rdf:RDF>
  </metadata>
  <g
     inkscape:label="Layer 1"
     inkscape:groupmode="layer"
     id="layer1"
     transform="translate(-335.35712,-396.29075)">
    <g
       transform="translate(-3802.7767,634.26656)"
       id="g3538">
      <path
         sodipodi:end="6.4001052"
         sodipodi:start="3.24926"
         transform="matrix(0.30918012,-0.265245,0.265245,0.30918012,4266.304,51.922449)"
         d="m 77.73088,-529.15622 c 9.831923,-90.96446 91.54354,-156.73538 182.50801,-146.90346 90.96446,9.83193 156.73538,91.54354 146.90346,182.50801 -0.0549,0.50798 -0.11216,1.01571 -0.17176,1.52316 l -164.53398,-19.32543 z"
         sodipodi:ry="165.66502"
         sodipodi:rx="165.66502"
         sodipodi:cy="-511.35394"
         sodipodi:cx="242.43661"
         id="path4129-15-9-5-8-0"
         style="fill:#5b005e;fill-opacity:1;fill-rule:nonzero;stroke:none"
         sodipodi:type="arc" />
      <text
         sodipodi:linespacing="125%"
         id="text3318-4-6-8-5-9"
         style="font-size:40px;font-style:normal;font-variant:normal;font-weight:bold;font-stretch:normal;line-height:125%;letter-spacing:0px;word-spacing:0px;fill:#32292f;fill-opacity:1;stroke:none;font-family:Aharoni;-inkscape-font-specification:Aharoni Bold"
         xml:space="preserve"
         transform="matrix(0.26555418,-0.27726561,0.27726561,0.26555418,4282.5751,35.750089)"><textPath
           style="font-size:32px;font-style:normal;font-variant:normal;font-weight:bold;font-stretch:normal;letter-spacing:10.41881371px;fill:#32292f;fill-opacity:1;font-family:Comfortaa;-inkscape-font-specification:Comfortaa Bold"
           id="textPath4126-2-3-8-9-4"
           xlink:href="#circle3872-7-9-2-7-1-1-8-6-4-4-1-1">            partipiratenpartij</textPath></text>
      <path
         inkscape:connector-curvature="0"
         id="circle3872-7-9-2-7-1-1-94-1-5-2-8"
         d="m 4201.1383,-219.75675 c -23.2185,0.0734 -44.3265,19.62784 -46.1143,42.78598 -2.0075,19.76149 9.4469,40.18885 27.8187,47.9992 17.2534,7.79674 39.1224,4.32919 52.5272,-9.2213 13.3631,-12.83784 18.3354,-33.94189 11.2611,-51.26545 -7.0469,-18.21374 -25.7527,-31.1821 -45.4927,-30.29843 z"
         style="fill:#32292f;fill-opacity:1;stroke:none" />
      <path
         id="circle5052-2-1-1-3-8-0-2-5-6-5-8"
         d="m 4202.3138,-217.06991 c -24.7042,0 -44.7263,20.0363 -44.7263,44.74046 0,24.70415 20.0221,44.7263 44.7263,44.7263 24.7042,0 44.7263,-20.02215 44.7263,-44.7263 0,-24.70416 -20.0221,-44.74046 -44.7263,-44.74046 z m -19.3181,8.22861 4.348,0 0,6.95397 c 15.6856,-3.25044 46.965,-3.42237 47.1339,23.69445 0.1094,19.1448 -33.819,16.22135 -43.6499,22.43397 -10.6956,6.73944 -5.8917,21.00351 -5.8917,21.00351 0,0 -6.4631,-13.36235 -1.9403,-22.07989 l 0,-41.80875 c -1.8589,-0.11928 -3.4164,-0.005 -4.3905,0.28326 -0.2784,-0.60635 1.4382,-1.54139 4.3905,-2.43601 l 0,-8.04451 z m 4.348,10.86291 0,36.48352 c 4.5923,-3.12122 12.472,-6.88541 13.9929,-14.09204 3.0615,-14.49279 -6.1501,-20.50284 -13.9929,-22.39148 z"
         style="fill:#fdfdfb;fill-opacity:1"
         inkscape:connector-curvature="0" />
      <path
         inkscape:connector-curvature="0"
         id="path3150-0-6-41-2"
         d="m 4200.7889,-233.45592 c -29.9261,0.0946 -57.1319,25.2981 -59.4362,55.14637 -2.5874,25.47036 12.176,51.79895 35.8552,61.86562 22.2377,10.04913 50.4245,5.57985 67.7017,-11.88523 17.2235,-16.54654 23.6323,-43.74732 14.5143,-66.07545 -9.0826,-23.47549 -33.1923,-40.19025 -58.635,-39.05131 z"
         style="fill:none" />
    </g>
  </g>
</svg>
