<?xml version="1.0" encoding="UTF-8" standalone="no"?>
<!-- Created with Inkscape (http://www.inkscape.org/) -->

<svg
   xmlns:dc="http://purl.org/dc/elements/1.1/"
   xmlns:cc="http://creativecommons.org/ns#"
   xmlns:rdf="http://www.w3.org/1999/02/22-rdf-syntax-ns#"
   xmlns:svg="http://www.w3.org/2000/svg"
   xmlns="http://www.w3.org/2000/svg"
   xmlns:sodipodi="http://sodipodi.sourceforge.net/DTD/sodipodi-0.dtd"
   xmlns:inkscape="http://www.inkscape.org/namespaces/inkscape"
   version="1.1"
   width="463"
   height="463"
   viewBox="-0.327 -0.089 463 463"
   id="svg2"
   xml:space="preserve"
   inkscape:version="0.47 r22583"
   sodipodi:docname="partido-pirata-do-brasil.svg"><metadata
   id="metadata9"><rdf:RDF><cc:Work
       rdf:about=""><dc:format>image/svg+xml</dc:format><dc:type
         rdf:resource="http://purl.org/dc/dcmitype/StillImage" /><dc:title></dc:title></cc:Work></rdf:RDF></metadata><sodipodi:namedview
   pagecolor="#ffffff"
   bordercolor="#666666"
   borderopacity="1"
   objecttolerance="10"
   gridtolerance="10"
   guidetolerance="10"
   inkscape:pageopacity="0"
   inkscape:pageshadow="2"
   inkscape:window-width="1440"
   inkscape:window-height="827"
   id="namedview7"
   showgrid="false"
   inkscape:zoom="1.2591793"
   inkscape:cx="231.5"
   inkscape:cy="231.5"
   inkscape:window-x="0"
   inkscape:window-y="25"
   inkscape:window-maximized="1"
   inkscape:current-layer="svg2" />
	<defs
   id="defs4"><inkscape:perspective
     sodipodi:type="inkscape:persp3d"
     inkscape:vp_x="0 : 231.5 : 1"
     inkscape:vp_y="0 : 1000 : 0"
     inkscape:vp_z="463 : 231.5 : 1"
     inkscape:persp3d-origin="231.5 : 154.33333 : 1"
     id="perspective11" /><inkscape:perspective
     id="perspective2885"
     inkscape:persp3d-origin="0.5 : 0.33333333 : 1"
     inkscape:vp_z="1 : 0.5 : 1"
     inkscape:vp_y="0 : 1000 : 0"
     inkscape:vp_x="0 : 0.5 : 1"
     sodipodi:type="inkscape:persp3d" /><inkscape:perspective
     id="perspective2909"
     inkscape:persp3d-origin="0.5 : 0.33333333 : 1"
     inkscape:vp_z="1 : 0.5 : 1"
     inkscape:vp_y="0 : 1000 : 0"
     inkscape:vp_x="0 : 0.5 : 1"
     sodipodi:type="inkscape:persp3d" /></defs>
	
<g
   id="g3727"><path
     style="fill:#ffffff;stroke:#000000;stroke-width:22;stroke-miterlimit:4;stroke-opacity:1;stroke-dasharray:none;opacity:1"
     id="path2827"
     d="M 231.17299,451.91098 C 109.39398,451.91098 10.673,353.19001 10.673,231.411 c 0,-121.77795 98.72098,-220.500001 220.49999,-220.500001 121.77901,0 220.49999,98.722051 220.49999,220.500001 0,121.78007 -98.72098,220.49998 -220.49999,220.49998 z" /><path
     sodipodi:nodetypes="cccccccsccsc"
     id="path8"
     transform="translate(-0.327,-0.089)"
     d="m 229.5625,86.8125 c -58.79775,0.01403 -111.61391,16.41277 -108.4375,23.3125 15.48524,-4.5115 62.75009,-0.45145 89.5,28.78125 24.77607,-0.75791 62.36358,-32.24584 60.875,-49 -13.88217,-2.160345 -28.0666,-3.097061 -41.9375,-3.09375 z M 359.4375,135 C 308.11768,116.55311 251.83614,162.13589 224.5,223.90625 c -11.5412,30.75359 -48.59014,46.78347 -67.28125,60.78125 -47.901,35.873 -6.65625,121.0625 -6.65625,121.0625 0,0 -22.325,-66.24175 27.375,-97.59375 C 223.6645,279.31025 381.32325,292.848 380.78125,203.875 380.60224,174.50494 372.57726,152.02154 359.4375,135 z"
     style="opacity:1" /><rect
     id="rect10"
     y="61.290001"
     x="141.205"
     height="250.63"
     width="20.208" /><path
     transform="matrix(0.7827004,0.03763431,-0.03763431,0.7827004,63.565887,36.1405)"
     d="m 277.16467,219.98456 -12.23473,-5.72401 -11.65135,6.83365 1.66311,-13.40473 -10.09966,-8.96938 13.26259,-2.56057 5.40943,-12.37704 6.53361,11.82221 13.44286,1.31996 -9.22459,9.8671 2.89873,13.19281 z"
     inkscape:randomized="0"
     inkscape:rounded="0"
     inkscape:flatsided="false"
     sodipodi:arg2="1.5243739"
     sodipodi:arg1="0.89605538"
     sodipodi:r2="10.170314"
     sodipodi:r1="20.340628"
     sodipodi:cy="204.1012"
     sodipodi:cx="264.45798"
     sodipodi:sides="5"
     id="path2891"
     style="opacity:1;color:#000000;fill:#ffffff;fill-opacity:1;fill-rule:nonzero;stroke:none;stroke-width:8;marker:none;visibility:visible;display:inline;overflow:visible;enable-background:accumulate"
     sodipodi:type="star" /><path
     sodipodi:type="star"
     style="opacity:1;color:#000000;fill:#ffffff;fill-opacity:1;fill-rule:nonzero;stroke:none;stroke-width:8;marker:none;visibility:visible;display:inline;overflow:visible;enable-background:accumulate"
     id="path2893"
     sodipodi:sides="5"
     sodipodi:cx="264.45798"
     sodipodi:cy="204.1012"
     sodipodi:r1="20.340628"
     sodipodi:r2="10.170314"
     sodipodi:arg1="0.89605538"
     sodipodi:arg2="1.5243739"
     inkscape:flatsided="false"
     inkscape:rounded="0"
     inkscape:randomized="0"
     d="m 277.16467,219.98456 -12.23473,-5.72401 -11.65135,6.83365 1.66311,-13.40473 -10.09966,-8.96938 13.26259,-2.56057 5.40943,-12.37704 6.53361,11.82221 13.44286,1.31996 -9.22459,9.8671 2.89873,13.19281 z"
     transform="matrix(0.7827004,0.03763431,-0.03763431,0.7827004,99.746171,5.0480698)" /><path
     transform="matrix(0.7827004,0.03763431,-0.03763431,0.7827004,141.01431,-13.833515)"
     d="m 277.16467,219.98456 -12.23473,-5.72401 -11.65135,6.83365 1.66311,-13.40473 -10.09966,-8.96938 13.26259,-2.56057 5.40943,-12.37704 6.53361,11.82221 13.44286,1.31996 -9.22459,9.8671 2.89873,13.19281 z"
     inkscape:randomized="0"
     inkscape:rounded="0"
     inkscape:flatsided="false"
     sodipodi:arg2="1.5243739"
     sodipodi:arg1="0.89605538"
     sodipodi:r2="10.170314"
     sodipodi:r1="20.340628"
     sodipodi:cy="204.1012"
     sodipodi:cx="264.45798"
     sodipodi:sides="5"
     id="path2895"
     style="opacity:1;color:#000000;fill:#ffffff;fill-opacity:1;fill-rule:nonzero;stroke:none;stroke-width:8;marker:none;visibility:visible;display:inline;overflow:visible;enable-background:accumulate"
     sodipodi:type="star" /><path
     id="path2899"
     transform="translate(-0.327,-0.089)"
     d="M 271.5 89.90625 C 250.75187 100.30707 224.28272 120.67664 210.625 138.90625 C 217.71613 146.65554 223.36058 156.18118 226.59375 167.78125 C 243.86618 163.21079 302.3434 126.48517 324.0625 106.125 C 308.18723 97.90464 290.11831 92.803633 271.5 89.90625 z "
     style="fill:#00bb00;stroke:none;stroke-width:1px;stroke-linecap:butt;stroke-linejoin:miter;stroke-opacity:1;opacity:1;fill-opacity:1" /><path
     id="path2897"
     transform="translate(-0.327,-0.089)"
     d="M 324 106.125 C 292.65323 112.37489 252.72758 136.73171 226.53125 167.53125 C 230.27771 180.7962 230.86732 196.77353 226.8125 215.96875 C 226.23195 218.71693 225.45331 221.36599 224.5 223.90625 C 260.57199 166.9009 308.11768 138.78982 359.4375 135 C 349.94514 122.70339 337.78651 113.25628 324 106.125 z "
     style="fill:#ffdc00;stroke:none;stroke-width:1px;stroke-linecap:butt;stroke-linejoin:miter;stroke-opacity:1;opacity:1;color:#000000;fill-opacity:1;fill-rule:nonzero;marker:none;visibility:visible;display:inline;overflow:visible;enable-background:accumulate" /></g></svg>