<?xml version="1.0" encoding="UTF-8"?>
<!DOCTYPE svg PUBLIC "-//W3C//DTD SVG 1.1//EN" "http://www.w3.org/Graphics/SVG/1.1/DTD/svg11.dtd">
<!-- Creator: CorelDRAW -->
<svg xmlns="http://www.w3.org/2000/svg" xml:space="preserve" width="210mm" height="297mm" style="shape-rendering:geometricPrecision; text-rendering:geometricPrecision; image-rendering:optimizeQuality; fill-rule:evenodd; clip-rule:evenodd"
viewBox="0 0 210 297"
 xmlns:xlink="http://www.w3.org/1999/xlink">
 <defs>
  <style type="text/css">
   <![CDATA[
    .str0 {stroke:#1F1A17;stroke-width:0.2}
    .str1 {stroke:white;stroke-width:0.5}
    .str3 {stroke:#1F1A17}
    .str2 {stroke:white}
    .fil3 {fill:none}
    .fil0 {fill:#1F1A17}
    .fil2 {fill:white}
    .fil1 {fill:white}
   ]]>
  </style>
 </defs>
 <g id="Layer_x0020_1">
  <metadata id="CorelCorpID_0Corel-Layer"/>
  <polygon class="fil0 str0" points="17.7515,58.3224 184.319,58.3224 184.319,222.267 17.7515,222.267 "/>
  <path id="path2827" class="fil0 str1" d="M137.629 200.232c-23.6997,14.4743 -54.6456,6.9957 -69.1199,-16.704 -8.7197,-14.2773 -9.4689,-31.1832 -3.5075,-45.5347 -0.0732,-0.1155 -0.1469,-0.2306 -0.2185,-0.3478 -7.1027,-11.6296 -3.4328,-26.8155 8.1969,-33.9182 10.0531,-6.1398 22.7621,-4.2285 30.6115,3.9139 19.4984,-3.0651 39.8141,5.5786 50.7415,23.4709 14.4744,23.6999 6.9957,54.6456 -16.704,69.1199z"/>
  <g id="_84006656">
   <circle id="_84006752" class="fil0" cx="87.0318" cy="125.947" r="21.2695"/>
   <circle id="_84006680" class="fil0" cx="87.0318" cy="125.947" r="18.1733"/>
  </g>
  <path id="path2827_0" class="fil1" d="M134.376 195.211c-21.112,12.8939 -48.679,6.2319 -61.5728,-14.8801 -12.8938,-21.1118 -6.2319,-48.679 14.8801,-61.5729 21.112,-12.8938 48.6791,-6.2316 61.5729,14.8802 12.8939,21.1121 6.2318,48.679 -14.8802,61.5728z"/>
  <path class="fil0 str0" d="M78.9581 96.5824c-0.9994,-5.1504 -3.847,-33.3517 3.2736,-27.9565 1.2139,2.4785 0.1882,9.4293 -2.158,20.9484 -0.0636,0.312 -1.1151,7.0112 -1.1156,7.0081z"/>
  <circle class="fil2" cx="72.7327" cy="119.562" r="4.8462"/>
  <path class="fil3 str2" d="M68.9956 137.226c-1.7022,-6.1856 2.0467,-19.6414 3.1708,-17.8142"/>
  <g id="_83749544">
   <circle id="_83749640" class="fil2" cx="87.0318" cy="125.947" r="21.2695"/>
   <circle id="_83749568" class="fil2" cx="87.0318" cy="125.947" r="18.1733"/>
  </g>
  <path class="fil2" d="M83.7581 99.7824c-0.9994,-5.1504 -3.847,-33.3517 3.2736,-27.9565 1.2139,2.4785 0.1882,9.4293 -2.158,20.9484 -0.0636,0.312 -1.1151,7.0112 -1.1156,7.0081z"/>
  <path class="fil2" d="M60.4117 121.986c-2.0534,-1.9911 -35.505,-7.225 -29.0496,0 1.4526,1.2912 19.3664,0 29.0496,0z"/>
  <circle class="fil0" cx="72.7327" cy="119.562" r="4.8462"/>
  <path class="fil3 str3" d="M69.1277 138.415c-2.5216,-6.4837 1.4364,-21.0042 3.0387,-19.0031"/>
  <path class="fil3 str3" d="M72.571 117.793c3.5751,-4.9149 11.131,-10.9588 21.955,-13.2465"/>
  <g id="_83992352">
   <path id="path8" class="fil0" d="M86.7819 133.804c4.888,-1.4307 25.5092,1.3504 21.3211,21.2999 -1.5242,7.2599 -9.9321,10.8062 -14.0058,13.8649 -9.6432,7.2406 -1.3091,24.3979 -1.3091,24.3979 0,0 -4.5139,-13.3474 5.4929,-19.6775 9.207,-5.8241 40.9766,-3.1328 40.845,-21.061 -0.2523,-34.3491 -53.7605,-21.8908 -52.3441,-18.8242z"/>
   <polygon id="rect10" class="fil0" points="90.9434,174.478 95.0153,174.473 94.9523,123.97 90.8803,123.975 "/>
  </g>
 </g>
</svg>
