<?xml version="1.0" encoding="utf-8"?>
<!-- Generator: Adobe Illustrator 15.0.0, SVG Export Plug-In . SVG Version: 6.00 Build 0)  -->
<!DOCTYPE svg PUBLIC "-//W3C//DTD SVG 1.1//EN" "http://www.w3.org/Graphics/SVG/1.1/DTD/svg11.dtd">
<svg version="1.1"
	 id="Layer_1" sodipodi:docname="Signet.svg" inkscape:version="0.47 r22583" xmlns:sodipodi="http://sodipodi.sourceforge.net/DTD/sodipodi-0.dtd" xmlns:inkscape="http://www.inkscape.org/namespaces/inkscape" xmlns:rdf="http://www.w3.org/1999/02/22-rdf-syntax-ns#" xmlns:svg="http://www.w3.org/2000/svg" xmlns:cc="http://creativecommons.org/ns#" xmlns:dc="http://purl.org/dc/elements/1.1/"
	 xmlns="http://www.w3.org/2000/svg" xmlns:xlink="http://www.w3.org/1999/xlink" x="0px" y="0px" width="187.2px" height="187.2px"
	 viewBox="-3.85 -4.582 187.2 187.2" enable-background="new -3.85 -4.582 187.2 187.2" xml:space="preserve">
<defs>
	
	
		<inkscape:perspective  id="perspective25" sodipodi:type="inkscape:persp3d" inkscape:vp_x="0 : 89.268997 : 1" inkscape:vp_y="0 : 1000 : 0" inkscape:vp_z="179.5 : 89.268997 : 1" inkscape:persp3d-origin="89.75 : 59.512665 : 1">
		</inkscape:perspective>
	
		<inkscape:perspective  id="perspective2946" sodipodi:type="inkscape:persp3d" inkscape:vp_x="0 : 89.268997 : 1" inkscape:vp_y="0 : 1000 : 0" inkscape:vp_z="179.5 : 89.268997 : 1" inkscape:persp3d-origin="89.75 : 59.512665 : 1">
		</inkscape:perspective>
	
		<inkscape:perspective  id="perspective3684" sodipodi:type="inkscape:persp3d" inkscape:vp_x="0 : 89.268997 : 1" inkscape:vp_y="0 : 1000 : 0" inkscape:vp_z="179.5 : 89.268997 : 1" inkscape:persp3d-origin="89.75 : 59.512665 : 1">
		</inkscape:perspective>
</defs>
<sodipodi:namedview  pagecolor="#ffffff" objecttolerance="10" id="namedview19" borderopacity="1" bordercolor="#666666" gridtolerance="10" guidetolerance="10" inkscape:pageopacity="0" inkscape:pageshadow="2" inkscape:zoom="3.4789653" inkscape:window-width="1920" inkscape:window-height="1074" inkscape:cy="73.492196" showgrid="false" inkscape:cx="142.65108" inkscape:window-x="0" inkscape:window-y="35" inkscape:window-maximized="1" inkscape:current-layer="g5193" inkscape:snap-global="false">
	</sodipodi:namedview>
<g id="g5193" transform="translate(206.52362,5.0318533)">
	<g id="g2820">
		<g id="XMLID_1_">
			<g>
				<path fill="#FFFFFF" d="M-117.414,3.567c44.081,0,79.8,35.72,79.8,79.79s-35.72,79.8-79.8,79.8
					c-44.07,0-79.79-35.729-79.79-79.8S-161.483,3.567-117.414,3.567z"/>
				<path d="M-27.023,85.187c0,48.729-39.58,87.819-88.54,87.819c-49.1,0-89.87-39.289-90.94-88.289
					c-1.08-49.59,38.82-90.01,89-89.75C-67.474-4.763-27.023,35.867-27.023,85.187z M-37.613,83.357c0-44.07-35.72-79.79-79.8-79.79
					c-44.07,0-79.79,35.72-79.79,79.79s35.72,79.8,79.79,79.8C-73.333,163.157-37.613,127.427-37.613,83.357z"/>
			</g>
			<g>
			</g>
		</g>
		<g id="g5188">
			<rect id="rect3697" x="-152.303" y="23.901" width="6.5" height="94.5"/>
			<path id="path13" sodipodi:nodetypes="ccccccccccccsccsccsccccscccccc" fill="#CA0000" d="M-123.362,40.314
				c-6.604-3.763-13.167-5.372-13.167-5.372l-7.932-1.715l-6.259-0.434l-8.164,0.708c0,0,0.081,0.244,0.081,0.892
				c2.27,0,3.326-0.081,5.595-0.081c17.474,1.739,26.007,6.851,32.492,19.273c5.611,10.744,4.124,21.901,2.219,26.21
				c-5.563,12.614-18.653,15.581-28.524,28.312c-9.146,11.798-7.334,23.31-2.617,43.397c0,0.647,0.349-0.058,0.996-0.058
				c-1.152-12.305-3.16-22.353,2.896-31.33c4.314-6.393,13.521-11.785,19.745-16.404c7.289-5.413,13.123-11.855,18.211-19.604
				c5.071-7.719,7.624-19.454,0.812-29.441C-111.154,48.545-116.707,44.103-123.362,40.314L-123.362,40.314z M-66.832,45.099
				c-7.415-9.172-12.571-12.104-25.726-16.153c-9.681-2.979-21.759-2.281-35.021-2.014c-0.433,0.341-0.162,1.337-0.162,0.485
				c13.768-0.359,26.087,0.323,35.898,3.894c8.673,3.158,15.675,8.43,20.304,16.627c4.878,8.63,6.625,14.275,6.625,23.358
				c0,10.38-5.179,20.841-19.764,26.683v0.219c0-0.01,0,0.008,0,0.05v0.217c15.729-5.169,26.1-10.017,26.48-27.566
				C-58.05,64.173-60.427,53.022-66.832,45.099z"/>
			<path id="path17" fill="#CA0000" d="M-72.324,63.221c0.836-1.759,1.584-3.478,2.243-5.12c-1.231,0.047-2.449,0.114-3.667,0.206
				c-0.31-0.74-0.657-1.472-1.046-2.192c-1.229,1.061-2.448,2.189-3.732,3.402c-0.259-2.342-0.842-4.613-1.756-6.792
				c-1.017,0.217-2.027,0.455-3.041,0.724c-2.061-2.104-4.51-4.157-7.339-6.178c1.087,1.958,1.892,4.028,2.374,6.202
				c-1.391-0.266-2.799-0.51-4.211-0.745c1.934,2.357,3.484,4.741,4.659,7.151c-2.252-1.118-4.689-2.186-7.194-3.266
				c0.182,0.828,0.32,1.668,0.418,2.514c-1.675,0.05-3.395,0.15-5.146,0.295c1.873,1.833,3.689,3.575,5.31,5.295
				c-0.963,0.533-1.96,1.098-3.002,1.699c2.282,0.887,4.411,1.807,6.304,2.823c-1.372,1.593-2.894,3.263-4.497,4.973
				c4.617-1.007,8.613-1.416,12.151-1.446c-0.617,2.748-1.644,5.555-3.068,8.414c0.716-0.098,1.421-0.185,2.117-0.264
				c1.353-2.782,2.337-5.52,2.938-8.199c3.412-0.586,6.377-0.825,9.031-0.891c-0.542-1.316-1.205-2.639-1.999-3.939
				c1.443-1.27,2.787-2.466,4.142-3.621C-70.979,63.909-71.643,63.561-72.324,63.221z"/>
		</g>
	</g>
</g>
<g id="g3687" transform="translate(6.9723822,3.3891076)">
</g>
</svg>
