<?xml version="1.0" encoding="UTF-8" standalone="no"?>
<!-- Generator: Adobe Illustrator 13.0.2, SVG Export Plug-In . SVG Version: 6.00 Build 14948)  -->
<svg xmlns:dc="http://purl.org/dc/elements/1.1/" xmlns:cc="http://creativecommons.org/ns#" xmlns:rdf="http://www.w3.org/1999/02/22-rdf-syntax-ns#" xmlns:svg="http://www.w3.org/2000/svg" xmlns="http://www.w3.org/2000/svg" xmlns:sodipodi="http://sodipodi.sourceforge.net/DTD/sodipodi-0.dtd" xmlns:inkscape="http://www.inkscape.org/namespaces/inkscape" version="1.0" id="Ebene_1" x="0px" y="0px" width="294.662px" height="109.332px" viewBox="0 0 294.662 109.332" enable-background="new 0 0 294.662 109.332" xml:space="preserve" sodipodi:version="0.32" inkscape:version="0.46" sodipodi:docname="Logo_PPS_en.svg" inkscape:output_extension="org.inkscape.output.svg.inkscape"><metadata id="metadata41"><rdf:RDF><cc:Work rdf:about=""><dc:format>image/svg+xml</dc:format><dc:type rdf:resource="http://purl.org/dc/dcmitype/StillImage"/></cc:Work></rdf:RDF></metadata><defs id="defs39"><inkscape:perspective sodipodi:type="inkscape:persp3d" inkscape:vp_x="0 : 54.666 : 1" inkscape:vp_y="0 : 1000 : 0" inkscape:vp_z="294.66199 : 54.666 : 1" inkscape:persp3d-origin="147.33099 : 36.444 : 1" id="perspective43"/></defs><sodipodi:namedview inkscape:window-height="701" inkscape:window-width="640" inkscape:pageshadow="2" inkscape:pageopacity="0.0" guidetolerance="10.0" gridtolerance="10.0" objecttolerance="10.0" borderopacity="1.0" bordercolor="#666666" pagecolor="#ffffff" id="base" showgrid="false" inkscape:zoom="1.8427894" inkscape:cx="147.33099" inkscape:cy="54.666" inkscape:window-x="70" inkscape:window-y="42" inkscape:current-layer="Ebene_1"/>
<g id="g2211" opacity="0.48">
	<path id="path2213" fill="#00004C" d="M81.109,14.312h207.633v83.211H83.096c-7.643,4.984-16.771,7.88-26.578,7.88   c-26.908,0-48.727-21.812-48.727-48.726c0-26.913,21.814-48.728,48.727-48.728C65.486,7.95,73.889,10.372,81.109,14.312z"/>
</g>
<path id="path2294" export-filename="D:\_kunden\piratenpartei\logovarianten\path2202.png" nodetypes="ccccc" export-xdpi="90" export-ydpi="90" fill="#FFFFFF" d="  M48.809,11.787h237.104v41.359H49.248L48.809,11.787z"/>
<path id="path2296" export-filename="D:\_kunden\piratenpartei\logovarianten\path2202.png" export-xdpi="90" export-ydpi="90" fill="#FE0002" d="  M49.248,53.354h236.664v41.359H49.248V53.354z"/>
<path id="path2312" export-filename="D:\_kunden\piratenpartei\logovarianten\path2202.png" export-xdpi="90" export-ydpi="90" fill="#FFFFFF" d="  M7.248,52.847c0-25.808,20.92-46.727,46.729-46.727c25.805,0,46.725,20.921,46.725,46.727c0,25.807-20.92,46.723-46.725,46.723  C28.168,99.57,7.248,78.654,7.248,52.847z"/>
<path id="path2314" export-filename="D:\_kunden\piratenpartei\logovarianten\path2202.png" export-xdpi="90" export-ydpi="90" d="  M42.422,28.312v35.523c0.551-0.401,1.152-0.783,1.803-1.141c9.039-4.922,12.43-9.374,12.291-17.548  C56.326,34.284,49.35,29.807,42.422,28.312z M38.277,17.718h4.145v6.704c3.68-0.832,8.402-1.36,14.387-1.36  c16.002,0,28.107,5.113,30.857,19.54c2.562,13.424-5.273,17.458-16.484,20.634c-8.859,2.507-24.32,3.123-28.465,8.304  c-4.146,5.18-4.324,11.75-2.805,17.623c-2.141-5.384-3.264-8.897-3.264-13.184c0-2.327,0.416-4.897,1.627-7.292v-40.94  c-1.539-0.1-3.002-0.074-4.305,0.035c1.098-0.762,2.512-1.502,4.305-2.159v-7.903H38.277z"/>
<path id="path2203" export-filename="D:\_kunden\piratenpartei\logovarianten\path2202.png" export-xdpi="90" export-ydpi="90" d="  M53.949,4.113c-26.889,0-48.672,21.86-48.672,48.749c0,26.887,21.783,48.749,48.672,48.749c26.887,0,48.746-21.862,48.746-48.749  S80.836,4.113,53.949,4.113z M53.949,8.124c24.723,0,44.738,20.014,44.738,44.738c0,24.723-20.016,44.738-44.738,44.738  c-24.725,0-44.66-20.015-44.66-44.738C9.289,28.135,29.225,8.124,53.949,8.124z"/>
<g id="g10">
	<polygon fill="#FFFFFF" points="260.648,60.717 268.588,60.717 268.588,69.982 277.855,69.982 277.855,77.924 268.588,77.924 268.588,87.188 260.648,87.188 260.648,77.924 251.385,77.924 251.385,69.982 260.648,69.982" id="polygon12"/>
</g>
<g id="g14">
	<path fill="#1A171B" d="M121.371,38.181v7.542h-5.283V19.305h9.572c6.125,0,9.266,3.102,9.266,9.228s-3.141,9.649-9.266,9.649   H121.371z M125.621,33.089c2.643,0,3.943-1.685,3.943-4.557c0-2.833-1.301-4.135-3.943-4.135h-4.25v8.692H125.621z" id="path16"/>
	<path fill="#1A171B" d="M141.479,19.305h5.285v26.419h-5.285V19.305z" id="path18"/>
	<path fill="#1A171B" d="M164.838,37.186h-4.67v8.538h-5.285V19.305h10.109c6.24,0,9.189,2.527,9.189,8.768   c0,3.905-1.455,6.05-3.83,7.543l3.715,10.108h-5.781l-3.064-8.538H164.838z M164.992,24.321h-4.824v7.849h4.9   c2.641,0,3.713-1.646,3.713-4.021C168.781,25.623,167.518,24.321,164.992,24.321z" id="path20"/>
	<path fill="#1A171B" d="M185.865,19.305h10.031l5.744,26.419h-5.285l-1.186-4.441h-8.883l-0.996,4.441h-5.283L185.865,19.305z    M187.396,36.19h6.777l-2.488-12.022h-1.723L187.396,36.19z" id="path22"/>
	<path fill="#1A171B" d="M204.158,19.305h19.145v5.092h-6.893v21.327h-5.283V24.397h-6.969V19.305z" id="path24"/>
	<path fill="#1A171B" d="M229.168,19.305h16.77v5.054h-11.562v5.896h9.266v4.939h-9.266v5.476h11.562v5.054h-16.77V19.305z" id="path26"/>
	<path fill="#FFFFFF" d="M121.371,79.733v7.543h-5.283V60.856h9.572c6.125,0,9.266,3.102,9.266,9.228   c0,6.126-3.141,9.649-9.266,9.649H121.371z M125.621,74.64c2.643,0,3.943-1.684,3.943-4.556c0-2.833-1.301-4.135-3.943-4.135h-4.25   v8.691H125.621z" id="path28"/>
	<path fill="#FFFFFF" d="M142.773,60.856h10.031l5.744,26.419h-5.285l-1.186-4.442h-8.883l-0.996,4.442h-5.283L142.773,60.856z    M144.305,77.742h6.777l-2.488-12.022h-1.725L144.305,77.742z" id="path30"/>
	<path fill="#FFFFFF" d="M172.994,78.737h-4.672v8.539h-5.283V60.856h10.107c6.24,0,9.189,2.527,9.189,8.768   c0,3.906-1.455,6.05-3.83,7.543l3.715,10.108h-5.781l-3.062-8.539H172.994z M173.146,65.873h-4.824v7.849h4.9   c2.643,0,3.715-1.646,3.715-4.021C176.938,67.174,175.674,65.873,173.146,65.873z" id="path32"/>
	<path fill="#FFFFFF" d="M185.623,60.856h19.145v5.092h-6.893v21.327h-5.283V65.949h-6.969V60.856z" id="path34"/>
	<path fill="#FFFFFF" d="M220.932,87.276h-5.283V75.98l-7.965-15.124h5.859l4.709,9.228l4.672-9.228h5.857l-7.85,15.163V87.276z" id="path36"/>
</g>
</svg>