<?xml version="1.0" encoding="UTF-8" standalone="no"?>
<!-- Created with Inkscape (http://www.inkscape.org/) -->

<svg
   xmlns:svg="http://www.w3.org/2000/svg"
   xmlns="http://www.w3.org/2000/svg"
   version="1.1"
   width="185"
   height="185"
   id="svg2">
  <defs
     id="defs6" />
  <path
     d="m -157.90358,48.795469 0.34375,0.09375 c -0.0133,-0.0062 -0.0178,-0.02536 -0.0312,-0.03125 -0.0711,-0.03104 -0.23313,-0.03294 -0.3125,-0.0625 z"
     id="path3790"
     style="fill:#000000" />
  <g
     transform="translate(-9.8085845,1.987347)"
     id="g3802">
    <path
       d="m 102.29296,0.55952602 c -5.513659,0 -10.916091,0.51820128 -16.156251,1.46874998 1.68726,1.5581351 2.75,3.7722489 2.75,6.25 0,0.9427579 -0.15502,1.870917 -0.4375,2.71875 4.49536,-0.776947 9.125472,-1.1875 13.843751,-1.1875 42.52808,0 77.34444,32.887146 80.375,74.78125 1.42593,-1.072153 3.20359,-1.71875 5.125,-1.71875 1.59397,0 3.06748,0.457587 4.34375,1.21875 C 188.82506,37.507242 149.85392,0.55952602 102.29296,0.55952602 z M 79.980459,4.059526 c -2.3284,0 -4.21875,1.8903513 -4.21875,4.21875 0,2.328399 1.89035,4.21875 4.21875,4.21875 2.3284,0 4.21875,-1.890351 4.21875,-4.21875 0,-2.3283987 -1.89035,-4.21875 -4.21875,-4.21875 z m -7.75,1.65625 c -32.96248,11.689916 -57.1157,42.032886 -59.75,78.21875 1.36112,-0.919556 3.01499,-1.46875 4.78125,-1.46875 1.75068,0 3.36476,0.532762 4.71875,1.4375 2.58795,-32.042848 23.79985,-58.67918 52.75,-69.21875 -1.7722,-1.56275 -2.90625,-3.85769 -2.90625,-6.40625 0,-0.893556 0.15139,-1.7531192 0.40625,-2.5625 z m 115.156251,81.46875 c -2.3284,0 -4.21875,1.890351 -4.21875,4.21875 0,2.328399 1.89035,4.21875 4.21875,4.21875 2.3284,0 4.21875,-1.890351 4.21875,-4.21875 0,-2.328399 -1.89035,-4.21875 -4.21875,-4.21875 z m -165.312501,10.875 c -1.3721,0.943039 -3.02174,1.46875 -4.8125,1.46875 -1.7262,0 -3.34493,-0.493346 -4.6875,-1.375 3.88602,46.015184 42.56586,82.312504 89.718751,82.312504 5.47222,0 10.82777,-0.50164 16.03125,-1.4375 -1.3594,-1.51081 -2.1875,-3.49512 -2.1875,-5.6875 0,-1.23638 0.24548,-2.4082 0.71875,-3.46875 -4.72445,0.86046 -9.58886,1.34375 -14.5625,1.34375 -41.983381,0 -76.428211,-32.03145 -80.218751,-73.156254 z m 160.468751,0.0625 c -2.93781,31.686884 -24.10606,57.938644 -52.875,68.312504 2.14207,1.54923 3.53125,4.0606 3.53125,6.90625 0,0.58875 -0.0739,1.16358 -0.1875,1.71875 32.1069,-11.66174 55.72975,-41.03528 58.96875,-76.218754 -1.23707,0.69874 -2.6654,1.09375 -4.1875,1.09375 -1.97843,0 -3.80315,-0.68202 -5.25,-1.8125 z m -58.0625,70.593754 c -2.3284,0 -4.21875,1.89035 -4.21875,4.21875 0,2.3284 1.89035,4.21875 4.21875,4.21875 2.3284,0 4.21875,-1.89035 4.21875,-4.21875 0,-2.3284 -1.89035,-4.21875 -4.21875,-4.21875 z"
       id="path2820"
       style="font-size:medium;font-style:normal;font-variant:normal;font-weight:normal;font-stretch:normal;text-indent:0;text-align:start;text-decoration:none;line-height:normal;letter-spacing:normal;word-spacing:normal;text-transform:none;direction:ltr;block-progression:tb;writing-mode:lr-tb;text-anchor:start;color:#000000;fill:#000000;fill-opacity:1;fill-rule:nonzero;stroke:none;stroke-width:9.53925705;marker:none;visibility:visible;display:inline;overflow:visible;enable-background:accumulate;font-family:Bitstream Vera Sans;-inkscape-font-specification:Bitstream Vera Sans" />
    <path
       d="m 66.33302,23.973476 0,15.71875 -2.96875,1.34375 -3.6875,1.71875 3.75,0.34375 1.71875,0.15625 c 0.131139,0.0018 0.617753,0.04478 1.1875,0.0625 l 0,78.375004 c -0.265927,0.60089 -0.53003,1.20447 -0.78125,1.84375 -2.12356,6.49698 -1.60338,14.4551 1.875,26.3125 1.15679,3.94337 1.20478,3.87258 1.8125,-5 0.68313,-9.97345 1.336884,-12.11859 5.75,-18.15625 4.59993,-6.29322 10.813416,-8.76701 33.65625,-13.40625 10.98789,-2.23157 23.27145,-5.15396 27.28125,-6.5 20.02,-6.72049 26.70815,-16.102114 24.1875,-33.875004 -3.10912,-21.922156 -19.16579,-34.529623 -47.90625,-37.65625 -2.39243,-0.260268 -5.32993,-0.402462 -8.5,-0.4375 -9.510214,-0.105114 -21.10129,0.738368 -26.25,2.125 -0.18591,0.05007 -0.28114,0.02986 -0.4375,0.0625 -0.734251,0.12938 -1.373203,0.272876 -2.0625,0.40625 l 0,-13.4375 -8.625,0 z m 8.625,20.21875 c 0.07153,0.01991 0.145497,0.04302 0.21875,0.0625 l 0.78125,0.1875 c 0.0794,0.02956 0.24136,0.03146 0.3125,0.0625 0.0135,0.0059 0.01795,0.0251 0.03125,0.03125 l 1.125,0.34375 c 10.02252,3.003932 17.33127,8.889791 21.40625,17.21875 2.31554,4.732785 2.7432,6.804145 2.6875,13.65625 -0.10233,12.59723 -3.69989,19.197031 -14.625,26.906254 -3.42259,2.41512 -7.45625,5.19097 -8.96875,6.15625 l -2.75,1.75 0,-0.0312 c -0.03716,0.0234 -0.137078,0.10404 -0.21875,0.15625 l 0,-66.500004 z"
       id="path3775"
       style="fill:#000000;fill-opacity:1" />
  </g>
</svg>
