<?xml version="1.0" encoding="UTF-8" standalone="no"?>
<!-- Created with Inkscape (http://www.inkscape.org/) -->

<svg
   xmlns:dc="http://purl.org/dc/elements/1.1/"
   xmlns:cc="http://creativecommons.org/ns#"
   xmlns:rdf="http://www.w3.org/1999/02/22-rdf-syntax-ns#"
   xmlns:svg="http://www.w3.org/2000/svg"
   xmlns="http://www.w3.org/2000/svg"
   version="1.1"
   width="409.84076"
   height="181.36501"
   id="svg2"
   xml:space="preserve"><metadata
     id="metadata8"><rdf:RDF><cc:Work
         rdf:about=""><dc:format>image/svg+xml</dc:format><dc:type
           rdf:resource="http://purl.org/dc/dcmitype/StillImage" /><dc:title></dc:title></cc:Work></rdf:RDF></metadata><defs
     id="defs6"><clipPath
       id="clipPath18"><path
         d="m 0,0 841.89,0 0,595.276 L 0,595.276 0,0 z"
         id="path20" /></clipPath><clipPath
       id="clipPath50"><path
         d="m 0,0 841.89,0 0,595.276 L 0,595.276 0,0 z"
         id="path52" /></clipPath><clipPath
       id="clipPath122"><path
         d="m 0,0 841.89,0 0,595.276 L 0,595.276 0,0 z"
         id="path124" /></clipPath></defs><g
     transform="matrix(1.25,0,0,-1.25,-321.26087,462.72975)"
     id="g10"><g
       id="g14"><g
         clip-path="url(#clipPath18)"
         id="g16"><g
           transform="translate(386.0987,297.6378)"
           id="g22"><path
             d="m 0,0 c 0,-31.228 -25.314,-56.546 -56.547,-56.546 -31.227,0 -56.543,25.318 -56.543,56.546 0,31.229 25.316,56.546 56.543,56.546 C -25.314,56.546 0,31.229 0,0"
             id="path24"
             style="fill:#ffffff;fill-opacity:1;fill-rule:nonzero;stroke:none" /></g><g
           transform="translate(383.1153,297.6378)"
           id="g26"><path
             d="m 0,0 c 0,-29.582 -23.981,-53.563 -53.564,-53.563 -29.58,0 -53.562,23.981 -53.562,53.563 0,29.582 23.982,53.562 53.562,53.562 C -23.981,53.562 0,29.582 0,0"
             id="path28"
             style="fill:#254aa5;fill-opacity:1;fill-rule:nonzero;stroke:none" /></g></g></g><g
       transform="translate(333.3126,278.5118)"
       id="g30"><path
         d="M 0,0 -30.347,-21.691 -19.095,13.873 -49.1,36.029 -11.802,36.319 0,71.703 11.802,36.319 49.1,36.029 19.095,13.873 30.347,-21.691 0,0 z"
         id="path32"
         style="fill:#fff200;fill-opacity:1;fill-rule:nonzero;stroke:none" /></g><g
       transform="translate(287.0147,282.3889)"
       id="g34"><path
         d="M 0,0 -8.498,-6.073 -5.347,3.885 -13.75,10.09 -3.305,10.171 0,20.078 3.306,10.171 13.749,10.09 5.347,3.885 8.498,-6.073 0,0 z"
         id="path36"
         style="fill:#fff200;fill-opacity:1;fill-rule:nonzero;stroke:none" /></g><g
       transform="translate(368.961,274.9415)"
       id="g38"><path
         d="M 0,0 -5.946,-4.251 -3.742,2.72 -9.624,7.062 -2.313,7.119 0,14.053 2.313,7.119 9.623,7.062 3.742,2.72 5.948,-4.251 0,0 z"
         id="path40"
         style="fill:#fff200;fill-opacity:1;fill-rule:nonzero;stroke:none" /></g><g
       transform="translate(354.171,331.6749)"
       id="g42"><path
         d="M 0,0 -4.593,-3.284 -2.89,2.101 -7.433,5.454 -1.786,5.499 0,10.855 1.786,5.499 7.434,5.454 2.891,2.101 4.594,-3.284 0,0 z"
         id="path44"
         style="fill:#fff200;fill-opacity:1;fill-rule:nonzero;stroke:none" /></g><g
       id="g46"><g
         clip-path="url(#clipPath50)"
         id="g48"><g
           transform="translate(329.5225,338.3898)"
           id="g54"><path
             d="m 0,0 c -22.495,0 -40.722,-18.286 -40.722,-40.782 0,-22.494 18.227,-40.781 40.722,-40.781 22.493,0 40.784,18.287 40.784,40.781 C 40.784,-18.288 22.493,0 0,0"
             id="path56"
             style="fill:#ffffff;fill-opacity:1;fill-rule:nonzero;stroke:none" /></g><g
           transform="translate(329.5225,335.3282)"
           id="g58"><path
             d="m 0,0 c -20.804,0 -37.657,-16.912 -37.657,-37.721 0,-20.804 16.853,-37.716 37.657,-37.716 20.804,0 37.721,16.912 37.721,37.716 C 37.721,-16.916 20.804,0 0,0"
             id="path60"
             style="fill:#ffffff;fill-opacity:1;fill-rule:nonzero;stroke:none" /></g><g
           transform="translate(331.3302,318.8029)"
           id="g62"><path
             d="m 0,0 c 13.817,-0.43 21.852,-6.716 21.852,-15.938 0,-8.429 -5.212,-13.041 -22.365,-16.085 -12.775,-2.269 -16.155,-5.35 -16.155,-10.611 0,-3.224 1.077,-5.692 2.962,-7.903 -2.869,1.803 -5.176,5.523 -5.176,9.734 0,2.587 0.765,5.039 2.498,7.115 l 0,30.135 c -0.427,0.028 -0.857,0.04 -1.298,0.04 -0.191,0 -0.378,-0.008 -0.559,-0.018 -0.235,-0.016 -0.306,0.256 -0.061,0.359 0.592,0.249 1.233,0.492 1.918,0.723 l 0,6.334 c 0,0.13 0.102,0.234 0.234,0.234 l 3.434,0 c 0.129,0 0.236,-0.104 0.236,-0.234 l 0,-5.252 C -8.378,-0.425 -3.685,0.115 0,0 m -12.48,-30.574 c 0.465,0.253 0.964,0.492 1.485,0.717 6.213,2.678 9.287,7.384 9.287,13.177 0,5.746 -4.245,10.75 -10.772,12.5 l 0,-26.394 z"
             id="path64"
             style="fill:#121212;fill-opacity:1;fill-rule:nonzero;stroke:none" /></g><g
           transform="translate(329.5225,335.3282)"
           id="g66"><path
             d="m 0,0 c -20.804,0 -37.657,-16.912 -37.657,-37.721 0,-20.802 16.853,-37.716 37.657,-37.716 20.804,0 37.721,16.914 37.721,37.716 C 37.721,-16.916 20.804,0 0,0 m 0.002,-3.617 c 18.849,0 34.102,-15.256 34.102,-34.104 0,-18.845 -15.253,-34.1 -34.102,-34.1 -18.842,0 -34.043,15.255 -34.043,34.1 0,18.848 15.201,34.104 34.043,34.104"
             id="path68"
             style="fill:#00adef;fill-opacity:1;fill-rule:nonzero;stroke:none" /></g><g
           transform="translate(395.2472,280.9357)"
           id="g70"><path
             d="m 0,0 c -0.305,0 -0.493,0.188 -0.493,0.494 l 0,17.672 c 0,0.305 0.188,0.494 0.493,0.494 l 6.869,0 c 3.979,0 5.953,-2.193 5.953,-5.692 l 0,-0.45 c 0,-2.934 -1.974,-5.707 -5.968,-5.707 l -2.788,0 c -0.304,0 -0.494,-0.19 -0.494,-0.495 l 0,-5.822 C 3.572,0.188 3.384,0 3.079,0 L 0,0 z m 6.941,10.499 c 1.148,0 2.034,0.769 2.034,2.004 l 0,0.421 c 0,1.234 -0.886,2.033 -2.034,2.033 l -2.875,0 c -0.304,0 -0.494,-0.189 -0.494,-0.494 l 0,-3.471 c 0,-0.304 0.19,-0.493 0.494,-0.493 l 2.875,0 z"
             id="path72"
             style="fill:#231f20;fill-opacity:1;fill-rule:nonzero;stroke:none" /></g><g
           transform="translate(411.4102,281.4298)"
           id="g74"><path
             d="m 0,0 0,17.817 c 0,0.306 0.189,0.494 0.493,0.494 l 3.079,0 c 0.305,0 0.494,-0.188 0.494,-0.494 L 4.066,0 c 0,-0.306 -0.189,-0.494 -0.494,-0.494 l -3.079,0 C 0.189,-0.494 0,-0.306 0,0"
             id="path76"
             style="fill:#231f20;fill-opacity:1;fill-rule:nonzero;stroke:none" /></g><g
           transform="translate(420.1222,281.4298)"
           id="g78"><path
             d="m 0,0 0,17.672 c 0,0.305 0.189,0.494 0.494,0.494 l 7.493,0 c 3.718,0 5.94,-2.222 5.94,-5.736 0,-2.018 -0.785,-3.529 -2.454,-4.545 -0.145,-0.087 -0.218,-0.174 -0.218,-0.291 0,-0.116 0.028,-0.203 0.073,-0.319 l 2.846,-6.927 c 0.131,-0.305 0.188,-0.494 0.188,-0.611 0,-0.115 -0.116,-0.231 -0.348,-0.231 l -3.514,0 c -0.116,0 -0.218,0.072 -0.291,0.231 L 7.377,6.562 C 7.319,6.708 7.204,6.766 7.072,6.766 l -2.512,0 C 4.256,6.766 4.067,6.578 4.067,6.272 L 4.067,0 c 0,-0.306 -0.189,-0.494 -0.494,-0.494 l -3.079,0 C 0.189,-0.494 0,-0.306 0,0 m 10.064,12.154 0,0.508 c 0,1.031 -0.885,1.801 -2.033,1.801 l -3.471,0 c -0.304,0 -0.493,-0.19 -0.493,-0.494 l 0,-3.137 c 0,-0.305 0.189,-0.494 0.493,-0.494 l 3.471,0 c 1.118,0 2.033,0.785 2.033,1.816"
             id="path80"
             style="fill:#231f20;fill-opacity:1;fill-rule:nonzero;stroke:none" /></g><g
           transform="translate(441.3097,283.8976)"
           id="g82"><path
             d="M 0,0 C -0.233,0 -0.29,-0.029 -0.334,-0.175 L -1.017,-2.744 C -1.06,-2.89 -1.162,-2.962 -1.307,-2.962 l -3.587,0 c -0.217,0 -0.334,0.072 -0.334,0.218 0,0.072 0.029,0.203 0.058,0.276 0.015,0.043 5.316,18.006 5.316,18.006 0.057,0.203 0.246,0.305 0.463,0.305 l 4.401,0 c 0.217,0 0.406,-0.102 0.465,-0.305 l 5.33,-18.123 c 0.028,-0.087 0.028,-0.116 0.028,-0.159 0,-0.146 -0.102,-0.218 -0.319,-0.218 l -3.602,0 c -0.159,0 -0.262,0.072 -0.305,0.218 L 5.925,-0.175 C 5.882,-0.029 5.808,0 5.591,0 L 0,0 z m 4.487,3.704 c 0.262,0 0.349,0.115 0.305,0.304 l -1.67,6.274 -0.073,0.595 -0.508,0 L 2.469,10.282 0.784,4.008 C 0.74,3.819 0.813,3.704 1.074,3.704 l 3.413,0 z"
             id="path84"
             style="fill:#231f20;fill-opacity:1;fill-rule:nonzero;stroke:none" /></g><g
           transform="translate(456.8194,281.4298)"
           id="g86"><path
             d="m 0,0 0,13.969 c 0,0.304 -0.189,0.494 -0.494,0.494 l -3.253,0 c -0.306,0 -0.494,0.189 -0.494,0.493 l 0,2.716 c 0,0.305 0.188,0.494 0.494,0.494 l 11.558,0 c 0.306,0 0.495,-0.189 0.495,-0.494 l 0,-2.716 c 0,-0.304 -0.189,-0.493 -0.495,-0.493 l -3.252,0 c -0.305,0 -0.494,-0.19 -0.494,-0.494 L 4.065,0 c 0,-0.306 -0.188,-0.494 -0.494,-0.494 l -3.078,0 C 0.187,-0.494 0,-0.306 0,0"
             id="path88"
             style="fill:#231f20;fill-opacity:1;fill-rule:nonzero;stroke:none" /></g><g
           transform="translate(469.2491,280.9357)"
           id="g90"><path
             d="m 0,0 c -0.305,0 -0.494,0.188 -0.494,0.494 l 0,17.672 c 0,0.305 0.189,0.494 0.494,0.494 l 11.355,0 c 0.305,0 0.495,-0.189 0.495,-0.494 l 0,-2.716 c 0,-0.304 -0.19,-0.493 -0.495,-0.493 l -7.29,0 c -0.303,0 -0.493,-0.189 -0.493,-0.494 l 0,-2.715 c 0,-0.306 0.19,-0.494 0.493,-0.494 l 5.984,0 c 0.305,0 0.494,-0.189 0.494,-0.494 l 0,-2.716 c 0,-0.304 -0.189,-0.493 -0.494,-0.493 l -5.984,0 C 3.762,7.551 3.572,7.363 3.572,7.057 l 0,-2.86 c 0,-0.306 0.19,-0.494 0.493,-0.494 l 7.29,0 c 0.305,0 0.495,-0.189 0.495,-0.494 l 0,-2.715 C 11.85,0.188 11.66,0 11.355,0 L 0,0 z"
             id="path92"
             style="fill:#231f20;fill-opacity:1;fill-rule:nonzero;stroke:none" /></g><g
           transform="translate(491.0312,280.9357)"
           id="g94"><path
             d="m 0,0 c -0.305,0 -0.493,0.188 -0.493,0.494 l 0,17.672 c 0,0.305 0.188,0.494 0.493,0.494 l 6.868,0 c 3.979,0 5.955,-2.193 5.955,-5.692 l 0,-0.45 c 0,-2.934 -1.976,-5.707 -5.968,-5.707 l -2.789,0 c -0.305,0 -0.494,-0.19 -0.494,-0.495 l 0,-5.822 C 3.572,0.188 3.384,0 3.079,0 L 0,0 z m 6.941,10.499 c 1.148,0 2.034,0.769 2.034,2.004 l 0,0.421 c 0,1.234 -0.886,2.033 -2.034,2.033 l -2.875,0 c -0.305,0 -0.494,-0.189 -0.494,-0.494 l 0,-3.471 c 0,-0.304 0.189,-0.493 0.494,-0.493 l 2.875,0 z"
             id="path96"
             style="fill:#231f20;fill-opacity:1;fill-rule:nonzero;stroke:none" /></g><g
           transform="translate(509.2276,283.8976)"
           id="g98"><path
             d="M 0,0 C -0.233,0 -0.291,-0.029 -0.334,-0.175 L -1.017,-2.744 C -1.061,-2.89 -1.162,-2.962 -1.308,-2.962 l -3.587,0 c -0.216,0 -0.334,0.072 -0.334,0.218 0,0.072 0.03,0.203 0.059,0.276 0.014,0.043 5.315,18.006 5.315,18.006 0.057,0.203 0.247,0.305 0.464,0.305 l 4.401,0 c 0.218,0 0.406,-0.102 0.465,-0.305 l 5.328,-18.123 c 0.029,-0.087 0.029,-0.116 0.029,-0.159 0,-0.146 -0.102,-0.218 -0.318,-0.218 l -3.602,0 c -0.16,0 -0.262,0.072 -0.305,0.218 L 5.924,-0.175 C 5.881,-0.029 5.809,0 5.59,0 L 0,0 z m 4.486,3.704 c 0.262,0 0.349,0.115 0.306,0.304 l -1.67,6.274 -0.073,0.595 -0.509,0 L 2.468,10.282 0.783,4.008 C 0.74,3.819 0.812,3.704 1.074,3.704 l 3.412,0 z"
             id="path100"
             style="fill:#231f20;fill-opacity:1;fill-rule:nonzero;stroke:none" /></g><g
           transform="translate(522.9649,281.4298)"
           id="g102"><path
             d="m 0,0 0,17.672 c 0,0.305 0.188,0.494 0.493,0.494 l 7.492,0 c 3.719,0 5.941,-2.222 5.941,-5.736 0,-2.018 -0.784,-3.529 -2.454,-4.545 -0.146,-0.087 -0.218,-0.174 -0.218,-0.291 0,-0.116 0.029,-0.203 0.072,-0.319 l 2.847,-6.927 c 0.131,-0.305 0.188,-0.494 0.188,-0.611 0,-0.115 -0.116,-0.231 -0.348,-0.231 l -3.515,0 c -0.116,0 -0.218,0.072 -0.29,0.231 L 7.377,6.562 C 7.318,6.708 7.202,6.766 7.071,6.766 l -2.511,0 C 4.254,6.766 4.065,6.578 4.065,6.272 L 4.065,0 c 0,-0.306 -0.188,-0.494 -0.494,-0.494 l -3.078,0 C 0.188,-0.494 0,-0.306 0,0 m 10.063,12.154 0,0.508 c 0,1.031 -0.886,1.801 -2.033,1.801 l -3.47,0 c -0.306,0 -0.495,-0.19 -0.495,-0.494 l 0,-3.137 c 0,-0.305 0.189,-0.494 0.495,-0.494 l 3.47,0 c 1.117,0 2.033,0.785 2.033,1.816"
             id="path104"
             style="fill:#231f20;fill-opacity:1;fill-rule:nonzero;stroke:none" /></g><g
           transform="translate(543.8896,281.4298)"
           id="g106"><path
             d="m 0,0 0,13.969 c 0,0.304 -0.189,0.494 -0.494,0.494 l -3.253,0 c -0.305,0 -0.493,0.189 -0.493,0.493 l 0,2.716 c 0,0.305 0.188,0.494 0.493,0.494 l 11.559,0 c 0.305,0 0.494,-0.189 0.494,-0.494 l 0,-2.716 c 0,-0.304 -0.189,-0.493 -0.494,-0.493 l -3.251,0 c -0.306,0 -0.495,-0.19 -0.495,-0.494 L 4.066,0 c 0,-0.306 -0.189,-0.494 -0.494,-0.494 l -3.079,0 C 0.189,-0.494 0,-0.306 0,0"
             id="path108"
             style="fill:#231f20;fill-opacity:1;fill-rule:nonzero;stroke:none" /></g><g
           transform="translate(559.2823,281.4298)"
           id="g110"><path
             d="m 0,0 0,7.348 -5.445,10.499 c -0.044,0.087 -0.044,0.159 -0.044,0.231 0,0.16 0.073,0.233 0.305,0.233 l 3.413,0 c 0.16,0 0.32,-0.073 0.435,-0.262 l 2.105,-4.066 c 0.611,-1.278 1.176,-2.7 1.176,-3.223 l 0.147,0 c 0,0.508 0.435,1.931 1.074,3.223 l 2.033,4.066 c 0.072,0.189 0.262,0.262 0.406,0.262 l 3.66,0 c 0.189,0 0.334,-0.073 0.334,-0.233 0,-0.072 -0.029,-0.144 -0.073,-0.231 L 4.066,7.348 4.066,0 c 0,-0.306 -0.189,-0.494 -0.494,-0.494 l -3.078,0 C 0.19,-0.494 0,-0.306 0,0"
             id="path112"
             style="fill:#231f20;fill-opacity:1;fill-rule:nonzero;stroke:none" /></g></g></g><g
       transform="translate(396.3097,321.9025)"
       id="g114"><path
         d="m 0,0 8.302,0 -0.241,-1.479 -6.581,0 -0.76,-4.862 6.341,0 -0.24,-1.501 -6.341,0 -0.8,-5.261 6.761,0 -0.24,-1.48 -8.462,0 L 0,0 z"
         id="path116"
         style="fill:#52a5e0;fill-opacity:1;fill-rule:nonzero;stroke:none" /></g><g
       id="g118"><g
         clip-path="url(#clipPath122)"
         id="g120"><g
           transform="translate(411.9708,307.3195)"
           id="g126"><path
             d="M 0,0 0.12,1.18 C -0.5,0.359 -1.9,-0.28 -3.241,-0.28 c -2.12,0 -3.521,1.36 -3.101,4.1 l 1.101,7.122 1.6,0 -1.04,-6.821 c -0.301,-2.02 0.46,-2.881 1.861,-2.881 1.259,0 2.46,0.76 3.16,1.7 l 1.24,8.002 1.62,0 L 1.5,0 0,0 z"
             id="path128"
             style="fill:#52a5e0;fill-opacity:1;fill-rule:nonzero;stroke:none" /></g><g
           transform="translate(423.1905,316.5421)"
           id="g130"><path
             d="m 0,0 c -0.181,0.059 -0.4,0.079 -0.601,0.079 -1.36,0 -2.38,-0.42 -3.22,-1.66 l -1.16,-7.642 -1.601,0 1.681,10.943 1.28,0 0.019,-1.441 C -2.681,1.399 -1.28,2 -0.16,2 0,2 0.38,1.96 0.5,1.939 L 0,0 z"
             id="path132"
             style="fill:#52a5e0;fill-opacity:1;fill-rule:nonzero;stroke:none" /></g><g
           transform="translate(432.9513,314.1202)"
           id="g134"><path
             d="m 0,0 c 0,-4.521 -2.4,-7.081 -5.741,-7.081 -2.242,0 -3.782,1.56 -3.782,4.421 0,4.521 2.401,7.082 5.762,7.082 C -1.541,4.422 0,2.861 0,0 m -7.762,-2.439 c 0,-2.141 0.92,-3.121 2.46,-3.121 1.961,0 3.541,1.679 3.541,5.341 0,2.14 -0.9,3.12 -2.44,3.12 -1.981,0 -3.561,-1.68 -3.561,-5.34"
             id="path136"
             style="fill:#52a5e0;fill-opacity:1;fill-rule:nonzero;stroke:none" /></g><g
           transform="translate(433.9093,303.1593)"
           id="g138"><path
             d="m 0,0 2.34,15.103 1.28,0 0.04,-1.341 c 0.681,1 2.221,1.621 3.221,1.621 2.361,0 3.441,-1.641 3.441,-4.141 C 10.322,7.101 8.241,3.88 4.4,3.88 3.681,3.88 2.96,4.02 2.28,4.28 L 1.62,0 0,0 z m 4.841,5.4 c 2.421,0 3.701,2.361 3.701,5.402 0,2.04 -0.78,3.06 -2.161,3.06 -1.22,0 -2.42,-1.16 -2.96,-2.2 L 2.54,6.021 C 3.24,5.601 4.02,5.4 4.841,5.4"
             id="path140"
             style="fill:#52a5e0;fill-opacity:1;fill-rule:nonzero;stroke:none" /></g><g
           transform="translate(449.71,307.0392)"
           id="g142"><path
             d="m 0,0 c -2.6,0 -3.641,1.841 -3.641,4.44 0,4.403 2.541,7.063 5.601,7.063 2.021,0 3.281,-1.24 3.281,-2.881 0,-2.881 -2.6,-3.461 -5.161,-3.461 -0.98,0 -1.921,0.16 -1.921,0.16 -0.24,-2.36 0.38,-3.8 2.261,-3.8 1.16,0 2.221,0.3 3.261,0.759 L 4.061,1.04 C 3.021,0.48 1.54,0 0,0 m 0.56,6.562 c 1.64,0 3.001,0.459 3.001,1.72 0,1.12 -0.861,1.68 -2.04,1.68 -1.601,0 -2.601,-1.3 -3.101,-3.24 0,0 1.22,-0.16 2.14,-0.16"
             id="path144"
             style="fill:#52a5e0;fill-opacity:1;fill-rule:nonzero;stroke:none" /></g><g
           transform="translate(463.5499,309.5206)"
           id="g146"><path
             d="m 0,0 c -0.86,-1.441 -2.12,-2.481 -3.78,-2.481 -2.381,0 -3.322,1.9 -3.322,4.241 0,3.881 1.881,7.261 5.381,7.261 1.081,0 2.341,-0.38 2.881,-1.26 l 0.321,0.98 1.259,0 -1.12,-6.021 -0.2,-4.921 -1.36,0 L 0,0 z m 0,2.76 0.7,3.18 c -0.48,1.061 -1.721,1.561 -2.881,1.561 -2.08,0 -3.12,-2.681 -3.12,-5.302 0,-1.539 0.48,-3.16 1.941,-3.16 1.28,0 2.78,1.78 3.36,3.721"
             id="path148"
             style="fill:#52a5e0;fill-opacity:1;fill-rule:nonzero;stroke:none" /></g><g
           transform="translate(474.6095,307.3195)"
           id="g150"><path
             d="m 0,0 1.001,6.481 c 0.279,1.761 0.04,3.201 -1.801,3.201 -1.34,0 -2.62,-1.02 -3.221,-2.18 L -5.181,0 l -1.6,0 1.68,10.942 1.281,0 0.019,-1.34 c 0.721,0.861 1.981,1.621 3.461,1.621 2.701,0 3.421,-1.801 3.001,-4.442 L 1.621,0 0,0 z"
             id="path152"
             style="fill:#52a5e0;fill-opacity:1;fill-rule:nonzero;stroke:none" /></g></g></g></g></svg>