<?xml version="1.0" encoding="UTF-8" standalone="no"?>
<!-- Created with Inkscape (http://www.inkscape.org/) -->
<svg
   xmlns:dc="http://purl.org/dc/elements/1.1/"
   xmlns:cc="http://web.resource.org/cc/"
   xmlns:rdf="http://www.w3.org/1999/02/22-rdf-syntax-ns#"
   xmlns:svg="http://www.w3.org/2000/svg"
   xmlns="http://www.w3.org/2000/svg"
   xmlns:xlink="http://www.w3.org/1999/xlink"
   xmlns:sodipodi="http://sodipodi.sourceforge.net/DTD/sodipodi-0.dtd"
   xmlns:inkscape="http://www.inkscape.org/namespaces/inkscape"
   width="393.67969"
   height="78.999985"
   id="svg2"
   sodipodi:version="0.32"
   inkscape:version="0.45.1"
   version="1.0"
   inkscape:export-filename="/media/Maxtor500gb/pp2/img/title.png"
   inkscape:export-xdpi="90"
   inkscape:export-ydpi="90"
   sodipodi:docbase="/media/Maxtor500gb/pp2/work"
   sodipodi:docname="logo_dark_plain.svg"
   inkscape:output_extension="org.inkscape.output.svg.inkscape">
  <defs
     id="defs4">
    <linearGradient
       id="linearGradient2211">
      <stop
         style="stop-color:#ffffff;stop-opacity:1;"
         offset="0"
         id="stop2213" />
      <stop
         style="stop-color:#ffffff;stop-opacity:0;"
         offset="1"
         id="stop2215" />
    </linearGradient>
    <linearGradient
       id="linearGradient2185">
      <stop
         style="stop-color:#000000;stop-opacity:1;"
         offset="0"
         id="stop2187" />
      <stop
         style="stop-color:#3f3f3f;stop-opacity:1;"
         offset="1"
         id="stop2189" />
    </linearGradient>
    <linearGradient
       inkscape:collect="always"
       xlink:href="#linearGradient2185"
       id="linearGradient2191"
       x1="300"
       y1="6.0456109"
       x2="12.121833"
       y2="293.93909"
       gradientUnits="userSpaceOnUse" />
  </defs>
  <sodipodi:namedview
     id="base"
     pagecolor="#000000"
     bordercolor="#666666"
     borderopacity="1.0"
     gridtolerance="10000"
     guidetolerance="10"
     objecttolerance="10"
     inkscape:pageopacity="0"
     inkscape:pageshadow="2"
     inkscape:zoom="1.4142136"
     inkscape:cx="211.2564"
     inkscape:cy="11.404347"
     inkscape:document-units="px"
     inkscape:current-layer="layer2"
     height="80px"
     width="500px"
     inkscape:showpageshadow="false"
     inkscape:window-width="1280"
     inkscape:window-height="925"
     inkscape:window-x="0"
     inkscape:window-y="25" />
  <metadata
     id="metadata7">
    <rdf:RDF>
      <cc:Work
         rdf:about="">
        <dc:format>image/svg+xml</dc:format>
        <dc:type
           rdf:resource="http://purl.org/dc/dcmitype/StillImage" />
        <cc:license
           rdf:resource="http://web.resource.org/cc/PublicDomain" />
      </cc:Work>
      <cc:License
         rdf:about="http://web.resource.org/cc/PublicDomain">
        <cc:permits
           rdf:resource="http://web.resource.org/cc/Reproduction" />
        <cc:permits
           rdf:resource="http://web.resource.org/cc/Distribution" />
        <cc:permits
           rdf:resource="http://web.resource.org/cc/DerivativeWorks" />
      </cc:License>
    </rdf:RDF>
  </metadata>
  <g
     inkscape:groupmode="layer"
     id="layer2"
     inkscape:label="bg"
     transform="translate(-2,-0.5000058)">
    <path
       style="font-size:48px;font-style:normal;font-weight:normal;fill:#ffffff;fill-opacity:1;stroke:none;stroke-width:1px;stroke-linecap:butt;stroke-linejoin:miter;stroke-opacity:1;font-family:Impact"
       d="M 88.320312,21.027344 L 98.257812,21.027344 C 100.9453,21.027382 103.0078,21.238319 104.44531,21.660156 C 105.89842,22.082068 106.98435,22.691443 107.70312,23.488281 C 108.43748,24.285191 108.92966,25.25394 109.17969,26.394531 C 109.44529,27.519563 109.5781,29.269561 109.57812,31.644531 L 109.57812,34.949219 C 109.5781,37.371115 109.3281,39.136739 108.82812,40.246094 C 108.3281,41.355486 107.40623,42.207048 106.0625,42.800781 C 104.73436,43.394547 102.99217,43.691422 100.83594,43.691406 L 98.1875,43.691406 L 98.1875,58.972656 L 88.320312,58.972656 L 88.320312,21.027344 M 98.1875,27.519531 L 98.1875,37.175781 C 98.468738,37.191428 98.710925,37.199241 98.914062,37.199219 C 99.820299,37.199241 100.4453,36.980491 100.78906,36.542969 C 101.14842,36.089867 101.32811,35.16018 101.32812,33.753906 L 101.32812,30.636719 C 101.32811,29.339873 101.12499,28.496124 100.71875,28.105469 C 100.31249,27.714875 99.468737,27.519563 98.1875,27.519531 M 122.28125,21.027344 L 122.28125,58.972656 L 112.41406,58.972656 L 112.41406,21.027344 L 122.28125,21.027344 M 126.19531,21.027344 L 133.17969,21.027344 C 137.83592,21.027382 140.98436,21.207069 142.625,21.566406 C 144.28123,21.925818 145.62498,22.847692 146.65625,24.332031 C 147.7031,25.800814 148.22654,28.152375 148.22656,31.386719 C 148.22654,34.339868 147.85935,36.324241 147.125,37.339844 C 146.3906,38.355489 144.94529,38.964864 142.78906,39.167969 C 144.74217,39.652363 146.05467,40.3008 146.72656,41.113281 C 147.39841,41.925798 147.81248,42.675798 147.96875,43.363281 C 148.1406,44.035171 148.22654,45.902357 148.22656,48.964844 L 148.22656,58.972656 L 139.0625,58.972656 L 139.0625,46.363281 C 139.06249,44.332046 138.89842,43.074235 138.57031,42.589844 C 138.2578,42.105486 137.42186,41.863298 136.0625,41.863281 L 136.0625,58.972656 L 126.19531,58.972656 L 126.19531,21.027344 M 136.0625,27.519531 L 136.0625,35.957031 C 137.17186,35.957054 137.9453,35.808617 138.38281,35.511719 C 138.83592,35.199243 139.06249,34.207056 139.0625,32.535156 L 139.0625,30.449219 C 139.06249,29.246123 138.84374,28.457062 138.40625,28.082031 C 137.98436,27.707063 137.20311,27.519563 136.0625,27.519531 M 169.10938,21.027344 L 174.75781,58.972656 L 164.65625,58.972656 L 164.16406,52.152344 L 160.625,52.152344 L 160.03906,58.972656 L 149.82031,58.972656 L 154.83594,21.027344 L 169.10938,21.027344 M 163.88281,45.425781 C 163.3828,41.128924 162.8828,35.824242 162.38281,29.511719 C 161.3828,36.761741 160.7578,42.066423 160.50781,45.425781 L 163.88281,45.425781 M 194.70312,21.027344 L 200.35156,58.972656 L 190.25,58.972656 L 189.75781,52.152344 L 186.21875,52.152344 L 185.63281,58.972656 L 175.41406,58.972656 L 180.42969,21.027344 L 194.70312,21.027344 M 189.47656,45.425781 C 188.97655,41.128924 188.47655,35.824242 187.97656,29.511719 C 186.97655,36.761741 186.35155,42.066423 186.10156,45.425781 L 189.47656,45.425781 M 219.28906,21.027344 L 219.28906,28.621094 L 213.42969,28.621094 L 213.42969,58.972656 L 203.5625,58.972656 L 203.5625,28.621094 L 197.72656,28.621094 L 197.72656,21.027344 L 219.28906,21.027344 M 241.41406,21.027344 L 241.41406,28.621094 L 235.55469,28.621094 L 235.55469,58.972656 L 225.6875,58.972656 L 225.6875,28.621094 L 219.85156,28.621094 L 219.85156,21.027344 L 241.41406,21.027344 M 253.53125,21.027344 L 253.53125,58.972656 L 243.66406,58.972656 L 243.66406,21.027344 L 253.53125,21.027344 M 257.44531,21.027344 L 267.38281,21.027344 C 270.0703,21.027382 272.1328,21.238319 273.57031,21.660156 C 275.02342,22.082068 276.10935,22.691443 276.82812,23.488281 C 277.56248,24.285191 278.05466,25.25394 278.30469,26.394531 C 278.57029,27.519563 278.7031,29.269561 278.70312,31.644531 L 278.70312,34.949219 C 278.7031,37.371115 278.4531,39.136739 277.95312,40.246094 C 277.4531,41.355486 276.53123,42.207048 275.1875,42.800781 C 273.85936,43.394547 272.11717,43.691422 269.96094,43.691406 L 267.3125,43.691406 L 267.3125,58.972656 L 257.44531,58.972656 L 257.44531,21.027344 M 267.3125,27.519531 L 267.3125,37.175781 C 267.59374,37.191428 267.83593,37.199241 268.03906,37.199219 C 268.9453,37.199241 269.5703,36.980491 269.91406,36.542969 C 270.27342,36.089867 270.45311,35.16018 270.45312,33.753906 L 270.45312,30.636719 C 270.45311,29.339873 270.24999,28.496124 269.84375,28.105469 C 269.43749,27.714875 268.59374,27.519563 267.3125,27.519531 M 303.96875,21.027344 L 303.96875,46.386719 C 303.96873,49.261728 303.87498,51.285164 303.6875,52.457031 C 303.49998,53.613287 302.94529,54.808598 302.02344,56.042969 C 301.10154,57.26172 299.88279,58.191407 298.36719,58.832031 C 296.86717,59.457031 295.09373,59.76953 293.04688,59.769531 C 290.78124,59.76953 288.78124,59.394531 287.04688,58.644531 C 285.31249,57.894532 284.01562,56.917971 283.15625,55.714844 C 282.29687,54.511723 281.78906,53.246099 281.63281,51.917969 C 281.47656,50.574227 281.39844,47.76173 281.39844,43.480469 L 281.39844,21.027344 L 291.26562,21.027344 L 291.26562,49.480469 C 291.26561,51.136727 291.35155,52.199226 291.52344,52.667969 C 291.71093,53.1211 292.07811,53.347662 292.625,53.347656 C 293.24999,53.347662 293.64842,53.097662 293.82031,52.597656 C 294.0078,52.082038 294.10155,50.878914 294.10156,48.988281 L 294.10156,21.027344 L 303.96875,21.027344 M 330.33594,43.246094 C 330.33591,47.058606 330.24216,49.761728 330.05469,51.355469 C 329.88279,52.9336 329.32029,54.378911 328.36719,55.691406 C 327.42967,57.003908 326.15623,58.01172 324.54688,58.714844 C 322.93748,59.417968 321.06248,59.76953 318.92188,59.769531 C 316.89061,59.76953 315.06249,59.441406 313.4375,58.785156 C 311.82812,58.113282 310.53125,57.113283 309.54688,55.785156 C 308.5625,54.457036 307.97656,53.011725 307.78906,51.449219 C 307.60156,49.886728 307.50781,47.152356 307.50781,43.246094 L 307.50781,36.753906 C 307.50781,32.941432 307.59375,30.246122 307.76562,28.667969 C 307.95312,27.074251 308.51562,25.621127 309.45312,24.308594 C 310.40625,22.99613 311.68749,21.988318 313.29688,21.285156 C 314.90624,20.58207 316.78124,20.230507 318.92188,20.230469 C 320.95311,20.230507 322.77342,20.566445 324.38281,21.238281 C 326.00779,21.894568 327.31248,22.886755 328.29688,24.214844 C 329.28123,25.543002 329.86716,26.988313 330.05469,28.550781 C 330.24216,30.11331 330.33591,32.847682 330.33594,36.753906 L 330.33594,43.246094 M 320.46875,30.777344 C 320.46874,29.011749 320.36717,27.88675 320.16406,27.402344 C 319.97655,26.902376 319.57811,26.652376 318.96875,26.652344 C 318.45311,26.652376 318.05468,26.855501 317.77344,27.261719 C 317.5078,27.652375 317.37499,28.824249 317.375,30.777344 L 317.375,48.496094 C 317.37499,50.699227 317.46093,52.058601 317.63281,52.574219 C 317.8203,53.08985 318.24218,53.347662 318.89844,53.347656 C 319.5703,53.347662 319.99999,53.050787 320.1875,52.457031 C 320.37499,51.863288 320.46874,50.449227 320.46875,48.214844 L 320.46875,30.777344 M 343.90625,21.027344 L 343.90625,51.378906 L 349.90625,51.378906 L 349.90625,58.972656 L 334.03906,58.972656 L 334.03906,21.027344 L 343.90625,21.027344 M 374.75,21.027344 L 374.75,46.386719 C 374.74998,49.261728 374.65623,51.285164 374.46875,52.457031 C 374.28123,53.613287 373.72654,54.808598 372.80469,56.042969 C 371.88279,57.26172 370.66404,58.191407 369.14844,58.832031 C 367.64842,59.457031 365.87498,59.76953 363.82812,59.769531 C 361.56249,59.76953 359.56249,59.394531 357.82812,58.644531 C 356.09374,57.894532 354.79687,56.917971 353.9375,55.714844 C 353.07812,54.511723 352.57031,53.246099 352.41406,51.917969 C 352.25781,50.574227 352.17969,47.76173 352.17969,43.480469 L 352.17969,21.027344 L 362.04688,21.027344 L 362.04688,49.480469 C 362.04686,51.136727 362.1328,52.199226 362.30469,52.667969 C 362.49218,53.1211 362.85936,53.347662 363.40625,53.347656 C 364.03124,53.347662 364.42967,53.097662 364.60156,52.597656 C 364.78905,52.082038 364.8828,50.878914 364.88281,48.988281 L 364.88281,21.027344 L 374.75,21.027344 M 378.57031,21.027344 L 395.02344,21.027344 L 395.02344,28.621094 L 388.4375,28.621094 L 388.4375,35.816406 L 394.60156,35.816406 L 394.60156,43.035156 L 388.4375,43.035156 L 388.4375,51.378906 L 395.67969,51.378906 L 395.67969,58.972656 L 378.57031,58.972656 L 378.57031,21.027344"
       id="text2491" />
  </g>
  <g
     inkscape:label="Layer 1"
     inkscape:groupmode="layer"
     id="layer1"
     transform="translate(-2,-0.5000058)">
    <g
       id="g2234"
       transform="matrix(0.2633333,0,0,0.2633333,2,0.5000055)">
      <path
         transform="matrix(2.1473168,0,0,2.3742691,-1285.9559,-174.46502)"
         d="M 737.41138 136.65891 A 68.690376 62.124382 0 1 1  600.03063,136.65891 A 68.690376 62.124382 0 1 1  737.41138 136.65891 z"
         sodipodi:ry="62.124382"
         sodipodi:rx="68.690376"
         sodipodi:cy="136.65891"
         sodipodi:cx="668.72101"
         id="path2191"
         style="fill:#ffffff;fill-opacity:1;fill-rule:evenodd;stroke:none;stroke-width:1px;stroke-linecap:butt;stroke-linejoin:miter;stroke-opacity:1"
         sodipodi:type="arc" />
      <path
         id="path2188"
         d="M 136.13567,299.56661 C 99.033464,295.2706 69.592344,281.37293 44.197514,256.16722 C 16.465264,228.6415 1.2384336,193.46202 0.073433646,154.22459 C -1.1975064,111.419 14.040844,73.608414 44.862074,43.091504 C 72.085774,16.136604 107.03797,1.256463 145.90156,0.076121036 C 188.60155,-1.220731 226.61112,14.067744 257.16605,44.829654 C 278.34013,66.147204 291.75945,91.748434 298.05702,122.84103 C 299.76244,131.2611 300.02793,135.0319 299.99783,150.40767 C 299.96622,166.56016 299.74418,169.24747 297.61499,179.24663 C 291.00509,210.28822 277.59465,234.99063 255.48172,256.85734 C 227.13542,284.888 188.61366,300.48101 148.92778,299.98868 C 143.29331,299.91878 137.53687,299.72885 136.13567,299.56661 z M 164.60639,284.8213 C 212.13647,279.04191 251.05113,251.72929 272.05752,209.40575 C 299.98629,153.13504 284.59988,83.697014 235.54709,44.636104 C 216.98136,29.852144 198.65084,21.337284 175.19921,16.603384 C 163.11556,14.164214 138.95226,14.011664 126.36979,16.295134 C 116.69641,18.050644 100.81942,23.209974 91.121014,27.749424 C 61.918864,41.417854 36.547054,68.440444 24.383724,98.828854 C 17.146564,116.90994 14.676324,130.0476 14.765224,149.98357 C 14.844604,167.78334 16.332794,177.58907 21.132164,191.93573 C 27.324514,210.44643 35.285014,224.47253 47.959184,239.20389 C 75.986744,271.78073 122.44237,289.94821 164.60639,284.8213 z M 93.860864,254.12101 C 88.893514,240.0613 87.306594,231.51871 87.306404,218.83769 C 87.306284,210.84229 87.661984,208.17442 89.429274,202.91599 L 91.552294,196.5991 L 91.552294,133.31418 L 91.552294,70.029264 L 85.154364,70.439374 C 77.121234,70.954304 77.196544,69.887304 85.436964,66.435434 L 91.511554,63.890814 L 91.531914,51.803914 L 91.552294,39.716994 L 97.848274,39.716994 L 104.14424,39.716994 L 104.42963,49.402974 C 104.58658,54.730254 104.98537,59.357944 105.31582,59.686744 C 105.64627,60.015534 110.23199,59.612654 115.5063,58.791444 C 127.85329,56.869044 158.83016,56.129714 170.45789,57.479914 C 219.36589,63.159054 246.94584,89.489874 247.08021,130.63186 C 247.11603,141.60471 245.77607,146.70533 240.91653,154.09408 C 234.53948,163.79016 222.27285,171.51667 203.81081,177.46624 C 198.52931,179.16825 181.90607,183.04011 166.87029,186.07036 C 134.4657,192.60106 127.97358,194.24304 119.72785,197.9935 C 108.14914,203.25992 99.006254,214.67797 95.685704,228.01839 C 94.339174,233.42813 94.326664,250.26284 95.664934,255.98614 C 97.009514,261.73649 96.287824,260.99038 93.860864,254.12101 z M 115.92883,175.51801 C 126.50487,168.44643 136.25252,160.33247 139.71337,155.71972 C 145.79957,147.60776 148.57162,137.95876 148.67166,124.53744 C 148.74541,114.64492 147.35335,107.94728 143.59558,100.11475 C 140.72257,94.126384 130.33938,83.469154 123.82217,79.819454 C 118.11972,76.626034 106.17157,72.331904 105.32872,73.172974 C 104.31744,74.182114 104.03177,182.21534 105.04039,182.21534 C 105.52003,182.21534 110.41982,179.20154 115.92883,175.51801 z "
         style="fill:url(#linearGradient2191);fill-opacity:1" />
    </g>
  </g>
</svg>
