<?xml version="1.0" encoding="UTF-8"?>
<!-- Generator: Adobe Illustrator 13.0.0, SVG Export Plug-In . SVG Version: 6.00 Build 14948)  -->
<!DOCTYPE svg PUBLIC "-//W3C//DTD SVG 1.1//EN" "http://www.w3.org/Graphics/SVG/1.1/DTD/svg11.dtd">
<svg version="1.1" id="Calque_1" xmlns="http://www.w3.org/2000/svg" xmlns:xlink="http://www.w3.org/1999/xlink" x="0px" y="0px" width="409.834px" height="156.793px" viewBox="0 0 409.834 156.793" enable-background="new 0 0 409.834 156.793" xml:space="preserve">
<polygon fill="#9A1B7E" points="45.326,76.672 331.436,76.672 331.436,0 71.319,0 "/>
<polygon fill="#97BE0D" points="0,156.793 331.436,156.793 331.436,80.121 25.993,80.121 "/>
<g>
	<path fill="#FFFFFF" d="M331.438,0C288.14,0,253.04,35.102,253.04,78.396c0,43.299,35.1,78.395,78.398,78.395   c43.295,0,78.396-35.096,78.396-78.395C409.834,35.102,374.732,0,331.438,0z"/>
	<g>
		<g>
			<g>
				<path d="M331.436,0C288.14,0,253.04,35.102,253.04,78.396c0,43.299,35.1,78.396,78.396,78.396      c43.297,0,78.396-35.099,78.396-78.396C409.832,35.102,374.732,0,331.436,0z M331.436,149.158      c-39.079,0-70.762-31.682-70.762-70.762c0-39.08,31.683-70.762,70.762-70.762c39.08,0,70.761,31.682,70.761,70.762      C402.196,117.477,370.516,149.158,331.436,149.158z"/>
			</g>
		</g>
		<path d="M307.816,31.777V20.801h-6.857v12.696c-4.67,1.423-7.358,2.9-6.922,3.849c1.535-0.447,3.989-0.646,6.922-0.457v65.996    c-7.11,13.739,3.068,34.787,3.068,34.787s-7.574-22.488,9.293-33.129c15.518-9.787,69.018-5.189,68.834-35.383    C381.893,26.39,332.562,26.648,307.816,31.777z M329.9,73.264c-2.402,11.376-14.835,17.32-22.084,22.236V37.94    C320.193,40.917,334.729,50.406,329.9,73.264z"/>
	</g>
</g>
<g>
	<path fill="#FFFFFF" d="M124.455,13.473c3.854,0,6.927,1.217,9.219,3.646c2.122,2.319,3.185,5.279,3.185,8.884v7.626   c0,3.465-1.209,6.426-3.625,8.883c-2.417,2.459-5.343,3.688-8.779,3.688h-4.568v19.779h-7.919V13.473H124.455z M129.189,26.129   c0-1.369-0.412-2.473-1.236-3.312c-0.824-0.838-1.92-1.256-3.289-1.256h-4.777v16.803h4.777c1.256,0,2.326-0.446,3.206-1.341   s1.319-1.969,1.319-3.227V26.129z"/>
	<path fill="#FFFFFF" d="M148.215,53.91l-1.924,12.068h-8.246l8.924-52.506h10.896l8.799,52.506h-8.329l-1.853-12.068H148.215z    M152.376,25.5l-2.934,20.699h5.865L152.376,25.5z"/>
	<path fill="#FFFFFF" d="M184.139,13.473c4.414,0,7.653,1.217,9.721,3.646c1.815,2.123,2.724,5.085,2.724,8.884v7.626   c0,3.715-1.412,6.859-4.231,9.429l5.864,22.921h-8.566L184.849,46.2c-0.224,0-0.461,0-0.71,0h-4.567v19.779h-7.919V13.473H184.139z    M188.873,26.129c0-3.045-1.508-4.567-4.526-4.567h-4.775v16.803h4.775c1.258,0,2.327-0.446,3.208-1.341   c0.881-0.895,1.319-1.969,1.319-3.227L188.873,26.129L188.873,26.129z"/>
	<path fill="#FFFFFF" d="M209.604,21.436h-8.421v-7.963h24.724v7.963h-8.381v44.543h-7.922V21.436z"/>
	<path fill="#FFFFFF" d="M239.812,65.979h-7.918V13.473h7.918V65.979z"/>
	<path fill="#FFFFFF" d="M94.571,90.542c3.857,0,6.93,1.216,9.219,3.646c2.122,2.319,3.185,5.281,3.185,8.883v7.627   c0,3.465-1.207,6.427-3.624,8.884c-2.417,2.46-5.342,3.688-8.78,3.688h-4.568v19.778h-7.919V90.542H94.571z M99.308,103.197   c0-1.369-0.413-2.473-1.239-3.311c-0.822-0.839-1.92-1.258-3.288-1.258h-4.779v16.803h4.779c1.255,0,2.324-0.447,3.205-1.341   c0.88-0.896,1.322-1.969,1.322-3.228V103.197z"/>
	<path fill="#FFFFFF" d="M119.887,143.047h-7.919V90.542h7.919V143.047z"/>
	<path fill="#FFFFFF" d="M139.699,90.542c4.414,0,7.653,1.216,9.721,3.646c1.815,2.123,2.724,5.086,2.724,8.883v7.627   c0,3.717-1.412,6.859-4.231,9.429l5.864,22.922h-8.566l-4.801-19.778c-0.224,0-0.461,0-0.71,0h-4.568v19.778h-7.919V90.542H139.699   z M144.432,103.197c0-3.045-1.507-4.567-4.525-4.567h-4.776v16.802h4.776c1.258,0,2.327-0.445,3.207-1.34   c0.88-0.895,1.318-1.969,1.318-3.227V103.197z"/>
	<path fill="#FFFFFF" d="M168.93,130.979l-1.924,12.068h-8.246l8.924-52.505h10.896l8.799,52.505h-8.329l-1.854-12.068H168.93z    M173.091,102.568l-2.936,20.699h5.867L173.091,102.568z"/>
	<path fill="#FFFFFF" d="M195.982,98.503h-8.422v-7.961h24.721v7.961h-8.38v44.544h-7.919V98.503z"/>
	<path fill="#FFFFFF" d="M217.269,143.047V90.5h22.545v7.961h-14.625v14.332h10.688v7.962h-10.688v14.33h14.625v7.962H217.269z"/>
</g>
</svg>