<?xml version="1.0" encoding="UTF-8" standalone="no"?>
<!-- Created with Inkscape (http://www.inkscape.org/) -->

<svg
   xmlns:dc="http://purl.org/dc/elements/1.1/"
   xmlns:cc="http://creativecommons.org/ns#"
   xmlns:rdf="http://www.w3.org/1999/02/22-rdf-syntax-ns#"
   xmlns:svg="http://www.w3.org/2000/svg"
   xmlns="http://www.w3.org/2000/svg"
   version="1.0"
   width="780"
   height="635"
   id="svg2">
  <defs
     id="defs4" />
  <metadata
     id="metadata7">
    <rdf:RDF>
      <cc:Work
         rdf:about="">
        <dc:format>image/svg+xml</dc:format>
        <dc:type
           rdf:resource="http://purl.org/dc/dcmitype/StillImage" />
        <dc:title></dc:title>
      </cc:Work>
    </rdf:RDF>
  </metadata>
  <g
     transform="translate(-135.78078,-208.63558)"
     id="layer1">
    <path
       d="m 326.15921,216.42907 c -27.39058,10.66344 -58.3673,20.79896 -74.88637,49.62406 -2.07436,2.78452 -3.50382,5.98584 -4.9645,9.0229 -7.14652,6.92064 -13.6923,13.88242 -19.39691,21.20298 3.95278,-16.3485 9.87226,-31.83631 25.25947,-42.40596 -13.95775,3.56878 -26.30304,12.199 -36.0867,24.36064 -17.74612,18.60998 -19.84571,44.83139 -18.4987,70.82688 -3.71237,9.62571 -7.15283,19.80079 -9.92285,30.22542 -3.45937,-26.51303 -8.06982,-53.24281 6.76709,-75.78919 -0.70842,-0.13273 -1.25858,0.62803 -1.80873,0.90263 -18.89721,24.07548 -32.39342,50.24374 -31.57748,82.55533 -1.44838,22.61396 6.15357,41.52881 13.53404,60.45108 -1.5242,10.25247 -3.00412,20.57699 -4.50925,31.57872 -10.82723,-23.58772 -21.87594,-46.90699 -16.241,-75.78886 -4.40173,9.27324 -6.242,19.6687 -8.56937,29.77442 -4.92037,26.11545 -0.006,54.07671 7.21605,78.04467 4.73703,16.22586 15.34277,29.78828 26.61928,43.30796 3.30756,12.61752 7.86095,24.54776 12.6295,36.09049 -21.7935,-22.09869 -45.57954,-43.09531 -47.81832,-73.98469 -1.65063,20.13845 -0.85376,42.01186 6.7671,59.54865 13.55295,38.14611 48.43815,62.39183 82.10244,83.90959 9.47408,11.78095 19.73836,22.75621 30.67955,32.93206 -35.32153,-19.49668 -76.63836,-30.66095 -95.18766,-72.63119 6.15987,37.73355 35.62499,72.23474 68.5684,92.48086 24.7536,17.26991 56.35631,18.34183 85.71374,24.36064 12.13028,7.35145 24.34882,13.85482 36.99111,19.84965 -44.05535,-4.91848 -92.94874,0.25238 -124.50729,-35.63902 13.82519,27.07153 41.99357,49.09217 69.47292,57.74385 32.46292,11.01434 66.41821,4.17143 98.34359,-4.05967 6.93767,2.43929 13.83764,4.24444 20.75008,6.31563 -19.97229,5.44656 -39.72959,13.76419 -58.64554,23.45815 -29.84472,11.74375 -68.94168,9.96085 -95.18768,-8.11979 12.99019,16.28325 30.33782,26.12901 48.27359,32.93207 33.34822,13.29378 73.00179,4.38091 100.60143,-14.88673 13.8881,-12.26363 30.41363,-16.02662 47.81817,-19.85029 39.98257,-6.26549 79.93964,-2.5 119.99805,0 15.34923,2.16168 31.4635,7.54881 46.46487,19.85029 27.5996,19.26764 67.2532,28.18051 100.6014,14.88673 17.9358,-6.80306 35.2834,-16.64882 48.2736,-32.93207 -26.246,18.08064 -65.343,19.86354 -95.1877,8.11979 -18.916,-9.69396 -38.6732,-18.01159 -58.6455,-23.45815 6.9126,-2.07119 13.8124,-3.87634 20.7501,-6.31563 31.9253,8.2311 65.8806,15.07401 98.3435,4.05967 27.4794,-8.65168 55.6478,-30.67232 69.473,-57.74385 -31.5584,35.8914 -80.452,30.72054 -124.5073,35.63902 12.6422,-5.99483 24.861,-12.4982 36.9911,-19.84965 29.3574,-6.01881 60.9601,-7.09073 85.7137,-24.36064 32.9434,-20.24612 62.4086,-54.74731 68.5684,-92.48086 -18.5493,41.97024 -59.8661,53.13451 -95.1877,72.63119 10.9413,-10.17585 21.1993,-21.15111 30.6796,-32.93206 33.6645,-21.51776 68.5495,-45.76348 82.1025,-83.90959 7.6208,-17.53679 8.4177,-39.40942 6.7671,-59.54865 -2.2388,30.88938 -26.0249,51.88537 -47.8184,73.98469 4.7686,-11.54273 9.322,-23.47297 12.6297,-36.09049 11.2764,-13.51968 21.8821,-27.0821 26.6191,-43.30796 7.2224,-23.96796 12.1364,-51.92922 7.2161,-78.04467 -2.3274,-10.10572 -4.1677,-20.50118 -8.5694,-29.77442 5.6349,28.88187 -5.4138,52.20114 -16.241,75.78886 -1.5051,-11.00173 -2.985,-21.32625 -4.5092,-31.57872 7.3804,-18.92227 14.9824,-37.83712 13.534,-60.45108 0.8158,-32.31159 -12.6803,-58.47985 -31.5838,-82.55533 -0.5438,-0.2746 -1.094,-1.03536 -1.8024,-0.90263 14.8369,22.54638 10.2265,49.27616 6.7672,75.78919 -2.7701,-10.42463 -6.2106,-20.59971 -9.923,-30.22542 1.347,-25.99549 -0.7526,-52.21737 -18.4987,-70.82688 -9.7836,-12.16164 -22.1289,-20.79123 -36.0867,-24.36064 15.3872,10.56965 21.3067,26.05746 25.2595,42.40596 -5.7046,-7.32056 -12.2504,-14.28297 -19.3968,-21.20298 -1.4608,-3.03706 -2.8903,-6.239 -4.9646,-9.0229 -16.5191,-28.82589 -47.4958,-38.96062 -74.8864,-49.62406 20.1176,17.63484 34.2524,40.10507 49.1716,60.90277 13.3823,16.56226 30.401,27.71139 45.5669,41.95433 -0.6072,-1.25906 -0.8283,-2.76814 -1.3533,-4.06014 10.4352,16.0479 18.1128,32.48247 23.9122,49.17291 -4.5156,-11.88593 -12.6675,-23.23431 -22.5589,-32.93207 -19.2514,-17.76946 -47.4072,-28.75227 -56.8431,-55.03751 0.4299,36.52747 30.8439,65.18501 59.9989,85.71377 10.6565,9.3448 20.6996,19.87677 27.5172,31.57857 1.8341,8.38048 3.3203,17.03716 4.5157,25.71485 -9.8154,-21.28385 -29.7877,-38.15534 -47.8185,-54.58662 -4.8128,-5.36552 -8.8096,-10.84613 -11.2825,-17.14268 1.8403,14.78126 6.5014,29.63836 12.636,43.30828 14.8938,29.04716 40.4377,53.60374 51.4233,84.36039 0.3098,7.27249 0.2401,14.56356 0.4552,22.10483 -0.5691,4.30746 -1.5495,8.42985 -2.2577,12.63218 -4.6105,-22.32222 -16.4876,-43.52346 -28.8707,-62.25609 -4.9519,-8.34442 -7.9117,-17.47548 -10.3783,-27.06681 -2.1628,17.80098 2.3782,38.35891 4.9648,56.84121 4.9519,23.51775 12.0668,45.75215 18.4986,68.57156 1.5812,5.34662 2.397,10.98723 2.7068,16.69121 -3.7313,10.69072 -7.88,20.81094 -12.636,30.6772 0.177,-4.97443 -0.392,-10.27487 -0.898,-15.33868 -2.1884,-23.12631 -11.8267,-44.24718 -8.1205,-68.57108 -19.0047,40.96909 -14.1412,91.31105 -23.4633,136.24032 -6.5457,8.36792 -13.357,16.32518 -20.7503,23.90994 7.9942,-26.89498 6.8494,-57.96455 19.397,-83.00775 -15.1975,18.18388 -29.168,37.11563 -38.3446,57.74446 -7.9813,19.68589 -12.9333,41.16884 -22.1036,60.45116 -9.9102,7.18326 -20.3517,13.62909 -31.1284,19.84902 10.296,-16.62217 17.4172,-36.02019 28.8707,-51.42822 -26.3787,17.51769 -48.748,41.1677 -73.0841,64.05978 -4.2373,7.96924 -23.3306,17.28503 -38.3446,23.90979 -0.5753,0.18853 -1.2204,0.26435 -1.8024,0.45099 -0.5944,0.26169 -1.2267,0.65074 -1.8024,0.90233 -16.89225,4.82483 -33.67709,9.31075 -50.53146,13.9852 -30.05312,-2.26621 -60.14438,-1.82403 -90.22303,-0.45163 -16.67086,-4.61173 -33.3673,-8.75996 -50.07599,-13.53357 -0.5757,-0.25159 -1.208,-0.64064 -1.80245,-0.90233 -0.582,-0.18601 -1.2269,-0.26246 -1.80244,-0.45099 -15.01394,-6.62413 -34.10709,-15.94055 -38.35087,-23.90979 -24.32974,-22.89208 -46.69893,-46.54209 -73.07765,-64.05978 11.45338,15.40803 18.57451,34.80605 28.87051,51.42822 -10.77661,-6.21993 -21.21812,-12.66576 -31.12835,-19.84902 -9.17029,-19.28232 -14.12234,-40.76527 -22.10357,-60.45116 -9.1766,-20.62883 -23.14713,-39.56058 -38.34457,-57.74446 12.54753,25.0432 11.40277,56.11277 19.39692,83.00775 -7.39323,-7.58476 -14.20447,-15.54202 -20.75024,-23.90994 -9.32854,-44.92927 -4.45864,-95.27123 -23.46335,-136.24032 3.70623,24.3239 -5.93208,45.44477 -8.12041,68.57108 -0.50603,5.06381 -1.0751,10.36502 -0.89791,15.33868 -4.75595,-9.8658 -8.90467,-19.98648 -12.63613,-30.6772 0.30976,-5.70398 1.12569,-11.34459 2.70681,-16.69121 6.43179,-22.81941 13.5468,-45.05381 18.4987,-68.57156 2.58652,-18.4823 7.12745,-39.04023 4.96466,-56.84121 -2.46657,9.59133 -5.42639,18.72239 -10.37828,27.06681 -12.38312,18.73263 -24.26022,39.93387 -28.87067,62.25609 -0.70827,-4.20233 -1.68861,-8.32472 -2.25769,-12.63218 0.21486,-7.54127 0.14534,-14.83234 0.4488,-22.10483 10.99195,-30.75665 36.53582,-55.31323 51.42965,-84.36039 6.13463,-13.66992 10.79568,-28.52702 12.63596,-43.30828 -2.47288,6.29655 -6.46964,11.77716 -11.2825,17.14268 -18.03712,16.43128 -38.00311,33.30277 -47.8183,54.58662 1.19522,-8.67769 2.68143,-17.33437 4.50924,-25.71485 6.82385,-11.7018 16.86699,-22.23377 27.52349,-31.57857 29.1552,-20.52876 59.56898,-49.1863 59.99886,-85.71377 -9.43592,26.28587 -37.59169,37.26805 -56.8431,55.03751 -9.89133,9.69776 -18.04959,21.04614 -22.55882,32.93207 5.79935,-16.69044 13.47712,-33.12501 23.91215,-49.17291 -0.53124,1.292 -0.7461,2.80108 -1.35333,4.06013 15.16589,-14.24293 32.18468,-25.39206 45.56061,-41.95432 14.92551,-20.79707 29.06028,-43.26793 49.17793,-60.90277 z"
       id="path6624"
       style="fill:#ff8800;fill-opacity:1;overflow:visible" />
    <path
       d="m 424.18754,295.13158 0,42.3229 c -15.57729,4.74378 -24.54454,9.67257 -23.08842,12.83568 5.11799,-1.49145 13.30808,-2.14526 23.08842,-1.5154 l 0,219.88546 c -23.81648,45.80503 10.21622,116.09832 10.21622,116.09832 0,0 -25.24447,-74.9772 30.98454,-110.44806 C 517.122,541.67463 695.46662,557.02081 694.85351,456.35967 693.98415,313.78289 529.54875,314.63309 447.05204,331.72938 l 0,-36.5978 -22.8645,0 z m 22.8645,57.14159 c 41.25943,9.92583 89.70189,41.57138 73.60669,117.76401 -8.00928,37.9143 -49.43875,57.72824 -73.60669,74.11202 l 0,-191.87603 z"
       id="path2217"
       style="fill:#660087;fill-opacity:1;stroke:none" />
    <path
       d="m 525.78078,225.79452 c -144.34211,0 -261.35377,117.01166 -261.35377,261.35263 0,144.34324 117.01166,261.35377 261.35377,261.35377 144.3421,0 261.35376,-117.01053 261.35376,-261.35377 0,-144.34097 -117.01166,-261.35263 -261.35376,-261.35263 z m 0,497.2529 c -130.28374,0 -235.89914,-105.61653 -235.89914,-235.90027 0,-130.2826 105.6154,-235.898 235.89914,-235.898 130.28373,0 235.89913,105.6154 235.89913,235.898 0,130.28487 -105.6154,235.90027 -235.89913,235.90027 z"
       id="path2221"
       style="fill:#660087;fill-opacity:1" />
  </g>
</svg>
