<?xml version="1.0" encoding="utf-8"?>
<!-- Generator: Adobe Illustrator 15.0.0, SVG Export Plug-In . SVG Version: 6.00 Build 0)  -->
<!DOCTYPE svg PUBLIC "-//W3C//DTD SVG 1.1//EN" "http://www.w3.org/Graphics/SVG/1.1/DTD/svg11.dtd">
<svg version="1.1" id="Layer_1" xmlns="http://www.w3.org/2000/svg" xmlns:xlink="http://www.w3.org/1999/xlink" x="0px" y="0px"
	 width="555.588px" height="734.178px" viewBox="0 0 555.588 734.178" enable-background="new 0 0 555.588 734.178"
	 xml:space="preserve">
<path fill="#FFFFFF" d="M278.502,287.258c43.917,0,79.519,35.872,79.519,80.121c0,44.25-35.602,80.121-79.519,80.121
	c-43.917,0-79.518-35.871-79.518-80.121C198.984,323.13,234.585,287.258,278.502,287.258"/>
<path d="M187.837,367.933c0-49.798,40.369-90.167,90.167-90.167c49.798,0,90.167,40.369,90.167,90.167
	c0,49.8-40.369,90.168-90.167,90.168C228.205,458.099,187.837,417.732,187.837,367.933 M277.93,445.264
	c42.668,0,77.256-34.588,77.256-77.257s-34.588-77.258-77.256-77.258c-42.667,0-77.257,34.588-77.257,77.258
	C200.673,410.675,235.263,445.264,277.93,445.264"/>
<rect x="244.568" y="305.185" width="7.659" height="92.502"/>
<path d="M236.76,323.009c0,0,10.017-8.396,40.212-8.396c45.517,0,56.384,23.869,56.562,41.391
	c0.298,29.016-38.511,31.667-51.11,33.729c-29.415,4.813-36.235,13.669-36.35,30.346c-0.035,5.152,1.881,12.518,1.881,12.518
	s-6.334-11.783-6.334-24.892c0-15.764,12.619-22.588,19.737-26.956c14.878-9.132,15.909-19.476,15.909-27.397
	C277.267,319.619,236.76,323.009,236.76,323.009"/>
<path fill="#FFFFFF" d="M313.566,338.587c-0.931-1.408-2.146-9.136-2.146-9.136c-0.542,1.929-3.261,2.87-5.782,2.708
	c-2.543-0.166-5.97-4.511-7.026-4.501l-0.257,0.002c-1.06,0.009-4.407,4.414-6.947,4.621c-2.52,0.207-5.254-0.685-5.829-2.604
	c0,0-1.086,7.747-1.988,9.169c-1.138,1.789,2.248,1.955,2.929,1.901c0.646-0.048,0.802-0.161,0.815-0.172
	c0.048,0.23,0.097,0.458,0.147,0.682c0.509,2.329,1.096,4.433,1.724,5.658c0.299,0.583,0.655,1.254,1.046,1.98
	c0.032,1.848-0.011,3.655-0.27,4.326c-0.751,1.942,2.615,1.561,3.272,1.4c0.008-0.002,0.013-0.002,0.02-0.005
	c0.197,0.388,0.387,0.773,0.575,1.158c0.017,1.666-0.042,3.216-0.278,3.826c-0.576,1.497,1.29,1.614,2.479,1.516
	c0.131,0.468,0.229,0.9,0.277,1.282c0.453,3.626-3.623,9.528-2.876,10.357c3.916-0.312,4.444-0.315,5.29-0.324l0.257-0.001
	c0.846-0.008,1.375-0.013,5.295,0.232c0.733-0.844-3.446-6.672-3.055-10.306c0.042-0.384,0.131-0.818,0.256-1.288
	c1.189,0.079,3.055-0.07,2.451-1.559c-0.246-0.606-0.332-2.152-0.345-3.819c0.182-0.385,0.366-0.775,0.556-1.167
	c0.008,0.001,0.013,0.002,0.021,0.005c0.659,0.148,4.03,0.47,3.248-1.459c-0.271-0.665-0.347-2.47-0.345-4.319
	c0.376-0.732,0.721-1.408,1.013-1.997c0.205-0.422,0.406-0.946,0.599-1.544c0.428-1.33,0.819-3.035,1.162-4.828
	c0.013,0.009,0.169,0.118,0.819,0.159C311.353,340.58,314.736,340.357,313.566,338.587"/>
</svg>
