<?xml version="1.0" encoding="UTF-8" standalone="no"?>
<!-- Created with Inkscape (http://www.inkscape.org/) -->

<svg
   xmlns:svg="http://www.w3.org/2000/svg"
   xmlns="http://www.w3.org/2000/svg"
   version="1.1"
   width="664"
   height="169"
   id="svg2"
   xml:space="preserve"><defs
     id="defs6"><clipPath
       id="clipPath18"><path
         d="m 0,0 595.276,0 0,280.63 L 0,280.63 0,0 z"
         id="path20" /></clipPath></defs><g
     transform="matrix(1.25,0,0,-1.25,-45,264.72862)"
     id="g12"><g
       id="g14"><g
         transform="translate(3.89015,3.867996)"
         clip-path="url(#clipPath18)"
         id="g16"><g
           transform="translate(385.4587,119.4319)"
           id="g22"><path
             d="m 0,0 c 0.285,-0.047 0.677,-0.082 1.176,-0.107 0.499,-0.023 0.891,-0.036 1.176,-0.036 0.237,0 0.617,0.013 1.14,0.036 0.522,0.025 0.927,0.06 1.212,0.107 l 0,17.104 c 1.092,-0.379 2.304,-0.664 3.634,-0.855 1.33,-0.189 2.566,-0.285 3.706,-0.285 3.088,0 5.832,0.463 8.232,1.39 2.398,0.926 4.418,2.256 6.057,3.991 1.64,1.734 2.887,3.848 3.742,6.343 0.855,2.494 1.283,5.309 1.283,8.445 0,3.136 -0.369,5.819 -1.105,8.053 -0.737,2.233 -1.758,4.086 -3.064,5.559 -1.308,1.472 -2.887,2.553 -4.74,3.243 -1.853,0.688 -3.896,1.033 -6.129,1.033 -2.993,0 -5.428,-0.595 -7.305,-1.782 C 7.138,51.051 5.701,49.697 4.704,48.177 L 4.276,53.166 C 3.991,53.213 3.635,53.248 3.207,53.273 2.779,53.296 2.423,53.308 2.138,53.308 1.853,53.308 1.497,53.296 1.069,53.273 0.641,53.248 0.285,53.213 0,53.166 L 0,0 z m 4.704,37.986 c 0,2.28 0.367,4.169 1.104,5.666 0.736,1.496 1.663,2.708 2.78,3.634 1.116,0.927 2.339,1.579 3.67,1.96 1.33,0.38 2.566,0.57 3.706,0.57 3.658,0 6.307,-1.236 7.946,-3.706 1.64,-2.471 2.459,-5.891 2.459,-10.262 0,-2.756 -0.356,-5.12 -1.069,-7.091 -0.713,-1.973 -1.687,-3.599 -2.922,-4.882 -1.236,-1.283 -2.685,-2.222 -4.347,-2.815 -1.664,-0.595 -3.421,-0.891 -5.274,-0.891 -1.949,0 -3.504,0.107 -4.668,0.321 -1.165,0.213 -2.293,0.534 -3.385,0.962 l 0,16.534 z M 62.002,20.882 c -1.236,-0.239 -2.494,-0.428 -3.777,-0.571 -1.283,-0.142 -2.661,-0.213 -4.133,-0.213 -1.141,0 -2.281,0.082 -3.421,0.249 -1.141,0.166 -2.186,0.499 -3.136,0.998 -0.951,0.499 -1.723,1.222 -2.316,2.173 -0.595,0.95 -0.891,2.21 -0.891,3.778 0,2.47 0.973,4.37 2.922,5.701 1.947,1.33 4.704,1.996 8.267,1.996 1.092,0 2.245,-0.061 3.456,-0.179 1.212,-0.119 2.221,-0.226 3.029,-0.32 l 0,-13.612 z m 0,17.745 c -0.808,0.095 -1.829,0.202 -3.064,0.321 -1.236,0.118 -2.708,0.178 -4.419,0.178 -2.186,0 -4.193,-0.262 -6.022,-0.784 -1.83,-0.523 -3.397,-1.295 -4.704,-2.316 -1.307,-1.022 -2.328,-2.281 -3.064,-3.777 -0.737,-1.497 -1.105,-3.196 -1.105,-5.096 0,-3.944 1.271,-6.795 3.813,-8.552 2.541,-1.758 6.022,-2.637 10.441,-2.637 2.138,0 4.394,0.167 6.77,0.499 2.375,0.333 4.394,0.665 6.058,0.998 l 0,24.017 c 0,4.323 -1.117,7.494 -3.35,9.514 -2.233,2.019 -5.654,3.029 -10.262,3.029 -1.901,0 -3.754,-0.131 -5.559,-0.392 -1.806,-0.262 -3.326,-0.582 -4.561,-0.962 0,-0.713 0.082,-1.473 0.249,-2.281 0.166,-0.808 0.368,-1.425 0.606,-1.853 1.235,0.38 2.637,0.701 4.205,0.963 1.568,0.26 3.302,0.392 5.202,0.392 2.898,0 5.084,-0.725 6.557,-2.174 1.472,-1.45 2.209,-3.742 2.209,-6.877 l 0,-2.21 z M 78.535,16.819 c 0.286,-0.047 0.689,-0.082 1.212,-0.107 0.522,-0.023 0.902,-0.035 1.14,-0.035 0.285,0 0.677,0.012 1.176,0.035 0.499,0.025 0.891,0.06 1.176,0.107 l 0,18.672 c 0,4.751 0.973,8.148 2.922,10.192 1.948,2.042 4.537,3.064 7.768,3.064 l 0.677,0 c 0.214,0 0.51,-0.024 0.891,-0.071 0.143,0.713 0.214,1.449 0.214,2.209 0,0.713 -0.071,1.472 -0.214,2.281 -0.333,0.047 -0.63,0.071 -0.891,0.071 l -0.748,0 c -2.804,0 -5.06,-0.606 -6.77,-1.817 -1.711,-1.212 -3.042,-2.697 -3.991,-4.454 0,0.949 -0.025,2.006 -0.072,3.171 -0.048,1.164 -0.119,2.174 -0.213,3.029 -0.381,0.047 -0.738,0.082 -1.07,0.107 -0.332,0.023 -0.689,0.035 -1.069,0.035 -0.332,0 -0.677,-0.012 -1.033,-0.035 -0.356,-0.025 -0.725,-0.06 -1.105,-0.107 l 0,-36.347 z m 26.583,8.481 c 0,-3.278 0.843,-5.642 2.53,-7.091 1.686,-1.449 3.884,-2.174 6.592,-2.174 2.281,0 4.276,0.262 5.987,0.784 -0.143,1.426 -0.381,2.755 -0.713,3.991 -1.236,-0.427 -2.685,-0.641 -4.347,-0.641 -0.666,0 -1.319,0.059 -1.96,0.178 -0.642,0.118 -1.212,0.367 -1.711,0.748 -0.499,0.38 -0.903,0.915 -1.211,1.604 -0.31,0.688 -0.464,1.627 -0.464,2.815 l 0,23.661 9.835,0 c 0.047,0.237 0.083,0.546 0.107,0.926 0.024,0.38 0.036,0.76 0.036,1.141 0,0.379 -0.012,0.736 -0.036,1.069 -0.024,0.332 -0.06,0.617 -0.107,0.855 l -9.835,0 0,11.189 -0.285,0 -4.418,-4.347 0,-6.842 -6.201,0 c -0.047,-0.238 -0.083,-0.523 -0.106,-0.855 -0.025,-0.333 -0.036,-0.69 -0.036,-1.069 0,-0.381 0.011,-0.761 0.036,-1.141 0.023,-0.38 0.059,-0.689 0.106,-0.926 l 6.201,0 0,-23.875 z m 51.454,8.98 c 0.047,0.474 0.083,1.044 0.107,1.71 0.024,0.665 0.036,1.212 0.036,1.639 0,2.376 -0.321,4.573 -0.962,6.593 -0.642,2.019 -1.593,3.752 -2.851,5.202 -1.259,1.449 -2.815,2.577 -4.668,3.386 -1.853,0.807 -3.968,1.211 -6.343,1.211 -2.85,0 -5.298,-0.499 -7.34,-1.497 -2.044,-0.997 -3.719,-2.376 -5.025,-4.133 -1.307,-1.758 -2.28,-3.802 -2.922,-6.129 -0.641,-2.329 -0.962,-4.823 -0.962,-7.483 0,-2.756 0.344,-5.286 1.034,-7.59 0.688,-2.305 1.757,-4.289 3.207,-5.951 1.448,-1.664 3.301,-2.958 5.558,-3.884 2.257,-0.927 4.954,-1.39 8.089,-1.39 2.185,0 4.205,0.167 6.058,0.499 1.853,0.333 3.468,0.807 4.846,1.425 -0.048,0.617 -0.142,1.306 -0.285,2.067 -0.142,0.759 -0.333,1.401 -0.57,1.924 -1.473,-0.523 -2.982,-0.938 -4.525,-1.247 -1.545,-0.31 -3.22,-0.463 -5.025,-0.463 -4.466,0 -7.816,1.14 -10.049,3.421 -2.233,2.28 -3.349,5.844 -3.349,10.69 l 25.941,0 z m -25.799,3.92 c 0.38,3.706 1.497,6.58 3.35,8.623 1.853,2.042 4.442,3.065 7.768,3.065 1.805,0 3.35,-0.333 4.633,-0.998 1.282,-0.666 2.327,-1.532 3.135,-2.601 0.808,-1.07 1.401,-2.317 1.782,-3.742 0.38,-1.425 0.57,-2.875 0.57,-4.347 l -21.238,0 z m 38.485,-21.381 c 0.285,-0.047 0.688,-0.082 1.211,-0.107 0.522,-0.023 0.902,-0.035 1.14,-0.035 0.286,0 0.678,0.012 1.176,0.035 0.499,0.025 0.891,0.06 1.176,0.107 l 0,36.347 -9.264,0 c -0.048,-0.238 -0.084,-0.547 -0.107,-0.927 -0.025,-0.38 -0.036,-0.76 -0.036,-1.14 0,-0.381 0.011,-0.737 0.036,-1.069 0.023,-0.333 0.059,-0.618 0.107,-0.855 l 4.561,0 0,-32.356 z m -0.784,45.148 c 0.617,-0.024 1.14,-0.035 1.568,-0.035 0.379,0 0.855,0.011 1.425,0.035 0.57,0.024 1.044,0.059 1.425,0.107 0.047,0.428 0.083,0.95 0.107,1.568 0.024,0.617 0.036,1.141 0.036,1.568 0,0.38 -0.012,0.855 -0.036,1.426 -0.024,0.57 -0.06,1.044 -0.107,1.425 -0.381,0.047 -0.855,0.082 -1.425,0.107 -0.57,0.023 -1.046,0.035 -1.425,0.035 -0.428,0 -0.951,-0.012 -1.568,-0.035 -0.618,-0.025 -1.141,-0.06 -1.568,-0.107 -0.048,-0.381 -0.084,-0.855 -0.107,-1.425 -0.025,-0.571 -0.036,-1.046 -0.036,-1.426 0,-0.427 0.011,-0.951 0.036,-1.568 0.023,-0.618 0.059,-1.14 0.107,-1.568 0.427,-0.048 0.95,-0.083 1.568,-0.107"
             id="path24"
             style="fill:#241d10;fill-opacity:1;fill-rule:nonzero;stroke:none" /></g><g
           transform="translate(187.4795,119.3606)"
           id="g26"><path
             d="m 0,0 c 0.902,-0.143 1.769,-0.237 2.601,-0.285 0.831,-0.047 1.651,-0.071 2.459,-0.071 0.807,0 1.627,0.024 2.459,0.071 0.83,0.048 1.698,0.142 2.601,0.285 l 0,16.392 c 0.522,-0.095 1.176,-0.179 1.96,-0.25 0.784,-0.071 1.579,-0.107 2.387,-0.107 3.136,0 5.939,0.464 8.41,1.39 2.47,0.926 4.561,2.245 6.272,3.955 1.71,1.711 3.016,3.789 3.919,6.236 0.902,2.447 1.354,5.214 1.354,8.303 0,3.183 -0.368,5.939 -1.104,8.267 -0.737,2.327 -1.771,4.264 -3.1,5.808 -1.331,1.544 -2.887,2.696 -4.668,3.457 -1.782,0.759 -3.695,1.14 -5.738,1.14 -1.33,0 -2.542,-0.178 -3.634,-0.534 -1.094,-0.357 -2.079,-0.82 -2.958,-1.39 -0.88,-0.57 -1.628,-1.224 -2.245,-1.96 C 10.357,49.97 9.835,49.222 9.407,48.462 9.359,48.794 9.3,49.21 9.229,49.709 9.158,50.208 9.062,50.718 8.944,51.242 8.825,51.764 8.706,52.251 8.588,52.703 8.469,53.154 8.338,53.498 8.196,53.736 6.817,54.021 5.463,54.164 4.134,54.164 3.325,54.164 2.601,54.139 1.96,54.092 1.318,54.044 0.665,53.95 0,53.807 L 0,0 z m 10.12,37.273 c 0,1.187 0.118,2.304 0.356,3.35 0.238,1.044 0.617,1.96 1.141,2.744 0.522,0.783 1.199,1.4 2.031,1.852 0.831,0.451 1.841,0.678 3.029,0.678 1.283,0 2.363,-0.262 3.242,-0.784 0.879,-0.524 1.604,-1.236 2.174,-2.138 0.57,-0.904 0.973,-1.985 1.212,-3.243 0.237,-1.26 0.356,-2.626 0.356,-4.098 0,-3.849 -0.784,-6.724 -2.352,-8.623 -1.568,-1.901 -3.825,-2.851 -6.77,-2.851 -1.664,0 -3.136,0.189 -4.419,0.57 l 0,12.543 z M 44.328,16.89 c 1.71,-0.285 3.349,-0.427 4.917,-0.427 1.615,0 3.279,0.142 4.989,0.427 l 0,36.846 -14.681,0 c -0.285,-1.236 -0.428,-2.494 -0.428,-3.777 0,-0.618 0.036,-1.272 0.107,-1.96 0.071,-0.689 0.178,-1.343 0.321,-1.96 l 4.775,0 0,-29.149 z m 1.14,42.761 c 0.95,-0.048 1.805,-0.071 2.566,-0.071 0.807,0 1.675,0.023 2.601,0.071 0.926,0.047 1.793,0.143 2.601,0.285 0.143,0.808 0.237,1.615 0.285,2.423 0.047,0.808 0.072,1.592 0.072,2.352 0,0.808 -0.025,1.604 -0.072,2.388 -0.048,0.784 -0.142,1.579 -0.285,2.387 -0.808,0.143 -1.687,0.25 -2.637,0.321 -0.951,0.071 -1.829,0.107 -2.637,0.107 -0.76,0 -1.603,-0.036 -2.53,-0.107 -0.926,-0.071 -1.794,-0.178 -2.601,-0.321 -0.285,-1.663 -0.427,-3.255 -0.427,-4.775 0,-1.568 0.142,-3.16 0.427,-4.775 0.807,-0.142 1.686,-0.238 2.637,-0.285 M 64.211,16.819 c 0.902,-0.142 1.769,-0.237 2.601,-0.285 0.831,-0.047 1.651,-0.071 2.459,-0.071 0.807,0 1.639,0.024 2.494,0.071 0.856,0.048 1.711,0.143 2.566,0.285 l 0,17.532 c 0,2.566 0.296,4.561 0.891,5.987 0.593,1.425 1.342,2.494 2.245,3.207 0.902,0.712 1.853,1.151 2.851,1.318 0.997,0.166 1.899,0.25 2.708,0.25 l 1.176,0 c 0.641,0 1.222,-0.048 1.746,-0.143 0.189,0.855 0.32,1.757 0.392,2.708 0.071,0.95 0.107,1.829 0.107,2.637 0,0.665 -0.025,1.306 -0.072,1.924 -0.048,0.617 -0.119,1.164 -0.214,1.64 -0.285,0.094 -0.737,0.165 -1.354,0.213 -0.618,0.047 -1.164,0.072 -1.639,0.072 -2.28,0 -4.181,-0.583 -5.701,-1.746 -1.521,-1.165 -2.804,-2.484 -3.849,-3.956 -0.048,0.332 -0.107,0.748 -0.178,1.247 -0.071,0.499 -0.155,0.998 -0.249,1.497 -0.096,0.499 -0.203,0.973 -0.321,1.425 -0.119,0.451 -0.249,0.795 -0.392,1.034 -0.666,0.142 -1.343,0.26 -2.031,0.356 -0.689,0.095 -1.39,0.143 -2.103,0.143 -0.76,0 -1.461,-0.036 -2.102,-0.107 -0.641,-0.072 -1.318,-0.178 -2.031,-0.321 l 0,-36.917 z m 46.324,7.555 c -0.523,-0.096 -1.14,-0.203 -1.853,-0.321 -0.713,-0.119 -1.425,-0.178 -2.138,-0.178 -0.618,0 -1.343,0.035 -2.174,0.107 -0.832,0.071 -1.615,0.26 -2.352,0.57 -0.737,0.308 -1.366,0.795 -1.888,1.461 -0.524,0.665 -0.784,1.614 -0.784,2.85 0,1.853 0.677,3.195 2.031,4.027 1.354,0.831 3.195,1.247 5.523,1.247 0.523,0 1.116,-0.035 1.782,-0.107 0.665,-0.071 1.283,-0.154 1.853,-0.249 l 0,-9.407 z m 0,15.892 c -1.664,0.143 -3.184,0.214 -4.561,0.214 -1.901,0 -3.802,-0.202 -5.702,-0.606 -1.9,-0.404 -3.623,-1.069 -5.167,-1.995 -1.544,-0.927 -2.803,-2.163 -3.777,-3.706 -0.974,-1.545 -1.461,-3.457 -1.461,-5.737 0,-2.281 0.392,-4.205 1.176,-5.773 0.784,-1.568 1.9,-2.851 3.35,-3.848 1.449,-0.998 3.182,-1.711 5.202,-2.138 2.019,-0.428 4.241,-0.642 6.664,-0.642 2.993,0 5.677,0.239 8.053,0.713 2.375,0.474 4.394,0.973 6.058,1.497 l 0,21.38 c 0,5.226 -1.39,9.026 -4.169,11.403 -2.78,2.375 -6.64,3.563 -11.581,3.563 -1.806,0 -3.754,-0.167 -5.844,-0.499 -2.091,-0.333 -4.182,-0.855 -6.272,-1.568 0,-1.521 0.166,-2.827 0.499,-3.919 0.332,-1.094 0.831,-2.257 1.497,-3.492 2.897,0.997 5.63,1.496 8.195,1.496 1.188,0 2.269,-0.071 3.243,-0.214 0.973,-0.142 1.793,-0.416 2.459,-0.819 0.665,-0.404 1.187,-0.962 1.568,-1.675 0.38,-0.713 0.57,-1.639 0.57,-2.779 l 0,-0.856 z m 19.812,-10.904 c 0,-4.561 1.14,-7.851 3.42,-9.87 2.281,-2.02 5.583,-3.029 9.907,-3.029 2.327,0 4.584,0.262 6.77,0.784 0.047,0.332 0.083,0.677 0.107,1.033 0.023,0.357 0.036,0.795 0.036,1.319 0,0.759 -0.072,1.627 -0.214,2.601 -0.143,0.973 -0.381,1.912 -0.713,2.815 -0.523,-0.096 -1.129,-0.203 -1.817,-0.321 -0.689,-0.119 -1.39,-0.178 -2.103,-0.178 -0.903,0 -1.687,0.095 -2.351,0.285 -0.666,0.19 -1.224,0.546 -1.675,1.069 -0.452,0.523 -0.796,1.235 -1.034,2.138 -0.238,0.902 -0.356,2.09 -0.356,3.564 l 0,14.467 8.624,0 c 0.142,0.76 0.237,1.449 0.285,2.067 0.046,0.617 0.071,1.258 0.071,1.924 0,0.617 -0.025,1.212 -0.071,1.782 -0.048,0.57 -0.143,1.211 -0.285,1.924 l -8.624,0 0,10.761 -1.639,0 -13.327,-17.033 0.356,-1.425 4.633,0 0,-16.677 z m 58.011,2.851 c 0.095,0.522 0.179,1.223 0.25,2.102 0.071,0.879 0.107,1.77 0.107,2.673 0,2.47 -0.357,4.786 -1.069,6.949 -0.713,2.161 -1.771,4.026 -3.172,5.594 -1.402,1.568 -3.1,2.803 -5.095,3.706 -1.996,0.902 -4.276,1.354 -6.842,1.354 -2.947,0 -5.523,-0.511 -7.733,-1.532 -2.209,-1.022 -4.062,-2.412 -5.559,-4.169 -1.496,-1.759 -2.625,-3.825 -3.385,-6.201 -0.76,-2.376 -1.14,-4.917 -1.14,-7.625 0,-2.756 0.367,-5.299 1.105,-7.626 0.736,-2.328 1.876,-4.336 3.42,-6.022 1.544,-1.687 3.539,-3.005 5.987,-3.955 2.446,-0.95 5.381,-1.426 8.802,-1.426 4.655,0 8.837,0.713 12.543,2.138 -0.048,1.52 -0.262,2.946 -0.642,4.276 -0.381,1.33 -0.832,2.47 -1.354,3.421 -1.521,-0.57 -3.124,-1.01 -4.81,-1.318 -1.687,-0.31 -3.339,-0.463 -4.954,-0.463 -2.946,0 -5.321,0.641 -7.126,1.924 -1.807,1.283 -2.804,3.349 -2.994,6.2 l 23.661,0 z m -23.589,7.056 c 0.237,2.423 0.973,4.299 2.209,5.63 1.235,1.329 3.04,1.995 5.416,1.995 2.09,0 3.717,-0.701 4.882,-2.102 1.164,-1.402 1.793,-3.243 1.889,-5.523 l -14.396,0 z"
             id="path28"
             style="fill:#8d198f;fill-opacity:1;fill-rule:nonzero;stroke:none" /></g><g
           transform="translate(154.7072,140.3139)"
           id="g30"><path
             d="m 0,0 c 0,-30.349 -24.605,-54.955 -54.966,-54.955 -30.344,0 -54.957,24.606 -54.957,54.955 0,30.35 24.613,54.955 54.957,54.955 C -24.605,54.955 0,30.35 0,0"
             id="path32"
             style="fill:#ffffff;fill-opacity:1;fill-rule:nonzero;stroke:none" /></g><g
           transform="translate(99.741,199.3772)"
           id="g34"><path
             d="m 0,0 c -32.617,0 -59.068,-26.432 -59.068,-59.063 0,-32.613 26.451,-59.063 59.068,-59.063 32.624,0 59.076,26.45 59.076,59.063 C 59.076,-26.432 32.624,0 0,0 m 0,-112.057 c -29.26,0 -52.995,23.729 -52.995,52.994 0,29.266 23.735,52.993 52.995,52.993 29.278,0 53.003,-23.727 53.003,-52.993 0,-29.265 -23.725,-52.994 -53.003,-52.994"
             id="path36"
             style="fill:#241d10;fill-opacity:1;fill-rule:nonzero;stroke:none" /></g><g
           transform="translate(124.9962,169.71)"
           id="g38"><path
             d="m 0,0 c -12.781,7.167 -28.794,7.227 -41.496,3.973 l 0,5.499 -5.513,0 0,-7.187 c -2.368,-0.855 -4.559,-1.823 -6.508,-2.877 0,0 2.742,0.338 6.508,0.11 l 0,-48.07 c -2.742,-4.221 -3.402,-8.329 -2.753,-13.066 0.728,-5.295 4.727,-8.834 7.877,-11.449 -1.856,5.342 -1.997,10.204 -1.451,13.145 1.039,5.492 4.263,9.441 18.166,12.451 14.426,3.109 31.521,4.549 37.169,18.555 C 14.572,-22.515 16.169,-9.074 0,0 m -33.718,-36.152 c -3.088,-2.169 -5.658,-4.189 -7.778,-6.123 l 0,41.066 c 4.296,-0.907 8.845,-2.767 11.98,-6.457 7.709,-9.106 5.097,-21.963 -4.202,-28.486"
             id="path40"
             style="fill:#241d10;fill-opacity:1;fill-rule:nonzero;stroke:none" /></g><g
           transform="translate(36,140.3139)"
           id="g42"><path
             d="M 0,0 C 0.001,35.211 28.544,63.733 63.741,63.733 98.944,63.733 127.487,35.211 127.489,0 127.487,-35.191 98.944,-63.731 63.741,-63.731 28.544,-63.731 0.001,-35.191 0,0 M 19.491,44.252 C 8.164,32.928 1.16,17.288 1.159,0 1.16,-17.277 8.164,-32.917 19.491,-44.243 c 11.328,-11.326 26.97,-18.331 44.25,-18.331 17.284,0 32.928,7.005 44.256,18.331 11.329,11.326 18.333,26.966 18.333,44.243 0,17.288 -7.004,32.928 -18.333,44.252 -11.328,11.324 -26.972,18.324 -44.256,18.324 -17.282,0 -32.922,-7 -44.25,-18.324"
             id="path44"
             style="fill:#241d10;fill-opacity:1;fill-rule:nonzero;stroke:none" /></g><g
           transform="translate(187.7959,90.0028)"
           id="g46"><path
             d="m 0,0 c 0.38,-0.071 0.796,-0.107 1.247,-0.107 0.404,0 0.82,0.036 1.247,0.107 L 7.091,15.038 11.474,0 c 0.38,-0.071 0.796,-0.107 1.247,-0.107 0.404,0 0.82,0.036 1.248,0.107 l 5.238,18.173 c -0.143,0.024 -0.333,0.042 -0.57,0.054 -0.238,0.011 -0.452,0.018 -0.642,0.018 -0.19,0 -0.386,-0.007 -0.588,-0.018 -0.202,-0.012 -0.374,-0.03 -0.516,-0.054 L 12.864,2.922 8.374,18.173 c -0.19,0.048 -0.386,0.072 -0.588,0.072 l -0.588,0 c -0.262,0 -0.505,-0.007 -0.73,-0.018 C 6.242,18.215 6.034,18.197 5.844,18.173 L 1.354,2.708 -2.673,18.173 c -0.142,0.024 -0.35,0.042 -0.623,0.054 -0.274,0.011 -0.505,0.018 -0.695,0.018 -0.238,0 -0.469,-0.007 -0.695,-0.018 -0.226,-0.012 -0.41,-0.03 -0.552,-0.054 L 0,0 z m 26.797,0 c 0.379,-0.071 0.795,-0.107 1.247,-0.107 0.404,0 0.819,0.036 1.247,0.107 L 33.888,15.038 38.271,0 c 0.38,-0.071 0.795,-0.107 1.247,-0.107 0.404,0 0.82,0.036 1.247,0.107 l 5.238,18.173 c -0.142,0.024 -0.333,0.042 -0.57,0.054 -0.237,0.011 -0.451,0.018 -0.641,0.018 -0.191,0 -0.387,-0.007 -0.588,-0.018 -0.202,-0.012 -0.374,-0.03 -0.517,-0.054 L 39.661,2.922 35.171,18.173 c -0.191,0.048 -0.387,0.072 -0.588,0.072 l -0.588,0 c -0.262,0 -0.505,-0.007 -0.731,-0.018 -0.226,-0.012 -0.433,-0.03 -0.623,-0.054 L 28.151,2.708 24.124,18.173 c -0.142,0.024 -0.351,0.042 -0.623,0.054 -0.274,0.011 -0.505,0.018 -0.695,0.018 -0.238,0 -0.47,-0.007 -0.695,-0.018 -0.226,-0.012 -0.41,-0.03 -0.552,-0.054 L 26.797,0 z m 26.796,0 c 0.38,-0.071 0.796,-0.107 1.248,-0.107 0.403,0 0.819,0.036 1.247,0.107 L 60.685,15.038 65.068,0 c 0.379,-0.071 0.795,-0.107 1.247,-0.107 0.403,0 0.819,0.036 1.247,0.107 L 72.8,18.173 c -0.142,0.024 -0.333,0.042 -0.57,0.054 -0.238,0.011 -0.452,0.018 -0.641,0.018 -0.191,0 -0.387,-0.007 -0.588,-0.018 -0.203,-0.012 -0.375,-0.03 -0.517,-0.054 L 66.457,2.922 61.967,18.173 c -0.19,0.048 -0.386,0.072 -0.588,0.072 l -0.588,0 c -0.261,0 -0.505,-0.007 -0.73,-0.018 -0.226,-0.012 -0.434,-0.03 -0.624,-0.054 L 54.947,2.708 50.921,18.173 c -0.143,0.024 -0.351,0.042 -0.624,0.054 -0.273,0.011 -0.505,0.018 -0.695,0.018 -0.237,0 -0.469,-0.007 -0.694,-0.018 -0.227,-0.012 -0.41,-0.03 -0.553,-0.054 L 53.593,0 z m 22.984,-0.107 c 0.499,0 0.998,0.036 1.497,0.107 0.071,0.499 0.107,1.009 0.107,1.532 0,0.499 -0.036,0.998 -0.107,1.497 -0.499,0.071 -1.01,0.107 -1.532,0.107 -0.499,0 -0.998,-0.036 -1.497,-0.107 -0.071,-0.499 -0.107,-1.01 -0.107,-1.532 0,-0.499 0.036,-0.998 0.107,-1.497 0.499,-0.071 1.01,-0.107 1.532,-0.107 m 6.77,-8.303 c 0.143,-0.023 0.339,-0.041 0.588,-0.053 0.25,-0.012 0.446,-0.018 0.588,-0.018 0.119,0 0.309,0.006 0.57,0.018 0.261,0.012 0.464,0.03 0.606,0.053 l 0,8.553 c 0.546,-0.19 1.152,-0.333 1.817,-0.428 0.665,-0.095 1.283,-0.143 1.853,-0.143 1.544,0 2.916,0.232 4.116,0.695 1.199,0.463 2.209,1.128 3.029,1.996 0.82,0.867 1.443,1.924 1.871,3.171 0.427,1.247 0.641,2.655 0.641,4.223 0,1.568 -0.184,2.91 -0.552,4.026 -0.369,1.117 -0.879,2.043 -1.532,2.78 -0.654,0.736 -1.444,1.277 -2.37,1.621 -0.926,0.344 -1.948,0.517 -3.065,0.517 -1.496,0 -2.714,-0.297 -3.652,-0.891 -0.939,-0.594 -1.657,-1.271 -2.156,-2.031 l -0.214,2.494 c -0.142,0.024 -0.32,0.042 -0.534,0.054 -0.214,0.011 -0.392,0.018 -0.535,0.018 -0.142,0 -0.32,-0.007 -0.534,-0.018 -0.214,-0.012 -0.392,-0.03 -0.535,-0.054 l 0,-26.583 z m 2.352,18.993 c 0,1.141 0.184,2.085 0.552,2.833 0.368,0.749 0.832,1.354 1.39,1.818 0.558,0.463 1.17,0.789 1.835,0.979 0.665,0.19 1.283,0.286 1.853,0.286 1.829,0 3.154,-0.618 3.973,-1.853 0.82,-1.236 1.23,-2.946 1.23,-5.132 0,-1.378 -0.178,-2.56 -0.535,-3.545 C 95.641,4.983 95.154,4.169 94.536,3.528 93.918,2.886 93.194,2.417 92.363,2.12 91.531,1.823 90.652,1.675 89.726,1.675 c -0.975,0 -1.752,0.053 -2.334,0.16 -0.583,0.107 -1.147,0.267 -1.693,0.481 l 0,8.267 z M 105.44,0 c 0.142,-0.023 0.344,-0.041 0.606,-0.053 0.261,-0.012 0.451,-0.018 0.57,-0.018 0.142,0 0.338,0.006 0.588,0.018 0.249,0.012 0.445,0.03 0.588,0.053 l 0,18.173 -4.633,0 c -0.024,-0.119 -0.041,-0.273 -0.053,-0.463 -0.012,-0.19 -0.018,-0.38 -0.018,-0.57 0,-0.19 0.006,-0.369 0.018,-0.535 0.012,-0.166 0.029,-0.309 0.053,-0.427 l 2.281,0 0,-16.178 z m -0.392,22.574 c 0.308,-0.012 0.57,-0.018 0.784,-0.018 0.19,0 0.428,0.006 0.713,0.018 0.285,0.012 0.522,0.03 0.712,0.054 0.024,0.213 0.041,0.475 0.054,0.784 0.011,0.308 0.018,0.57 0.018,0.783 0,0.19 -0.007,0.428 -0.018,0.713 -0.013,0.285 -0.03,0.522 -0.054,0.713 -0.19,0.023 -0.427,0.041 -0.712,0.053 -0.285,0.012 -0.523,0.018 -0.713,0.018 -0.214,0 -0.476,-0.006 -0.784,-0.018 -0.309,-0.012 -0.57,-0.03 -0.784,-0.053 -0.024,-0.191 -0.042,-0.428 -0.053,-0.713 -0.013,-0.285 -0.018,-0.523 -0.018,-0.713 0,-0.213 0.005,-0.475 0.018,-0.783 0.011,-0.309 0.029,-0.571 0.053,-0.784 0.214,-0.024 0.475,-0.042 0.784,-0.054 M 114.063,0 c 0.143,-0.023 0.344,-0.041 0.606,-0.053 0.261,-0.012 0.451,-0.018 0.57,-0.018 0.143,0 0.339,0.006 0.588,0.018 0.25,0.012 0.445,0.03 0.588,0.053 l 0,9.336 c 0,2.375 0.487,4.074 1.461,5.096 0.974,1.021 2.268,1.532 3.884,1.532 l 0.339,0 c 0.107,0 0.255,-0.012 0.445,-0.036 0.071,0.357 0.107,0.725 0.107,1.105 0,0.356 -0.036,0.736 -0.107,1.14 -0.166,0.024 -0.315,0.036 -0.445,0.036 l -0.374,0 c -1.402,0 -2.531,-0.303 -3.386,-0.909 -0.855,-0.605 -1.52,-1.348 -1.995,-2.227 0,0.475 -0.012,1.003 -0.036,1.586 -0.024,0.582 -0.059,1.087 -0.107,1.514 -0.19,0.024 -0.368,0.042 -0.534,0.054 -0.167,0.011 -0.345,0.018 -0.535,0.018 -0.166,0 -0.338,-0.007 -0.516,-0.018 -0.179,-0.012 -0.363,-0.03 -0.553,-0.054 l 0,-18.173 z m 22.129,2.031 c -0.618,-0.119 -1.247,-0.214 -1.889,-0.285 -0.641,-0.071 -1.331,-0.107 -2.067,-0.107 -0.57,0 -1.14,0.041 -1.71,0.125 -0.57,0.083 -1.093,0.249 -1.568,0.499 -0.475,0.249 -0.861,0.611 -1.158,1.087 -0.297,0.475 -0.445,1.104 -0.445,1.888 0,1.235 0.486,2.186 1.461,2.851 0.973,0.665 2.351,0.998 4.133,0.998 0.546,0 1.123,-0.03 1.728,-0.089 0.606,-0.06 1.111,-0.113 1.515,-0.161 l 0,-6.806 z m 0,8.873 c -0.404,0.047 -0.915,0.101 -1.533,0.16 -0.618,0.059 -1.354,0.089 -2.209,0.089 -1.093,0 -2.097,-0.13 -3.011,-0.392 -0.915,-0.261 -1.699,-0.647 -2.352,-1.158 -0.653,-0.511 -1.164,-1.14 -1.532,-1.888 -0.369,-0.749 -0.552,-1.598 -0.552,-2.548 0,-1.972 0.635,-3.398 1.906,-4.276 1.271,-0.879 3.011,-1.319 5.22,-1.319 1.07,0 2.198,0.084 3.386,0.25 1.187,0.166 2.197,0.332 3.029,0.499 l 0,12.008 c 0,2.162 -0.559,3.747 -1.675,4.757 -1.117,1.01 -2.828,1.515 -5.131,1.515 -0.951,0 -1.877,-0.066 -2.78,-0.196 -0.903,-0.131 -1.663,-0.291 -2.281,-0.481 0,-0.356 0.042,-0.737 0.125,-1.14 0.083,-0.405 0.184,-0.713 0.303,-0.927 0.618,0.19 1.319,0.35 2.103,0.481 0.783,0.13 1.65,0.196 2.601,0.196 1.449,0 2.541,-0.362 3.278,-1.087 0.736,-0.725 1.105,-1.87 1.105,-3.438 l 0,-1.105 z m 9.086,-6.664 c 0,-1.639 0.421,-2.821 1.265,-3.545 0.843,-0.724 1.942,-1.087 3.296,-1.087 1.14,0 2.138,0.131 2.993,0.392 -0.071,0.713 -0.19,1.377 -0.356,1.996 -0.618,-0.214 -1.342,-0.321 -2.174,-0.321 -0.333,0 -0.659,0.029 -0.98,0.089 -0.32,0.059 -0.605,0.184 -0.855,0.374 -0.249,0.19 -0.451,0.457 -0.606,0.802 -0.154,0.344 -0.231,0.813 -0.231,1.407 l 0,11.831 4.917,0 c 0.024,0.118 0.041,0.273 0.054,0.463 0.011,0.19 0.017,0.38 0.017,0.57 0,0.19 -0.006,0.368 -0.017,0.535 -0.013,0.166 -0.03,0.308 -0.054,0.427 l -4.917,0 0,5.595 -0.143,0 -2.209,-2.174 0,-3.421 -3.1,0 c -0.024,-0.119 -0.042,-0.261 -0.054,-0.427 -0.012,-0.167 -0.018,-0.345 -0.018,-0.535 0,-0.19 0.006,-0.38 0.018,-0.57 0.012,-0.19 0.03,-0.345 0.054,-0.463 l 3.1,0 0,-11.938 z m 25.727,4.49 c 0.024,0.238 0.041,0.523 0.054,0.856 0.011,0.332 0.018,0.605 0.018,0.819 0,1.188 -0.161,2.286 -0.482,3.296 -0.32,1.01 -0.796,1.877 -1.425,2.602 -0.63,0.724 -1.407,1.288 -2.334,1.692 -0.926,0.404 -1.984,0.606 -3.171,0.606 -1.426,0 -2.65,-0.249 -3.671,-0.748 -1.021,-0.499 -1.859,-1.189 -2.512,-2.067 -0.654,-0.879 -1.14,-1.901 -1.461,-3.065 -0.321,-1.164 -0.481,-2.411 -0.481,-3.741 0,-1.378 0.172,-2.643 0.517,-3.795 0.344,-1.153 0.878,-2.144 1.603,-2.976 0.725,-0.832 1.651,-1.479 2.78,-1.942 1.128,-0.463 2.476,-0.695 4.044,-0.695 1.093,0 2.103,0.084 3.029,0.25 0.927,0.166 1.734,0.404 2.423,0.713 -0.024,0.308 -0.071,0.653 -0.142,1.033 -0.072,0.38 -0.167,0.7 -0.285,0.962 -0.737,-0.262 -1.491,-0.469 -2.263,-0.624 -0.772,-0.154 -1.61,-0.231 -2.512,-0.231 -2.234,0 -3.908,0.57 -5.025,1.71 -1.117,1.141 -1.675,2.922 -1.675,5.345 l 12.971,0 z m -12.899,1.96 c 0.19,1.853 0.748,3.29 1.675,4.312 0.926,1.021 2.221,1.532 3.884,1.532 0.902,0 1.674,-0.166 2.316,-0.499 0.641,-0.333 1.164,-0.766 1.568,-1.3 0.403,-0.535 0.7,-1.158 0.891,-1.871 0.189,-0.713 0.285,-1.438 0.285,-2.174 l -10.619,0 z m 18.137,-19.1 c 0.143,-0.023 0.339,-0.041 0.588,-0.053 0.25,-0.012 0.446,-0.018 0.588,-0.018 0.119,0 0.309,0.006 0.57,0.018 0.261,0.012 0.463,0.03 0.606,0.053 l 0,8.553 c 0.546,-0.19 1.152,-0.333 1.817,-0.428 0.665,-0.095 1.283,-0.143 1.853,-0.143 1.544,0 2.916,0.232 4.116,0.695 1.199,0.463 2.209,1.128 3.029,1.996 0.82,0.867 1.443,1.924 1.871,3.171 0.427,1.247 0.641,2.655 0.641,4.223 0,1.568 -0.184,2.91 -0.552,4.026 -0.369,1.117 -0.879,2.043 -1.532,2.78 -0.654,0.736 -1.444,1.277 -2.37,1.621 -0.927,0.344 -1.948,0.517 -3.065,0.517 -1.496,0 -2.714,-0.297 -3.652,-0.891 -0.939,-0.594 -1.657,-1.271 -2.156,-2.031 l -0.214,2.494 c -0.142,0.024 -0.32,0.042 -0.534,0.054 -0.214,0.011 -0.392,0.018 -0.535,0.018 -0.142,0 -0.32,-0.007 -0.534,-0.018 -0.214,-0.012 -0.392,-0.03 -0.535,-0.054 l 0,-26.583 z m 2.352,18.993 c 0,1.141 0.184,2.085 0.552,2.833 0.368,0.749 0.832,1.354 1.39,1.818 0.558,0.463 1.17,0.789 1.835,0.979 0.665,0.19 1.283,0.286 1.853,0.286 1.829,0 3.154,-0.618 3.973,-1.853 0.82,-1.236 1.23,-2.946 1.23,-5.132 0,-1.378 -0.178,-2.56 -0.535,-3.545 -0.356,-0.986 -0.843,-1.8 -1.461,-2.441 -0.618,-0.642 -1.342,-1.111 -2.173,-1.408 -0.832,-0.297 -1.711,-0.445 -2.637,-0.445 -0.975,0 -1.753,0.053 -2.334,0.16 -0.583,0.107 -1.147,0.267 -1.693,0.481 l 0,8.267 z m 28.649,-8.552 c -0.618,-0.119 -1.247,-0.214 -1.888,-0.285 -0.642,-0.071 -1.331,-0.107 -2.067,-0.107 -0.57,0 -1.14,0.041 -1.71,0.125 -0.571,0.083 -1.093,0.249 -1.568,0.499 -0.476,0.249 -0.862,0.611 -1.158,1.087 -0.298,0.475 -0.446,1.104 -0.446,1.888 0,1.235 0.487,2.186 1.461,2.851 0.974,0.665 2.352,0.998 4.134,0.998 0.546,0 1.122,-0.03 1.728,-0.089 0.606,-0.06 1.11,-0.113 1.514,-0.161 l 0,-6.806 z m 0,8.873 c -0.404,0.047 -0.914,0.101 -1.532,0.16 -0.618,0.059 -1.354,0.089 -2.209,0.089 -1.093,0 -2.097,-0.13 -3.011,-0.392 -0.915,-0.261 -1.699,-0.647 -2.352,-1.158 -0.654,-0.511 -1.164,-1.14 -1.532,-1.888 -0.369,-0.749 -0.553,-1.598 -0.553,-2.548 0,-1.972 0.636,-3.398 1.907,-4.276 1.27,-0.879 3.011,-1.319 5.22,-1.319 1.069,0 2.197,0.084 3.385,0.25 1.188,0.166 2.197,0.332 3.029,0.499 l 0,12.008 c 0,2.162 -0.558,3.747 -1.675,4.757 -1.116,1.01 -2.827,1.515 -5.131,1.515 -0.95,0 -1.877,-0.066 -2.779,-0.196 -0.903,-0.131 -1.663,-0.291 -2.281,-0.481 0,-0.356 0.041,-0.737 0.125,-1.14 0.083,-0.405 0.184,-0.713 0.303,-0.927 0.617,0.19 1.318,0.35 2.102,0.481 0.784,0.13 1.651,0.196 2.601,0.196 1.449,0 2.542,-0.362 3.279,-1.087 0.736,-0.725 1.104,-1.87 1.104,-3.438 l 0,-1.105 z M 215.511,0 c 0.142,-0.023 0.344,-0.041 0.606,-0.053 0.261,-0.012 0.451,-0.018 0.57,-0.018 0.142,0 0.338,0.006 0.588,0.018 0.249,0.012 0.445,0.03 0.588,0.053 l 0,9.336 c 0,2.375 0.486,4.074 1.461,5.096 0.974,1.021 2.268,1.532 3.884,1.532 l 0.338,0 c 0.107,0 0.255,-0.012 0.446,-0.036 0.071,0.357 0.107,0.725 0.107,1.105 0,0.356 -0.036,0.736 -0.107,1.14 -0.167,0.024 -0.315,0.036 -0.446,0.036 l -0.374,0 c -1.402,0 -2.53,-0.303 -3.385,-0.909 -0.855,-0.605 -1.521,-1.348 -1.996,-2.227 0,0.475 -0.012,1.003 -0.035,1.586 -0.024,0.582 -0.06,1.087 -0.107,1.514 -0.19,0.024 -0.369,0.042 -0.535,0.054 -0.166,0.011 -0.344,0.018 -0.534,0.018 -0.167,0 -0.339,-0.007 -0.517,-0.018 -0.178,-0.012 -0.362,-0.03 -0.552,-0.054 l 0,-18.173 z m 13.291,4.24 c 0,-1.639 0.422,-2.821 1.265,-3.545 0.843,-0.724 1.942,-1.087 3.296,-1.087 1.14,0 2.138,0.131 2.993,0.392 -0.071,0.713 -0.19,1.377 -0.356,1.996 -0.618,-0.214 -1.342,-0.321 -2.174,-0.321 -0.333,0 -0.659,0.029 -0.98,0.089 -0.32,0.059 -0.605,0.184 -0.855,0.374 -0.249,0.19 -0.451,0.457 -0.605,0.802 -0.155,0.344 -0.232,0.813 -0.232,1.407 l 0,11.831 4.917,0 c 0.024,0.118 0.042,0.273 0.054,0.463 0.012,0.19 0.018,0.38 0.018,0.57 0,0.19 -0.006,0.368 -0.018,0.535 -0.012,0.166 -0.03,0.308 -0.054,0.427 l -4.917,0 0,5.595 -0.143,0 -2.209,-2.174 0,-3.421 -3.1,0 c -0.024,-0.119 -0.042,-0.261 -0.054,-0.427 -0.012,-0.167 -0.017,-0.345 -0.017,-0.535 0,-0.19 0.005,-0.38 0.017,-0.57 0.012,-0.19 0.03,-0.345 0.054,-0.463 l 3.1,0 0,-11.938 z m 25.727,4.49 c 0.024,0.238 0.042,0.523 0.054,0.856 0.012,0.332 0.018,0.605 0.018,0.819 0,1.188 -0.161,2.286 -0.481,3.296 -0.321,1.01 -0.797,1.877 -1.426,2.602 -0.629,0.724 -1.407,1.288 -2.334,1.692 -0.926,0.404 -1.984,0.606 -3.171,0.606 -1.426,0 -2.649,-0.249 -3.671,-0.748 -1.021,-0.499 -1.859,-1.189 -2.512,-2.067 -0.653,-0.879 -1.14,-1.901 -1.461,-3.065 -0.32,-1.164 -0.481,-2.411 -0.481,-3.741 0,-1.378 0.172,-2.643 0.517,-3.795 0.344,-1.153 0.879,-2.144 1.603,-2.976 0.725,-0.832 1.651,-1.479 2.78,-1.942 1.128,-0.463 2.476,-0.695 4.044,-0.695 1.093,0 2.103,0.084 3.029,0.25 0.927,0.166 1.734,0.404 2.423,0.713 -0.024,0.308 -0.071,0.653 -0.142,1.033 -0.071,0.38 -0.167,0.7 -0.285,0.962 -0.737,-0.262 -1.491,-0.469 -2.263,-0.624 -0.772,-0.154 -1.61,-0.231 -2.512,-0.231 -2.233,0 -3.908,0.57 -5.025,1.71 -1.116,1.141 -1.674,2.922 -1.674,5.345 l 12.97,0 z m -12.899,1.96 c 0.19,1.853 0.748,3.29 1.675,4.312 0.926,1.021 2.221,1.532 3.884,1.532 0.902,0 1.675,-0.166 2.316,-0.499 0.641,-0.333 1.164,-0.766 1.568,-1.3 0.404,-0.535 0.7,-1.158 0.891,-1.871 0.19,-0.713 0.285,-1.438 0.285,-2.174 l -10.619,0 z M 260.872,0 c 0.143,-0.023 0.344,-0.041 0.606,-0.053 0.261,-0.012 0.451,-0.018 0.57,-0.018 0.142,0 0.338,0.006 0.588,0.018 0.249,0.012 0.445,0.03 0.588,0.053 l 0,18.173 -4.633,0 c -0.023,-0.119 -0.041,-0.273 -0.053,-0.463 -0.012,-0.19 -0.018,-0.38 -0.018,-0.57 0,-0.19 0.006,-0.369 0.018,-0.535 0.012,-0.166 0.03,-0.309 0.053,-0.427 l 2.281,0 0,-16.178 z m -0.392,22.574 c 0.308,-0.012 0.57,-0.018 0.784,-0.018 0.19,0 0.428,0.006 0.713,0.018 0.285,0.012 0.522,0.03 0.712,0.054 0.024,0.213 0.042,0.475 0.054,0.784 0.011,0.308 0.018,0.57 0.018,0.783 0,0.19 -0.007,0.428 -0.018,0.713 -0.012,0.285 -0.03,0.522 -0.054,0.713 -0.19,0.023 -0.427,0.041 -0.712,0.053 -0.285,0.012 -0.523,0.018 -0.713,0.018 -0.214,0 -0.476,-0.006 -0.784,-0.018 -0.309,-0.012 -0.57,-0.03 -0.784,-0.053 -0.024,-0.191 -0.042,-0.428 -0.053,-0.713 -0.013,-0.285 -0.018,-0.523 -0.018,-0.713 0,-0.213 0.005,-0.475 0.018,-0.783 0.011,-0.309 0.029,-0.571 0.053,-0.784 0.214,-0.024 0.475,-0.042 0.784,-0.054 m 9.55,-22.681 c 0.499,0 0.998,0.036 1.496,0.107 0.072,0.499 0.107,1.009 0.107,1.532 0,0.499 -0.035,0.998 -0.107,1.497 -0.498,0.071 -1.01,0.107 -1.532,0.107 -0.499,0 -0.998,-0.036 -1.497,-0.107 -0.071,-0.499 -0.106,-1.01 -0.106,-1.532 0,-0.499 0.035,-0.998 0.106,-1.497 0.499,-0.071 1.01,-0.107 1.533,-0.107 m 6.77,3.777 c 0,-0.832 0.118,-1.502 0.356,-2.013 0.237,-0.511 0.552,-0.915 0.944,-1.212 0.392,-0.297 0.838,-0.498 1.337,-0.605 0.499,-0.107 0.997,-0.161 1.496,-0.161 0.357,0 0.742,0.024 1.158,0.072 0.416,0.047 0.79,0.13 1.123,0.249 -0.024,0.285 -0.06,0.594 -0.107,0.926 -0.048,0.333 -0.131,0.642 -0.249,0.927 -0.191,-0.048 -0.428,-0.089 -0.713,-0.125 -0.285,-0.035 -0.559,-0.053 -0.82,-0.053 -0.214,0 -0.451,0.018 -0.712,0.053 -0.262,0.036 -0.499,0.131 -0.713,0.285 -0.214,0.155 -0.392,0.404 -0.535,0.749 -0.142,0.344 -0.213,0.825 -0.213,1.443 l 0,21.986 c -0.143,0.023 -0.345,0.041 -0.606,0.053 -0.262,0.012 -0.452,0.018 -0.57,0.018 -0.143,0 -0.339,-0.006 -0.588,-0.018 -0.25,-0.012 -0.446,-0.03 -0.588,-0.053 l 0,-22.521 z m 9.799,4.134 c 0,-1.711 0.214,-3.1 0.641,-4.169 0.428,-1.069 1.004,-1.907 1.728,-2.513 0.725,-0.605 1.58,-1.015 2.566,-1.229 0.986,-0.214 2.037,-0.321 3.154,-0.321 1.14,0 2.25,0.089 3.331,0.268 1.081,0.178 2.061,0.386 2.94,0.623 l 0,17.71 c -0.142,0.024 -0.338,0.042 -0.588,0.054 -0.249,0.011 -0.445,0.018 -0.588,0.018 -0.119,0 -0.309,-0.007 -0.57,-0.018 -0.261,-0.012 -0.463,-0.03 -0.606,-0.054 l 0,-16.071 C 298.132,1.96 297.586,1.847 296.968,1.764 296.35,1.68 295.65,1.639 294.866,1.639 c -0.927,0 -1.758,0.089 -2.495,0.267 -0.736,0.179 -1.36,0.499 -1.87,0.963 -0.511,0.463 -0.897,1.104 -1.158,1.924 -0.262,0.819 -0.392,1.871 -0.392,3.153 l 0,10.227 c -0.143,0.024 -0.339,0.042 -0.588,0.054 -0.25,0.011 -0.446,0.018 -0.588,0.018 -0.119,0 -0.309,-0.007 -0.57,-0.018 -0.262,-0.012 -0.464,-0.03 -0.606,-0.054 l 0,-10.369 z"
             id="path48"
             style="fill:#241d10;fill-opacity:1;fill-rule:nonzero;stroke:none" /></g></g></g></g></svg>