<?xml version="1.0" encoding="utf-8"?>
<!-- Generator: Adobe Illustrator 14.0.0, SVG Export Plug-In . SVG Version: 6.00 Build 43363)  -->
<!DOCTYPE svg PUBLIC "-//W3C//DTD SVG 1.1//EN" "http://www.w3.org/Graphics/SVG/1.1/DTD/svg11.dtd" [
	<!ENTITY ns_flows "http://ns.adobe.com/Flows/1.0/">
	<!ENTITY ns_extend "http://ns.adobe.com/Extensibility/1.0/">
	<!ENTITY ns_ai "http://ns.adobe.com/AdobeIllustrator/10.0/">
	<!ENTITY ns_graphs "http://ns.adobe.com/Graphs/1.0/">
]>
<svg version="1.1" id="Layer_1" xmlns:x="&ns_extend;" xmlns:i="&ns_ai;" xmlns:graph="&ns_graphs;"
	 xmlns="http://www.w3.org/2000/svg" xmlns:xlink="http://www.w3.org/1999/xlink" xmlns:a="http://ns.adobe.com/AdobeSVGViewerExtensions/3.0/"
	 x="0px" y="0px" width="447.589px" height="140.347px" viewBox="0 0 447.589 140.347" enable-background="new 0 0 447.589 140.347"
	 xml:space="preserve">
<g>
	<path fill="#6600FF" d="M92.888,64.541C92.252,46.277,71.07,47.189,59.6,49.168v-4.721h-3.116v5.329
		c-3.352,0.731-5.022,1.364-3.564,1.031c0.958-0.218,2.194-0.181,3.564,0.083v31.095c-2.769,6.736,1.533,14.391,1.398,13.732
		C54.957,79.625,71.241,79.18,71.241,79.18S93.123,78.925,92.888,64.541 M61.445,76.251c-0.688,0.44-1.298,0.906-1.845,1.389V51.805
		C67.965,55.051,77.229,64.855,61.445,76.251"/>
	<path fill="#6600FF" d="M70.05,38.505c4.27,0,8.411,0.836,12.305,2.483c3.764,1.593,7.147,3.874,10.05,6.777
		c2.905,2.905,5.185,6.286,6.778,10.051c1.646,3.896,2.481,8.036,2.481,12.304c0,4.272-0.835,8.412-2.481,12.306
		c-1.593,3.763-3.873,7.146-6.778,10.053c-2.903,2.903-6.286,5.184-10.05,6.774c-3.894,1.649-8.035,2.481-12.305,2.481
		c-4.271,0-8.411-0.832-12.305-2.481c-3.764-1.591-7.147-3.871-10.048-6.774c-2.907-2.906-5.187-6.29-6.78-10.053
		c-1.647-3.894-2.483-8.033-2.483-12.306c0-4.269,0.836-8.409,2.483-12.304c1.593-3.765,3.873-7.146,6.78-10.051
		c2.901-2.903,6.285-5.184,10.048-6.777C61.64,39.342,65.779,38.505,70.05,38.505 M70.05,35.072C50.692,35.072,35,50.763,35,70.121
		c0,19.36,15.692,35.05,35.05,35.05c19.357,0,35.051-15.689,35.051-35.05C105.101,50.763,89.407,35.072,70.05,35.072"/>
</g>
<g>
	<path fill="#6600FF" d="M406.191,56.429c0.664,0.052,1.25,0.077,1.76,0.077c0.477,0,1.055-0.025,1.734-0.077
		c0.68-0.05,1.326-0.16,1.938-0.331c0.137-0.714,0.221-1.308,0.256-1.784c0.033-0.477,0.051-0.97,0.051-1.479
		c0-0.543-0.018-1.053-0.051-1.53c-0.035-0.476-0.119-1.053-0.256-1.733c-0.611-0.17-1.258-0.288-1.938-0.357
		c-0.68-0.067-1.258-0.102-1.734-0.102c-0.51,0-1.096,0.034-1.76,0.102c-0.662,0.069-1.316,0.188-1.963,0.357
		c-0.137,0.681-0.221,1.258-0.256,1.733c-0.033,0.478-0.051,0.987-0.051,1.53c0,0.51,0.018,1.003,0.051,1.479
		c0.035,0.477,0.119,1.07,0.256,1.784C404.875,56.269,405.529,56.379,406.191,56.429 M405.349,86.342
		c0,1.053-0.102,1.904-0.305,2.549c-0.205,0.646-0.484,1.148-0.842,1.506c-0.357,0.355-0.783,0.604-1.275,0.738
		c-0.492,0.137-1.012,0.205-1.555,0.205c-0.477,0-0.953-0.035-1.428-0.102c-0.477-0.07-0.885-0.137-1.225-0.205
		c-0.34,0.783-0.578,1.607-0.715,2.473c-0.135,0.867-0.203,1.793-0.203,2.781c0.748,0.17,1.564,0.305,2.447,0.408
		c0.885,0.102,1.752,0.152,2.602,0.152c3.094,0,5.457-0.723,7.088-2.168c1.633-1.445,2.449-3.799,2.449-7.062V60.689h-10.506
		c-0.205,0.885-0.307,1.784-0.307,2.702c0,0.442,0.025,0.91,0.078,1.402c0.051,0.494,0.127,0.962,0.229,1.403h3.467V86.342z
		 M390.458,56.456c0.68,0.034,1.293,0.051,1.836,0.051c0.578,0,1.199-0.017,1.861-0.051c0.664-0.033,1.283-0.102,1.861-0.204
		c0.104-0.578,0.17-1.155,0.205-1.734c0.033-0.577,0.051-1.139,0.051-1.683c0-0.578-0.018-1.146-0.051-1.709
		c-0.035-0.56-0.102-1.129-0.205-1.708c-0.578-0.102-1.207-0.178-1.887-0.229s-1.309-0.076-1.887-0.076
		c-0.543,0-1.148,0.024-1.811,0.076c-0.664,0.052-1.283,0.128-1.861,0.229c-0.203,1.191-0.307,2.329-0.307,3.417
		c0,1.122,0.104,2.262,0.307,3.417C389.15,56.354,389.779,56.422,390.458,56.456 M389.642,87.055
		c1.225,0.205,2.398,0.307,3.52,0.307c1.154,0,2.346-0.102,3.57-0.307V60.689h-10.506c-0.205,0.885-0.307,1.784-0.307,2.702
		c0,0.442,0.025,0.91,0.076,1.402c0.051,0.494,0.129,0.962,0.23,1.403h3.416V87.055z M369.396,78.131
		c0,3.264,0.816,5.619,2.447,7.064c1.633,1.443,3.996,2.166,7.09,2.166c1.664,0,3.281-0.188,4.846-0.561
		c0.031-0.236,0.059-0.484,0.076-0.74c0.016-0.254,0.025-0.568,0.025-0.943c0-0.543-0.051-1.164-0.154-1.861
		c-0.102-0.697-0.271-1.369-0.51-2.014c-0.375,0.068-0.807,0.145-1.299,0.229c-0.494,0.086-0.996,0.127-1.506,0.127
		c-0.646,0-1.207-0.066-1.684-0.203c-0.477-0.135-0.875-0.391-1.197-0.766c-0.324-0.373-0.57-0.883-0.74-1.529
		c-0.17-0.645-0.254-1.496-0.254-2.551V66.197h6.17c0.102-0.543,0.17-1.037,0.205-1.479c0.033-0.44,0.051-0.899,0.051-1.377
		c0-0.44-0.018-0.867-0.051-1.274c-0.035-0.408-0.104-0.867-0.205-1.377h-6.17v-7.701h-1.174l-9.537,12.188l0.256,1.021h3.314
		V78.131z M348.179,87.108c0.646,0.102,1.268,0.17,1.863,0.203c0.594,0.033,1.18,0.051,1.758,0.051s1.174-0.018,1.785-0.051
		c0.613-0.033,1.225-0.102,1.836-0.203V74.561c0-1.836,0.213-3.264,0.639-4.283c0.424-1.022,0.959-1.786,1.605-2.295
		c0.646-0.511,1.326-0.825,2.041-0.945c0.713-0.118,1.359-0.178,1.938-0.178h0.842c0.459,0,0.875,0.033,1.248,0.102
		c0.137-0.612,0.23-1.257,0.281-1.938s0.076-1.309,0.076-1.888c0-0.476-0.016-0.935-0.051-1.377
		c-0.033-0.44-0.084-0.833-0.152-1.173c-0.205-0.068-0.527-0.119-0.969-0.153c-0.443-0.032-0.834-0.051-1.174-0.051
		c-1.631,0-2.992,0.417-4.08,1.249c-1.088,0.834-2.006,1.778-2.754,2.831c-0.033-0.237-0.076-0.536-0.127-0.893
		s-0.111-0.714-0.18-1.071c-0.066-0.356-0.145-0.696-0.229-1.02c-0.084-0.322-0.178-0.568-0.281-0.739
		c-0.475-0.103-0.961-0.187-1.453-0.255s-0.994-0.103-1.504-0.103c-0.545,0-1.045,0.025-1.504,0.077
		c-0.459,0.05-0.945,0.127-1.455,0.229V87.108z M334.716,70.329c-1.191-0.104-2.277-0.154-3.264-0.154
		c-1.359,0-2.721,0.146-4.08,0.434c-1.359,0.291-2.592,0.766-3.697,1.428c-1.105,0.664-2.006,1.549-2.703,2.652
		c-0.697,1.105-1.045,2.475-1.045,4.105c0,1.633,0.281,3.01,0.84,4.131c0.562,1.123,1.361,2.041,2.398,2.754
		c1.037,0.715,2.277,1.225,3.723,1.531c1.445,0.305,3.035,0.459,4.77,0.459c2.141,0,4.061-0.172,5.762-0.51
		c1.701-0.34,3.145-0.697,4.336-1.072V70.788c0-3.741-0.996-6.46-2.984-8.161c-1.988-1.7-4.752-2.55-8.287-2.55
		c-1.293,0-2.686,0.12-4.182,0.356c-1.498,0.238-2.992,0.612-4.488,1.122c0,1.089,0.119,2.023,0.357,2.806
		c0.236,0.782,0.594,1.614,1.07,2.499c2.072-0.714,4.029-1.071,5.865-1.071c0.85,0,1.623,0.051,2.32,0.153
		c0.697,0.102,1.283,0.298,1.76,0.587s0.85,0.688,1.121,1.197c0.273,0.51,0.408,1.174,0.408,1.989V70.329z M334.716,81.702
		c-0.375,0.068-0.816,0.145-1.326,0.229c-0.51,0.086-1.02,0.127-1.529,0.127c-0.441,0-0.961-0.023-1.557-0.076
		c-0.594-0.051-1.156-0.186-1.682-0.406c-0.527-0.223-0.979-0.57-1.352-1.047c-0.375-0.477-0.561-1.154-0.561-2.039
		c0-1.326,0.484-2.287,1.453-2.883c0.969-0.594,2.287-0.893,3.953-0.893c0.373,0,0.797,0.027,1.273,0.076
		c0.477,0.051,0.918,0.111,1.326,0.18V81.702z M298.507,72.469c0-0.848,0.084-1.648,0.256-2.396
		c0.168-0.747,0.441-1.403,0.816-1.963c0.373-0.562,0.857-1.002,1.453-1.327c0.594-0.322,1.316-0.484,2.168-0.484
		c0.918,0,1.689,0.188,2.318,0.562c0.629,0.375,1.148,0.885,1.557,1.529c0.408,0.646,0.695,1.42,0.867,2.321
		c0.17,0.902,0.256,1.881,0.256,2.934c0,2.754-0.562,4.812-1.684,6.172c-1.123,1.359-2.738,2.039-4.846,2.039
		c-1.191,0-2.244-0.135-3.162-0.408V72.469z M291.265,99.143c0.646,0.102,1.268,0.17,1.861,0.203
		c0.596,0.033,1.182,0.053,1.76,0.053s1.164-0.02,1.76-0.053s1.215-0.102,1.861-0.203v-11.73c0.373,0.068,0.842,0.127,1.402,0.178
		c0.561,0.053,1.131,0.078,1.709,0.078c2.244,0,4.25-0.332,6.018-0.996c1.768-0.662,3.264-1.605,4.488-2.83
		c1.225-1.223,2.158-2.711,2.805-4.463c0.646-1.75,0.969-3.729,0.969-5.939c0-2.277-0.264-4.251-0.791-5.917
		c-0.525-1.665-1.266-3.052-2.217-4.156c-0.953-1.105-2.066-1.931-3.342-2.475c-1.275-0.543-2.643-0.815-4.104-0.815
		c-0.953,0-1.82,0.127-2.602,0.383c-0.783,0.254-1.488,0.586-2.117,0.994s-1.166,0.876-1.605,1.402
		c-0.443,0.527-0.816,1.063-1.123,1.606c-0.035-0.237-0.076-0.536-0.127-0.893s-0.119-0.722-0.205-1.097
		c-0.084-0.374-0.17-0.722-0.254-1.046c-0.086-0.321-0.18-0.567-0.281-0.738c-0.986-0.204-1.955-0.307-2.906-0.307
		c-0.58,0-1.098,0.019-1.557,0.051c-0.459,0.034-0.926,0.103-1.402,0.204V99.143z M261.483,87.055
		c1.224,0.205,2.431,0.307,3.621,0.307c1.189,0,2.396-0.102,3.621-0.307v-13.82c0-1.428,0.152-2.582,0.459-3.469
		c0.306-0.884,0.705-1.571,1.199-2.065c0.491-0.492,1.045-0.823,1.656-0.994c0.611-0.17,1.207-0.255,1.785-0.255
		c1.395,0,2.372,0.493,2.934,1.479c0.561,0.987,0.84,2.398,0.84,4.234v14.891c1.225,0.205,2.432,0.307,3.621,0.307
		c1.19,0,2.397-0.102,3.621-0.307v-16.83c0-3.501-0.757-6.068-2.269-7.7c-1.515-1.633-3.767-2.448-6.759-2.448
		c-0.951,0-1.818,0.127-2.601,0.383c-0.782,0.254-1.487,0.586-2.116,0.994s-1.182,0.867-1.658,1.377
		c-0.476,0.51-0.883,1.02-1.223,1.53c-0.035-0.237-0.076-0.527-0.128-0.867c-0.051-0.339-0.11-0.689-0.179-1.045
		c-0.068-0.358-0.145-0.697-0.229-1.021c-0.086-0.321-0.18-0.567-0.281-0.738c-0.477-0.103-0.936-0.18-1.377-0.229
		c-0.442-0.052-0.952-0.077-1.53-0.077s-1.104,0.025-1.581,0.077c-0.477,0.05-0.952,0.127-1.428,0.229V87.055z M238.635,71.042
		c0.17-1.735,0.696-3.077,1.58-4.029c0.885-0.951,2.176-1.428,3.877-1.428c1.495,0,2.659,0.502,3.493,1.504
		c0.832,1.003,1.283,2.321,1.351,3.953H238.635z M255.516,76.09c0.067-0.373,0.127-0.875,0.179-1.504
		c0.051-0.629,0.075-1.266,0.075-1.912c0-1.768-0.254-3.427-0.764-4.974c-0.511-1.546-1.268-2.881-2.27-4.003
		c-1.004-1.122-2.219-2.006-3.646-2.652c-1.429-0.645-3.061-0.969-4.896-0.969c-2.108,0-3.952,0.366-5.533,1.096
		c-1.581,0.732-2.907,1.728-3.979,2.984c-1.07,1.258-1.879,2.736-2.422,4.437c-0.545,1.702-0.816,3.521-0.816,5.458
		c0,1.973,0.263,3.791,0.791,5.457c0.525,1.666,1.342,3.104,2.447,4.311c1.104,1.207,2.533,2.148,4.285,2.83
		c1.75,0.68,3.85,1.02,6.297,1.02c3.332,0,6.324-0.51,8.977-1.531c-0.034-1.088-0.188-2.107-0.459-3.059s-0.596-1.768-0.969-2.449
		c-1.088,0.408-2.236,0.723-3.442,0.945c-1.208,0.221-2.39,0.33-3.545,0.33c-2.108,0-3.808-0.459-5.101-1.377
		c-1.291-0.918-2.006-2.396-2.142-4.438H255.516z M214.001,78.131c0,3.264,0.816,5.619,2.448,7.064
		c1.632,1.443,3.995,2.166,7.089,2.166c1.666,0,3.281-0.188,4.845-0.561c0.034-0.236,0.059-0.484,0.077-0.74
		c0.017-0.254,0.025-0.568,0.025-0.943c0-0.543-0.052-1.164-0.153-1.861s-0.271-1.369-0.51-2.014
		c-0.374,0.068-0.809,0.145-1.301,0.229c-0.492,0.086-0.994,0.127-1.504,0.127c-0.646,0-1.207-0.066-1.684-0.203
		c-0.477-0.135-0.875-0.391-1.197-0.766c-0.324-0.373-0.57-0.883-0.74-1.529c-0.17-0.645-0.256-1.496-0.256-2.551V66.197h6.172
		c0.102-0.543,0.17-1.037,0.203-1.479c0.035-0.44,0.051-0.899,0.051-1.377c0-0.44-0.016-0.867-0.051-1.274
		c-0.033-0.408-0.102-0.867-0.203-1.377h-6.172v-7.701h-1.172l-9.537,12.188l0.255,1.021h3.315V78.131z M199.825,70.329
		c-1.19-0.104-2.278-0.154-3.264-0.154c-1.36,0-2.72,0.146-4.08,0.434c-1.36,0.291-2.593,0.766-3.697,1.428
		c-1.106,0.664-2.007,1.549-2.703,2.652c-0.698,1.105-1.046,2.475-1.046,4.105c0,1.633,0.281,3.01,0.842,4.131
		c0.561,1.123,1.359,2.041,2.397,2.754c1.036,0.715,2.277,1.225,3.723,1.531c1.444,0.305,3.034,0.459,4.768,0.459
		c2.142,0,4.063-0.172,5.763-0.51c1.7-0.34,3.145-0.697,4.335-1.072V70.788c0-3.741-0.994-6.46-2.983-8.161
		c-1.989-1.7-4.752-2.55-8.288-2.55c-1.292,0-2.686,0.12-4.182,0.356c-1.496,0.238-2.992,0.612-4.488,1.122
		c0,1.089,0.119,2.023,0.357,2.806c0.238,0.782,0.595,1.614,1.071,2.499c2.074-0.714,4.029-1.071,5.865-1.071
		c0.85,0,1.623,0.051,2.321,0.153c0.696,0.102,1.283,0.298,1.759,0.587s0.85,0.688,1.122,1.197c0.272,0.51,0.408,1.174,0.408,1.989
		V70.329z M199.825,81.702c-0.374,0.068-0.816,0.145-1.326,0.229c-0.51,0.086-1.02,0.127-1.53,0.127
		c-0.442,0-0.961-0.023-1.555-0.076c-0.596-0.051-1.157-0.186-1.683-0.406c-0.528-0.223-0.978-0.57-1.352-1.047
		s-0.561-1.154-0.561-2.039c0-1.326,0.485-2.287,1.454-2.883c0.969-0.594,2.286-0.893,3.952-0.893c0.374,0,0.799,0.027,1.275,0.076
		c0.476,0.051,0.918,0.111,1.326,0.18V81.702z M166.675,87.108c0.646,0.102,1.266,0.17,1.862,0.203
		c0.594,0.033,1.181,0.051,1.759,0.051c0.578,0,1.173-0.018,1.785-0.051s1.224-0.102,1.836-0.203V74.561
		c0-1.836,0.212-3.264,0.638-4.283c0.424-1.022,0.96-1.786,1.606-2.295c0.646-0.511,1.326-0.825,2.04-0.945
		c0.714-0.118,1.36-0.178,1.938-0.178h0.842c0.459,0,0.875,0.033,1.249,0.102c0.136-0.612,0.23-1.257,0.281-1.938
		c0.051-0.681,0.076-1.309,0.076-1.888c0-0.476-0.017-0.935-0.051-1.377c-0.034-0.44-0.085-0.833-0.153-1.173
		c-0.204-0.068-0.527-0.119-0.969-0.153c-0.442-0.032-0.833-0.051-1.173-0.051c-1.632,0-2.992,0.417-4.08,1.249
		c-1.088,0.834-2.006,1.778-2.754,2.831c-0.034-0.237-0.076-0.536-0.127-0.893c-0.051-0.356-0.111-0.714-0.179-1.071
		c-0.068-0.356-0.145-0.696-0.229-1.02c-0.086-0.322-0.179-0.568-0.281-0.739c-0.476-0.103-0.961-0.187-1.453-0.255
		c-0.494-0.068-0.995-0.103-1.505-0.103c-0.544,0-1.045,0.025-1.504,0.077c-0.459,0.05-0.944,0.127-1.454,0.229V87.108z
		 M153.263,56.456c0.679,0.034,1.291,0.051,1.836,0.051c0.577,0,1.198-0.017,1.861-0.051c0.663-0.033,1.283-0.102,1.862-0.204
		c0.102-0.578,0.169-1.155,0.204-1.734c0.033-0.577,0.051-1.139,0.051-1.683c0-0.578-0.018-1.146-0.051-1.709
		c-0.035-0.56-0.102-1.129-0.204-1.708c-0.579-0.102-1.208-0.178-1.887-0.229c-0.681-0.052-1.31-0.076-1.887-0.076
		c-0.545,0-1.148,0.024-1.811,0.076c-0.663,0.052-1.284,0.128-1.861,0.229c-0.204,1.191-0.306,2.329-0.306,3.417
		c0,1.122,0.102,2.262,0.306,3.417C151.953,56.354,152.582,56.422,153.263,56.456 M152.447,87.055
		c1.224,0.205,2.397,0.307,3.519,0.307c1.155,0,2.346-0.102,3.57-0.307V60.689H149.03c-0.204,0.885-0.306,1.784-0.306,2.702
		c0,0.442,0.025,0.91,0.076,1.402c0.051,0.494,0.128,0.962,0.23,1.403h3.417V87.055z M128.731,56.098
		c0.612-0.067,1.079-0.109,1.403-0.128c0.322-0.016,0.67-0.024,1.045-0.024c0.849,0,1.683,0.11,2.499,0.331
		c0.816,0.222,1.538,0.596,2.168,1.122c0.628,0.527,1.129,1.225,1.504,2.091c0.374,0.867,0.561,1.931,0.561,3.188
		c0,1.225-0.187,2.253-0.561,3.086c-0.375,0.833-0.876,1.504-1.504,2.015c-0.63,0.509-1.352,0.876-2.168,1.095
		c-0.816,0.223-1.65,0.332-2.499,0.332h-1.3c-0.358,0-0.74-0.033-1.148-0.102V56.098z M121.286,87.055
		c0.68,0.104,1.343,0.17,1.989,0.205c0.645,0.033,1.241,0.051,1.785,0.051c0.578,0,1.173-0.018,1.785-0.051
		c0.612-0.035,1.241-0.102,1.887-0.205V75.276c0.339,0.033,0.705,0.059,1.097,0.076c0.39,0.018,0.807,0.025,1.249,0.025
		c1.665,0,3.357-0.17,5.075-0.51c1.716-0.34,3.271-0.986,4.666-1.939c1.394-0.951,2.532-2.252,3.417-3.901
		c0.884-1.648,1.326-3.8,1.326-6.451c0-2.652-0.442-4.812-1.326-6.478c-0.885-1.665-2.032-2.966-3.442-3.901
		c-1.412-0.935-2.993-1.572-4.744-1.912c-1.751-0.339-3.476-0.51-5.176-0.51c-1.632,0-3.247,0.043-4.845,0.127
		c-1.599,0.086-3.18,0.196-4.743,0.332V87.055z"/>
</g>
</svg>
