<?xml version="1.0" encoding="UTF-8" standalone="no"?>
<!-- Created with Inkscape (http://www.inkscape.org/) -->

<svg
   xmlns:dc="http://purl.org/dc/elements/1.1/"
   xmlns:cc="http://creativecommons.org/ns#"
   xmlns:rdf="http://www.w3.org/1999/02/22-rdf-syntax-ns#"
   xmlns:svg="http://www.w3.org/2000/svg"
   xmlns="http://www.w3.org/2000/svg"
   xmlns:xlink="http://www.w3.org/1999/xlink"
   version="1.1"
   width="716.22412"
   height="716.40863"
   viewBox="0 0 20213.436 20218.644"
   id="svg"
   xml:space="preserve"
   style="fill-rule:evenodd"><title
   id="title">Polska Partia Piratów Logo RGB</title><metadata
   id="metadata"><rdf:RDF><cc:Work
       rdf:about=""><dc:format>image/svg+xml</dc:format><dc:type
         rdf:resource="http://purl.org/dc/dcmitype/StillImage" /><dc:title>Polska Partia Piratów Logo RGB</dc:title><dc:creator><cc:Agent><dc:title>Piotr Roszatycki</dc:title></cc:Agent></dc:creator><cc:license
         rdf:resource="http://creativecommons.org/licenses/publicdomain/" /></cc:Work><cc:License
       rdf:about="http://creativecommons.org/licenses/publicdomain/"><cc:permits
         rdf:resource="http://creativecommons.org/ns#Reproduction" /><cc:permits
         rdf:resource="http://creativecommons.org/ns#Distribution" /><cc:permits
         rdf:resource="http://creativecommons.org/ns#DerivativeWorks" /></cc:License></rdf:RDF></metadata>
 <defs
   id="defs"><style
   type="text/css"
   id="style" />
 </defs>
 <g
   transform="translate(-393.78176,-4740.7812)"
   id="layer1">
  <path
   d="m 20330,14946 c 0,0 0,-2 0,-2 0,-5428 -4402,-9830 -9830,-9830 -5428,0 -9830,4402 -9830,9830 0,0 0,2 0,2 l 9830,0 9830,0 z"
   id="path4"
   style="fill:#e9e8e7" />
  <path
   d="m 20330,14946 c 0,5429 -4401,9830 -9830,9830 -5429,0 -9830,-4401 -9830,-9830 0,0 0,0 0,0 l 9830,0 9830,0 z"
   id="path3"
   style="fill:#d4213d" />
  <path
   d="m 6859,22240 c -367,-875 -582,-1795 -603,-2587 -17,-630 62,-1101 258,-1530 l 57,-126 -4,-4252 -4,-4252 -295,1 c -255,1 -453,19 -561,51 -55,16 -32,-55 38,-118 93,-84 319,-194 595,-289 l 232,-80 0,-816 0,-816 438,0 438,0 0,700 c 0,616 3,700 26,700 14,0 151,-23 305,-50 835,-151 1526,-217 2418,-231 825,-13 1369,20 2041,123 1646,253 2919,868 3722,1801 556,646 903,1456 1025,2396 131,1008 21,1681 -374,2274 -124,186 -383,466 -579,623 -412,333 -1014,642 -1704,875 -773,261 -1378,401 -3305,765 -1549,292 -2103,438 -2622,691 -807,393 -1373,1138 -1567,2063 -62,297 -82,503 -83,847 -1,426 48,847 140,1219 19,75 31,139 28,142 -3,3 -31,-52 -60,-124 l 0,0 z m 1112,-5517 c 181,-116 435,-281 565,-368 965,-644 1515,-1281 1720,-1990 145,-501 204,-1287 135,-1802 -102,-763 -409,-1378 -947,-1898 -359,-347 -796,-620 -1318,-823 -209,-81 -603,-205 -654,-205 -20,0 -24,530 -24,3711 l 0,3711 97,-62 c 53,-34 245,-157 426,-273 z"
   id="path2"
   style="fill:#000000;stroke:#000000;stroke-width:26.45999908" />
  <path
   d="M 9792,24931 C 8041,24801 6403,24248 4962,23302 2556,21721 943,19214 510,16382 c -90,-588 -103,-784 -103,-1535 0,-750 13,-947 103,-1535 220,-1435 741,-2794 1537,-4005 1579,-2404 4087,-4017 6919,-4450 586,-90 784,-103 1535,-103 750,0 949,13 1535,103 1434,219 2795,741 4003,1535 2406,1581 4019,4088 4452,6920 90,586 103,784 103,1535 0,750 -13,949 -103,1535 -306,1996 -1195,3839 -2573,5329 -1306,1412 -3003,2431 -4854,2915 -612,160 -1213,258 -1880,306 -269,19 -1126,19 -1391,-1 l 0,0 z m 1329,-978 c 1188,-85 2295,-378 3342,-887 435,-211 681,-352 1088,-623 548,-365 935,-681 1399,-1146 719,-719 1267,-1480 1719,-2386 640,-1284 955,-2624 955,-4064 0,-1852 -539,-3602 -1583,-5138 -530,-780 -1195,-1486 -1967,-2089 -237,-185 -798,-559 -1071,-713 -1689,-956 -3643,-1350 -5574,-1124 -1194,140 -2379,528 -3432,1124 -273,154 -834,528 -1071,713 -617,482 -1171,1036 -1653,1653 -185,237 -559,798 -713,1071 -1099,1943 -1445,4181 -988,6400 176,855 538,1809 988,2606 154,273 528,834 713,1071 482,617 1036,1171 1653,1653 237,185 798,559 1071,713 1177,666 2496,1065 3854,1165 277,20 988,21 1270,1 l 0,0 z"
   id="path1"
   style="fill:#000000;stroke:#000000;stroke-width:26.45999908" />
 </g>
</svg>