<?xml version="1.0" encoding="utf-8"?>
<!-- Generator: Adobe Illustrator 13.0.0, SVG Export Plug-In  -->
<!DOCTYPE svg PUBLIC "-//W3C//DTD SVG 1.1//EN" "http://www.w3.org/Graphics/SVG/1.1/DTD/svg11.dtd" [
	<!ENTITY ns_flows "http://ns.adobe.com/Flows/1.0/">
]>
<svg version="1.1"
	 xmlns="http://www.w3.org/2000/svg" xmlns:xlink="http://www.w3.org/1999/xlink" xmlns:a="http://ns.adobe.com/AdobeSVGViewerExtensions/3.0/"
	 x="0px" y="0px" width="529px" height="156px" viewBox="-0.2 -0.1 529 156" enable-background="new -0.2 -0.1 529 156"
	 xml:space="preserve">
<defs>
</defs>
<path fill="#FFFFFF" stroke="#B7B9BC" stroke-width="0.5" d="M135.6,0.3l-12.2,18.2C110.9,8.7,95.3,2.7,78.2,2.4
	c-42.1-1-77,32.3-77.9,74.4c-1,42.1,32.3,77,74.4,77.9c30.7,0.7,57.5-16.8,70.2-42.7h224.9L406,64h73.5l48-63.8H135.6z M74.8,147.5
	C36.7,146.6,6.5,115,7.4,76.9C8.3,38.8,39.9,8.6,78,9.5c38.1,0.9,68.3,32.5,67.4,70.6C144.6,118.2,113,148.4,74.8,147.5z
	 M476.8,57.2l-73.3-0.1l-37,47.5H148c2.8-7.6,4.4-15.7,4.6-24.2c0.2-8.1-0.9-15.8-3-23.2L346.4,57l-197-0.2
	c-3.9-13-11.1-24.6-20.8-33.7l10.9-17.7l375.7,0.7L476.8,57.2z"/>
<polygon points="287.3,34.8 296.3,34.8 291.6,23.4 "/>
<path d="M259.6,21.7h-2.6v6.8h3.4c3.4,0,4.6-1.2,4.6-3.4C265,22.6,263.6,21.7,259.6,21.7z"/>
<path d="M452.8,25.9c0,3,2.5,4,4.5,4h4.4v-8.1H458C455.3,21.7,452.8,23.1,452.8,25.9z"/>
<polygon points="419.4,34.8 428.4,34.8 423.6,23.4 "/>
<path d="M139.6,5.4L128.7,23c9.7,9.1,16.9,20.7,20.8,33.7l197,0.2l57.1,0l-0.1,0.1l73.3,0.1l39.1-51.7L139.6,5.4z M205.3,45.7H198
	V21.7h-14.6v23.9h-7.3V16.4h29.2V45.7z M242,45.7h-7.3V28l-17.8,17.7h-4.1V16.4h7.3v18.3l17.7-18.3h4.2V45.7z M262.9,33.9h-5.8v11.8
	h-7.3V16.4h13.1c6.7,0,9.7,4.7,9.7,8.7C272.5,29.2,269.6,33.9,262.9,33.9z M300.9,45.7l-2.4-5.8h-13.1l-2.2,5.8h-7.7l11.8-29.3h8.5
	l13,29.3H300.9z M339.5,21.7h-10.6v23.9h-7.3V21.7H311v-5.4h28.5V21.7z M372.2,43.1c-4.1,2.1-7.2,2.9-11.5,2.9
	c-11.4,0-17.1-7.4-17.1-14.9c0-7.8,6.4-15.1,17.6-15.1c4.1,0,7.7,0.9,10.6,2.6v6.5c-3.2-1.8-6.5-3-10.1-3c-6.2,0-10.6,3.7-10.6,8.9
	c0,5.2,4.3,9,10.4,9c3.8,0,6.4-1.2,10.6-3.2V43.1z M397.8,45.7l-3-6.5c-1.8-4-4.3-5.9-7-5.9h-1.6v12.5h-7.3V16.4h7.3v11.5h2.1
	c2.3,0,3.6-1.3,4.6-3.3l1.9-4c1.2-2.5,3.6-4.3,7.2-4.3c0.8,0,1.7,0.1,2.7,0.3l-0.4,5.4c-1.3,0-3.1,0.2-4,2.2l-1.1,2.4
	c-0.8,1.8-2.1,3.7-3.1,4.3c2.5,1,4.5,4,6.1,7.1l3.8,7.7H397.8z M432.9,45.7l-2.4-5.8h-13.1l-2.2,5.8h-7.7l11.8-29.3h8.5l13,29.3
	H432.9z M469,45.7h-7.3V35.2h-1.5c-3.7,0-5.8,2.1-7.4,5.5l-2.3,5h-8.2l2.1-4.3c2.1-4.5,3.7-6.2,6.5-7.7c-3.1-1.7-5.5-4.6-5.5-7.9
	c0-5.8,4.7-9.5,10.9-9.5H469V45.7z"/>
<path fill="#F15D22" d="M244.5,70h-2.6v6.8h3.4c3.4,0,4.6-1.2,4.6-3.4C249.9,70.9,248.5,70,244.5,70z"/>
<path fill="#F15D22" d="M339.6,74.1c0,3.1,2.4,4,4.5,4h4.4V70h-3.7C342.1,70,339.6,71.4,339.6,74.1z"/>
<polygon fill="#F15D22" points="208.6,83 217.6,83 212.9,71.6 "/>
<path fill="#F15D22" d="M346.4,57l-196.9,0.1c2.1,7.3,3.2,15.1,3,23.2c-0.2,8.5-1.8,16.7-4.6,24.2h218.4l37-47.5l0.1-0.1L346.4,57z
	 M192.4,93.9h-7.3V70h-14.6v23.9h-7.3V64.6h29.2V93.9z M222.1,93.9l-2.4-5.8h-13.1l-2.2,5.8h-7.7l11.8-29.3h8.5l13,29.3H222.1z
	 M247.7,82.2h-5.8v11.8h-7.3V64.6h13.1c6.7,0,9.7,4.7,9.7,8.7C257.4,77.4,254.5,82.2,247.7,82.2z M289.9,70h-10.6v23.9H272V70h-10.6
	v-5.4h28.5V70z M324.5,93.9h-7.3V76.3l-17.8,17.6h-4.1V64.6h7.3v18.3l17.7-18.3h4.2V93.9z M355.8,93.9h-7.3V83.5H347
	c-3.7,0-5.8,2.1-7.4,5.5l-2.3,5h-8.2l2.1-4.2c2.1-4.5,3.7-6.2,6.5-7.7c-3.1-1.7-5.5-4.6-5.5-7.9c0-5.8,4.7-9.5,10.9-9.5h12.8V93.9z"
	/>
<polygon fill="#FFFFFF" points="176.1,45.7 183.4,45.7 183.4,21.7 198,21.7 198,45.7 205.3,45.7 205.3,16.4 176.1,16.4 "/>
<polygon fill="#FFFFFF" points="220.1,34.7 220.1,16.4 212.8,16.4 212.8,45.7 216.9,45.7 234.7,28 234.7,45.7 242,45.7 242,16.4 
	237.8,16.4 "/>
<path fill="#FFFFFF" d="M262.8,16.4h-13.1v29.3h7.3V33.9h5.8c6.7,0,9.7-4.7,9.7-8.8C272.5,21.1,269.5,16.4,262.8,16.4z M260.4,28.5
	h-3.4v-6.8h2.6c4,0,5.4,0.9,5.4,3.4C265,27.3,263.8,28.5,260.4,28.5z"/>
<path fill="#FFFFFF" d="M287.2,16.4l-11.8,29.3h7.7l2.2-5.8h13.1l2.4,5.8h7.9l-13-29.3H287.2z M287.3,34.8l4.3-11.4l4.7,11.4H287.3z
	"/>
<polygon fill="#FFFFFF" points="311,21.7 321.6,21.7 321.6,45.7 328.9,45.7 328.9,21.7 339.5,21.7 339.5,16.4 311,16.4 "/>
<path fill="#FFFFFF" d="M351.1,31c0-5.2,4.4-8.9,10.6-8.9c3.6,0,6.9,1.2,10.1,3v-6.5c-2.9-1.7-6.5-2.6-10.6-2.6
	c-11.2,0-17.6,7.3-17.6,15.1c0,7.6,5.7,14.9,17.1,14.9c4.3,0,7.4-0.8,11.5-2.9v-6.4c-4.2,2-6.8,3.2-10.6,3.2
	C355.4,40,351.1,36.2,351.1,31z"/>
<path fill="#FFFFFF" d="M396,30.8c0.9-0.6,2.2-2.4,3.1-4.3l1.1-2.4c0.9-2,2.7-2.2,4-2.2l0.4-5.4c-1-0.2-1.8-0.3-2.7-0.3
	c-3.6,0-6,1.8-7.2,4.3l-1.9,4c-0.9,2-2.2,3.3-4.6,3.3h-2.1V16.4h-7.3v29.3h7.3V33.2h1.6c2.7,0,5.1,1.9,7,5.9l3,6.5h8.1l-3.8-7.7
	C400.5,34.8,398.5,31.8,396,30.8z"/>
<path fill="#FFFFFF" d="M419.3,16.4l-11.8,29.3h7.7l2.2-5.8h13.1l2.4,5.8h7.9l-13-29.3H419.3z M419.4,34.8l4.3-11.4l4.7,11.4H419.4z
	"/>
<path fill="#FFFFFF" d="M445.3,25.9c0,3.3,2.4,6.2,5.5,7.9c-2.8,1.5-4.4,3.2-6.5,7.7l-2.1,4.3h8.2l2.3-5c1.6-3.4,3.7-5.5,7.4-5.5
	h1.5v10.4h7.3V16.4h-12.8C450,16.4,445.3,20.1,445.3,25.9z M461.7,21.7v8.1h-4.4c-2,0-4.5-0.9-4.5-4c0-2.8,2.5-4.1,5.2-4.1H461.7z"
	/>
<polygon fill="#FFFFFF" points="163.2,93.9 170.5,93.9 170.5,70 185.1,70 185.1,93.9 192.4,93.9 192.4,64.6 163.2,64.6 "/>
<path fill="#FFFFFF" d="M208.5,64.6l-11.8,29.3h7.7l2.2-5.8h13.1l2.4,5.8h7.9l-13-29.3H208.5z M208.6,83l4.3-11.4l4.7,11.4H208.6z"
	/>
<path fill="#FFFFFF" d="M247.7,64.6h-13.1v29.3h7.3V82.2h5.8c6.7,0,9.7-4.7,9.7-8.8C257.4,69.3,254.4,64.6,247.7,64.6z M245.3,76.8
	h-3.4V70h2.6c4,0,5.4,0.9,5.4,3.4C249.9,75.6,248.7,76.8,245.3,76.8z"/>
<polygon fill="#FFFFFF" points="261.3,70 272,70 272,93.9 279.3,93.9 279.3,70 289.9,70 289.9,64.6 261.3,64.6 "/>
<polygon fill="#FFFFFF" points="302.6,82.9 302.6,64.6 295.3,64.6 295.3,93.9 299.4,93.9 317.2,76.3 317.2,93.9 324.5,93.9 
	324.5,64.6 320.3,64.6 "/>
<path fill="#FFFFFF" d="M332.1,74.1c0,3.3,2.4,6.2,5.5,7.9c-2.8,1.5-4.4,3.2-6.5,7.7l-2.1,4.2h8.2l2.3-5c1.6-3.4,3.7-5.5,7.4-5.5
	h1.5v10.4h7.3V64.6H343C336.8,64.6,332.1,68.4,332.1,74.1z M348.5,70v8.1h-4.4c-2,0-4.5-0.9-4.5-4c0-2.7,2.4-4.1,5.2-4.1H348.5z"/>
<path fill="#FFFFFF" d="M56.5,42.4l-1.2,50.7c6.5-4.2,17.5-9.2,19.9-19.1C79.9,53.9,67.3,45.3,56.5,42.4z"/>
<path fill="#FFFFFF" d="M77.9,16.2c-34.4-0.8-62.9,26.4-63.7,60.8C13.3,111.5,40.6,140,75,140.8c34.4,0.8,62.9-26.4,63.7-60.9
	C139.5,45.6,112.3,17,77.9,16.2z M121.3,71.4C120.8,98,73.8,92.9,60,101.2c-15.1,9-8.9,29-8.9,29s-8.5-18.7-2-30.7l1.3-58.1
	c-2.6-0.2-4.7-0.1-6.1,0.3c-0.4-0.8,2-2.2,6.2-3.4l0.3-11l6,0.1l-0.2,9.3C78.6,32.1,122.2,32,121.3,71.4z"/>
<path d="M78,9.5C39.9,8.6,8.3,38.8,7.4,76.9c-0.9,38.1,29.3,69.7,67.4,70.6c38.1,0.9,69.7-29.3,70.6-67.4
	C146.3,42,116.2,10.4,78,9.5z M75,140.8c-34.4-0.8-61.6-29.3-60.8-63.8c0.8-34.4,29.3-61.6,63.7-60.8c34.4,0.8,61.7,29.3,60.9,63.7
	C137.9,114.4,109.4,141.6,75,140.8z"/>
<path d="M56.6,36.6l0.2-9.3l-6-0.1l-0.3,11c-4.1,1.3-6.5,2.6-6.2,3.4c1.4-0.4,3.5-0.5,6.1-0.3l-1.3,58.1c-6.5,12,2,30.7,2,30.7
	s-6.2-20,8.9-29c13.9-8.3,60.9-3.2,61.3-29.7C122.2,32,78.6,32.1,56.6,36.6z M75.2,74c-2.3,10-13.4,14.9-19.9,19.1l1.2-50.7
	C67.3,45.3,79.9,53.9,75.2,74z"/>
</svg>
