<?xml version="1.0" encoding="UTF-8" standalone="no"?>
<!-- Created with Inkscape (http://www.inkscape.org/) -->
<svg
   xmlns:dc="http://purl.org/dc/elements/1.1/"
   xmlns:cc="http://creativecommons.org/ns#"
   xmlns:rdf="http://www.w3.org/1999/02/22-rdf-syntax-ns#"
   xmlns:svg="http://www.w3.org/2000/svg"
   xmlns="http://www.w3.org/2000/svg"
   xmlns:sodipodi="http://sodipodi.sourceforge.net/DTD/sodipodi-0.dtd"
   xmlns:inkscape="http://www.inkscape.org/namespaces/inkscape"
   id="svg2"
   sodipodi:version="0.32"
   inkscape:version="0.46"
   width="1080.7953"
   height="259.85547"
   xml:space="preserve"
   sodipodi:docname="piratpartiet_logo_2color.svg"
   inkscape:output_extension="org.inkscape.output.svg.inkscape"
   version="1.0"
   inkscape:export-filename="/home/media/ProjectsLocal/Piratpartiet/GrafiskProfil/exempel_vitbak_piratpartiet_logo.png"
   inkscape:export-xdpi="20.269327"
   inkscape:export-ydpi="20.269327"><metadata
     id="metadata8"><rdf:RDF><cc:Work
         rdf:about=""><dc:format>image/svg+xml</dc:format><dc:type
           rdf:resource="http://purl.org/dc/dcmitype/StillImage" /><dc:title /></cc:Work></rdf:RDF></metadata><defs
     id="defs6"><marker
       inkscape:stockid="Arrow1Lend"
       orient="auto"
       refY="0"
       refX="0"
       id="Arrow1Lend"
       style="overflow:visible"><path
         id="path3296"
         d="M 0,0 L 5,-5 L -12.5,0 L 5,5 L 0,0 z"
         style="fill-rule:evenodd;stroke:#000000;stroke-width:1pt;marker-start:none"
         transform="matrix(-0.8,0,0,-0.8,-10,0)" /></marker><marker
       inkscape:stockid="Arrow1Lstart"
       orient="auto"
       refY="0"
       refX="0"
       id="Arrow1Lstart"
       style="overflow:visible"><path
         id="path3293"
         d="M 0,0 L 5,-5 L -12.5,0 L 5,5 L 0,0 z"
         style="fill-rule:evenodd;stroke:#000000;stroke-width:1pt;marker-start:none"
         transform="matrix(0.8,0,0,0.8,10,0)" /></marker><inkscape:perspective
       sodipodi:type="inkscape:persp3d"
       inkscape:vp_x="0 : 0.5 : 1"
       inkscape:vp_y="0 : 1000 : 0"
       inkscape:vp_z="1 : 0.5 : 1"
       inkscape:persp3d-origin="0.5 : 0.33333333 : 1"
       id="perspective10" /><clipPath
       clipPathUnits="userSpaceOnUse"
       id="clipPath20"><path
         d="M 0,1667.11 L 0,0 L 8234.63,0 L 8234.63,1667.11"
         id="path22" /></clipPath><inkscape:perspective
       id="perspective2933"
       inkscape:persp3d-origin="0.5 : 0.33333333 : 1"
       inkscape:vp_z="1 : 0.5 : 1"
       inkscape:vp_y="0 : 1000 : 0"
       inkscape:vp_x="0 : 0.5 : 1"
       sodipodi:type="inkscape:persp3d" /><inkscape:perspective
       id="perspective2955"
       inkscape:persp3d-origin="0.5 : 0.33333333 : 1"
       inkscape:vp_z="1 : 0.5 : 1"
       inkscape:vp_y="0 : 1000 : 0"
       inkscape:vp_x="0 : 0.5 : 1"
       sodipodi:type="inkscape:persp3d" /><inkscape:perspective
       id="perspective2977"
       inkscape:persp3d-origin="0.5 : 0.33333333 : 1"
       inkscape:vp_z="1 : 0.5 : 1"
       inkscape:vp_y="0 : 1000 : 0"
       inkscape:vp_x="0 : 0.5 : 1"
       sodipodi:type="inkscape:persp3d" /><inkscape:perspective
       id="perspective3070"
       inkscape:persp3d-origin="0.5 : 0.33333333 : 1"
       inkscape:vp_z="1 : 0.5 : 1"
       inkscape:vp_y="0 : 1000 : 0"
       inkscape:vp_x="0 : 0.5 : 1"
       sodipodi:type="inkscape:persp3d" /><inkscape:perspective
       id="perspective3092"
       inkscape:persp3d-origin="0.5 : 0.33333333 : 1"
       inkscape:vp_z="1 : 0.5 : 1"
       inkscape:vp_y="0 : 1000 : 0"
       inkscape:vp_x="0 : 0.5 : 1"
       sodipodi:type="inkscape:persp3d" /><inkscape:perspective
       id="perspective3114"
       inkscape:persp3d-origin="0.5 : 0.33333333 : 1"
       inkscape:vp_z="1 : 0.5 : 1"
       inkscape:vp_y="0 : 1000 : 0"
       inkscape:vp_x="0 : 0.5 : 1"
       sodipodi:type="inkscape:persp3d" /><inkscape:perspective
       id="perspective3149"
       inkscape:persp3d-origin="0.5 : 0.33333333 : 1"
       inkscape:vp_z="1 : 0.5 : 1"
       inkscape:vp_y="0 : 1000 : 0"
       inkscape:vp_x="0 : 0.5 : 1"
       sodipodi:type="inkscape:persp3d" /></defs><sodipodi:namedview
     pagecolor="#ffffff"
     bordercolor="#666666"
     borderopacity="1"
     objecttolerance="10"
     gridtolerance="10"
     guidetolerance="10"
     inkscape:pageopacity="0"
     inkscape:pageshadow="2"
     inkscape:window-width="1024"
     inkscape:window-height="768"
     id="namedview4"
     showgrid="false"
     inkscape:zoom="0.42700038"
     inkscape:cx="505.84459"
     inkscape:cy="129.92773"
     inkscape:window-x="0"
     inkscape:window-y="0"
     inkscape:current-layer="g12"
     units="cm" /><g
     id="g12"
     inkscape:groupmode="layer"
     inkscape:label="piratpartiet_logo"
     transform="matrix(1.25,0,0,-1.25,22.077551,233.23444)"><g
   id="g14"
   transform="matrix(0.1,0,0,0.1,2.1909406,-2.8252236)"
   style="fill:#000000"><g
     id="g16"
     style="fill:#000000"><g
       id="g18"
       clip-path="url(#clipPath20)"
       style="fill:#000000"><path
         d="M 509.52,541.602 L 582.4341,541.602 L 582.4341,1445.942 L 509.52,1445.942 L 509.52,541.602 L 509.52,541.602 z"
         style="fill:#000000;fill-opacity:1;fill-rule:nonzero;stroke:none"
         id="path24" /><path
         d="M 833.562,81.1797 C 418.031,81.1797 81.1797,418.031 81.1797,833.559 C 81.1797,1249.08 418.031,1585.92 833.562,1585.92 C 1249.08,1585.92 1585.92,1249.08 1585.92,833.559 C 1585.92,418.031 1249.08,81.1797 833.562,81.1797 L 833.562,81.1797 z M 833.562,1667.11 C 373.199,1667.11 0,1293.9 0,833.559 C 0,373.172 373.199,0 833.562,0 C 1293.92,0 1667.12,373.172 1667.12,833.559 C 1667.12,1293.9 1293.92,1667.11 833.562,1667.11"
         style="fill:#000000;fill-opacity:1;fill-rule:nonzero;stroke:none"
         id="path26" /><path
         d="M 435.906,1270.03 C 523.48,1295.54 892.676,1245.28 817.242,888.133 C 789.781,758.16 639.133,694.844 566.121,640.16 C 393.281,510.711 542.129,203.301 542.129,203.301 C 542.129,203.301 461.602,442.41 640.938,555.551 C 805.945,659.621 1374.78,610.719 1372.83,931.762 C 1369.07,1546.88 410.625,1324.98 435.906,1270.03"
         style="fill:#000000;fill-opacity:1;fill-rule:nonzero;stroke:none"
         id="path28" /><path
         d="M 2046.15,1131.63 L 2046.15,888.492 C 2053.37,888.098 2059.61,887.895 2064.84,887.895 C 2088.13,887.895 2104.32,893.496 2113.35,904.699 C 2122.38,915.902 2126.92,939.219 2126.92,974.648 L 2126.92,1053.14 C 2126.92,1085.78 2121.7,1107.03 2111.25,1116.86 C 2100.8,1126.7 2079.1,1131.63 2046.15,1131.63 L 2046.15,1131.63 z M 1798.16,1294.59 L 2048.56,1294.59 C 2116.27,1294.59 2168.35,1289.28 2204.78,1278.68 C 2241.18,1268.07 2268.54,1252.75 2286.86,1232.73 C 2305.17,1212.69 2317.57,1188.45 2324.07,1159.97 C 2330.56,1131.5 2333.82,1087.41 2333.82,1027.72 L 2333.82,944.668 C 2333.82,883.781 2327.49,839.398 2314.86,811.523 C 2302.25,783.629 2279.06,762.238 2245.32,747.316 C 2211.57,732.395 2167.49,724.926 2113.05,724.926 L 2046.15,724.926 L 2046.15,339.48 L 1798.16,339.48 L 1798.16,1294.59"
         style="fill:#000000;fill-opacity:1;fill-rule:nonzero;stroke:none"
         id="path30" /><path
         d="M 2404.17,339.48 L 2652.158,339.48 L 2652.158,1294.593 L 2404.17,1294.593 L 2404.17,339.48 L 2404.17,339.48 z"
         style="fill:#000000;fill-opacity:1;fill-rule:nonzero;stroke:none"
         id="path32" /><path
         d="M 2999.96,1131.63 L 2999.96,919.066 C 3027.72,919.066 3047.19,922.902 3058.35,930.586 C 3069.48,938.246 3075.06,963.156 3075.06,1005.27 L 3075.06,1057.83 C 3075.06,1088.12 3069.68,1108 3058.92,1117.46 C 3048.16,1126.89 3028.53,1131.63 2999.96,1131.63 L 2999.96,1131.63 z M 2751.97,1294.59 L 2927.62,1294.59 C 3044.71,1294.59 3124,1290.05 3165.44,1281.03 C 3206.9,1271.99 3240.71,1248.9 3266.84,1211.74 C 3292.96,1174.59 3306.05,1115.33 3306.05,1033.96 C 3306.05,959.652 3296.79,909.727 3278.33,884.172 C 3259.86,858.625 3223.51,843.281 3169.28,838.184 C 3218.39,825.988 3251.4,809.668 3268.32,789.211 C 3285.21,768.75 3295.73,749.953 3299.85,732.832 C 3303.97,715.719 3306.05,668.605 3306.05,591.48 L 3306.05,339.48 L 3075.06,339.48 L 3075.06,656.98 C 3075.06,708.125 3071.06,739.785 3063.04,751.988 C 3055.02,764.164 3033.99,770.277 2999.96,770.277 L 2999.96,339.48 L 2751.97,339.48 L 2751.97,1294.59"
         style="fill:#000000;fill-opacity:1;fill-rule:nonzero;stroke:none"
         id="path34" /><path
         d="M 3699.56,679.586 C 3687.6,788.172 3675.15,922.461 3662.22,1082.45 C 3638.09,898.633 3622.54,764.348 3615.59,679.586 L 3699.56,679.586 L 3699.56,679.586 z M 3831.21,1294.59 L 3973.27,339.48 L 3719.97,339.48 L 3706.64,510.949 L 3616.72,510.949 L 3603.06,339.48 L 3346.22,339.48 L 3473.4,1294.59 L 3831.21,1294.59"
         style="fill:#000000;fill-opacity:1;fill-rule:nonzero;stroke:none"
         id="path36" /><path
         d="M 4448.88,1294.59 L 4448.88,1103.29 L 4301.5,1103.29 L 4301.5,339.48 L 4053.52,339.48 L 4053.52,1103.29 L 3906.14,1103.29 L 3906.14,1294.59 L 4448.88,1294.59"
         style="fill:#000000;fill-opacity:1;fill-rule:nonzero;stroke:none"
         id="path38" /><path
         d="M 4753.12,1131.63 L 4753.12,888.492 C 4760.34,888.098 4766.59,887.895 4771.81,887.895 C 4795.11,887.895 4811.29,893.496 4820.32,904.699 C 4829.36,915.902 4833.89,939.219 4833.89,974.648 L 4833.89,1053.14 C 4833.89,1085.78 4828.67,1107.03 4818.21,1116.86 C 4807.76,1126.7 4786.06,1131.63 4753.12,1131.63 L 4753.12,1131.63 z M 4505.14,1294.59 L 4755.53,1294.59 C 4823.24,1294.59 4875.32,1289.28 4911.75,1278.68 C 4948.14,1268.07 4975.51,1252.75 4993.82,1232.73 C 5012.13,1212.69 5024.53,1188.45 5031.04,1159.97 C 5037.53,1131.5 5040.79,1087.41 5040.79,1027.72 L 5040.79,944.668 C 5040.79,883.781 5034.45,839.398 5021.84,811.523 C 5009.22,783.629 4986.04,762.238 4952.29,747.316 C 4918.54,732.395 4874.46,724.926 4820.01,724.926 L 4753.12,724.926 L 4753.12,339.48 L 4505.14,339.48 L 4505.14,1294.59"
         style="fill:#000000;fill-opacity:1;fill-rule:nonzero;stroke:none"
         id="path40" /><path
         d="M 5378.44,679.586 C 5366.47,788.172 5354.03,922.461 5341.11,1082.45 C 5316.97,898.633 5301.44,764.348 5294.48,679.586 L 5378.44,679.586 z M 5510.09,1294.59 L 5652.16,339.48 L 5398.85,339.48 L 5385.53,510.949 L 5295.61,510.949 L 5281.94,339.48 L 5025.1,339.48 L 5152.29,1294.59 L 5510.09,1294.59"
         style="fill:#000000;fill-opacity:1;fill-rule:nonzero;stroke:none"
         id="path42" /><path
         d="M 5942.15,1131.63 L 5942.15,919.066 C 5969.91,919.066 5989.38,922.902 6000.54,930.586 C 6011.67,938.246 6017.25,963.156 6017.25,1005.27 L 6017.25,1057.83 C 6017.25,1088.12 6011.88,1108 6001.11,1117.46 C 5990.35,1126.89 5970.7,1131.63 5942.15,1131.63 L 5942.15,1131.63 z M 5694.15,1294.59 L 5869.81,1294.59 C 5986.89,1294.59 6066.19,1290.05 6107.63,1281.03 C 6149.08,1271.99 6182.89,1248.9 6209.01,1211.74 C 6235.15,1174.59 6248.23,1115.33 6248.23,1033.96 C 6248.23,959.652 6238.98,909.727 6220.51,884.172 C 6202.04,858.625 6165.69,843.281 6111.46,838.184 C 6160.57,825.988 6193.59,809.668 6210.51,789.211 C 6227.4,768.75 6237.91,749.953 6242.04,732.832 C 6246.15,715.719 6248.23,668.605 6248.23,591.48 L 6248.23,339.48 L 6017.25,339.48 L 6017.25,656.98 C 6017.25,708.125 6013.24,739.785 6005.22,751.988 C 5997.22,764.164 5976.17,770.277 5942.15,770.277 L 5942.15,339.48 L 5694.15,339.48 L 5694.15,1294.59"
         style="fill:#000000;fill-opacity:1;fill-rule:nonzero;stroke:none"
         id="path44" /><path
         d="M 6844.6,1294.59 L 6844.6,1103.29 L 6697.22,1103.29 L 6697.22,339.48 L 6449.24,339.48 L 6449.24,1103.29 L 6301.87,1103.29 L 6301.87,1294.59 L 6844.6,1294.59"
         style="fill:#000000;fill-opacity:1;fill-rule:nonzero;stroke:none"
         id="path46" /><path
         d="M 6900.85,339.48 L 7148.85,339.48 L 7148.85,1294.593 L 6900.85,1294.593 L 6900.85,339.48 L 6900.85,339.48 z"
         style="fill:#000000;fill-opacity:1;fill-rule:nonzero;stroke:none"
         id="path48" /><path
         d="M 7248.65,1294.59 L 7662.44,1294.59 L 7662.44,1103.29 L 7496.65,1103.29 L 7496.65,921.906 L 7651.1,921.906 L 7651.1,740.52 L 7496.65,740.52 L 7496.65,530.789 L 7678.03,530.789 L 7678.03,339.48 L 7248.65,339.48 L 7248.65,1294.59"
         style="fill:#000000;fill-opacity:1;fill-rule:nonzero;stroke:none"
         id="path50" /><path
         d="M 8234.63,1294.59 L 8234.63,1103.29 L 8087.26,1103.29 L 8087.26,339.48 L 7839.26,339.48 L 7839.26,1103.29 L 7691.88,1103.29 L 7691.88,1294.59 L 8234.63,1294.59"
         style="fill:#000000;fill-opacity:1;fill-rule:nonzero;stroke:none"
         id="path52" /></g></g></g>
</g></svg>