<svg xmlns="http://www.w3.org/2000/svg" width="320" height="320" version="1.0" viewBox="-5000 -5000 10000 10000">
<circle r="5e3" fill="#201A17"/>
<circle r="4500" fill="#EB2200"/>
<path fill="#201A17" d="m-1944 1560v-4207c-187-12-343 0-441 29-28-61 144-155 441-245v-810h438v700c1578-327 4724-344 4741 2384 11 1926-3401 1632-4390 2257-1076 678-593 2113-593 2113s-651-1344-196-2221zm438-469c462-314 1255-693 1408-1418 308-1458-619-2063-1408-2253z"/>
<g transform="translate(0,3000)scale(45)">
	<circle r="20" fill="#fff"/>
	<circle r="15" fill="#EB2200"/>
	<circle cx="4" r="12" fill="#fff"/>   
	<path fill="#EB2200" transform="translate(4)scale(9)rotate(-90)" d="M0,-1 L0.58779,0.80902 L-0.95106,-0.30902 L0.95106,-0.30902 L-0.58779,0.80902z"/>
</g>
</svg>