<?xml version="1.0" encoding="UTF-8"?>
<!DOCTYPE svg PUBLIC "-//W3C//DTD SVG 1.1//EN" "http://www.w3.org/Graphics/SVG/1.1/DTD/svg11.dtd">
<!-- Creator: CorelDRAW -->
<svg xmlns="http://www.w3.org/2000/svg" xml:space="preserve" width="210mm" height="297mm" style="shape-rendering:geometricPrecision; text-rendering:geometricPrecision; image-rendering:optimizeQuality; fill-rule:evenodd; clip-rule:evenodd"
viewBox="0 0 210 297"
 xmlns:xlink="http://www.w3.org/1999/xlink"
 sodipodi:role="line"
 xmlns:dc="http://purl.org/dc/elements/1.1/"
 xmlns:cc="http://web.resource.org/cc/"
 xmlns:rdf="http://www.w3.org/1999/02/22-rdf-syntax-ns#"
 xmlns:svg="http://www.w3.org/2000/svg"
 xmlns:sodipodi="http://sodipodi.sourceforge.net/DTD/sodipodi-0.dtd"
 xmlns:inkscape="http://www.inkscape.org/namespaces/inkscape"
 sodipodi:version="0.32"
 inkscape:version="0.45"
 sodipodi:docname="Piratpartiet.svg"
 sodipodi:docbase="/home/sauveteur/Desktop"
 inkscape:output_extension="org.inkscape.output.svg.inkscape"
 sodipodi:modified="true">
 <defs>
  <style type="text/css">
   <![CDATA[
    .fil0 {fill:black}
    .fil1 {fill:black;fill-rule:nonzero}
   ]]>
  </style>
 </defs>
 <g id="Слой_x0020_1">
  <metadata id="CorelCorpID_0Corel-Layer"/>
  <sodipodi:namedview inkscape:window-height="713" inkscape:window-width="1024" inkscape:pageshadow="2" inkscape:pageopacity="0.0" guidetolerance="10.0" gridtolerance="10.0" objecttolerance="10.0" borderopacity="1.0" bordercolor="#666666" pagecolor="#ffffff" id="base" inkscape:zoom="0.45017705" inkscape:cx="297.63849" inkscape:cy="420.9455" inkscape:window-x="0" inkscape:window-y="0" inkscape:current-layer="svg2"/>
  <g id="_26636728">
   <path id="path11" class="fil0" d="M71.6719 120.864c6.0978,-2.7459 33.4192,-2.8639 31.5858,23.8388 -0.6673,9.7175 -10.9595,15.8523 -15.7033,20.5678 -11.2295,11.1629 2.7164,31.9664 2.7164,31.9664 0,0 -8.2877,-16.5406 3.5797,-26.5852 10.9187,-9.2417 52.7223,-11.4957 49.304,-34.7874 -6.5492,-44.6251 -73.88,-18.7318 -71.4826,-15.0004z"/>
   <polygon id="path13" class="fil0" points="84.4506,173.007 75.2217,107.34 80.5163,106.596 89.7453,172.263 "/>
   <path id="path15" class="fil0" d="M96.4937 87.9743c-33.4276,4.698 -56.7174,35.6047 -52.0195,69.0319 4.698,33.4278 35.6045,56.7174 69.0321,52.0195 33.4275,-4.6979 56.7174,-35.6044 52.0195,-69.0321 -4.6979,-33.4273 -35.6046,-56.7172 -69.0321,-52.0193zm16.1842 115.157c-30.1719,4.2404 -58.0684,-16.7815 -62.3087,-46.9532 -4.2404,-30.1716 16.7811,-58.0681 46.953,-62.3085 30.1717,-4.2404 58.0683,16.7812 62.3086,46.9527 4.2404,30.1721 -16.7811,58.0686 -46.9529,62.309z"/>
   <path id="_26636752" class="fil1" d="M100.335 189.223l0 -3.484 3.484 0 0 3.484 -3.484 0zm15.7268 0l0 -1.9727c-0.4826,0.7027 -1.1133,1.2573 -1.8923,1.6637 -0.7831,0.4021 -1.6086,0.6053 -2.4765,0.6053 -0.8847,0 -1.6764,-0.1947 -2.3791,-0.5799 -0.7027,-0.3895 -1.2107,-0.9356 -1.5282,-1.6383 -0.3133,-0.7028 -0.4699,-1.6764 -0.4699,-2.9168l0 -8.3312 3.484 0 0 6.0494c0,1.8542 0.0635,2.9888 0.1947,3.4079 0.127,0.4148 0.3599,0.745 0.6985,0.9906 0.3387,0.2455 0.7705,0.364 1.2912,0.364 0.5969,0 1.1303,-0.1608 1.6002,-0.4868 0.4699,-0.3302 0.7916,-0.7324 0.9652,-1.215 0.1736,-0.4868 0.2625,-1.6721 0.2625,-3.556l0 -5.5541 3.484 0 0 13.1699 -3.2343 0zm9.4489 -9.1525l-3.1623 -0.5715c0.3556,-1.2742 0.9652,-2.214 1.833,-2.8278 0.8721,-0.6096 2.159,-0.9187 3.8693,-0.9187 1.5578,0 2.7135,0.1863 3.4755,0.5546 0.7578,0.3683 1.2954,0.834 1.6045,1.4012 0.309,0.5673 0.4656,1.6045 0.4656,3.12l-0.0381 4.0682c0,1.1557 0.0551,2.0109 0.1694,2.5612 0.11,0.5461 0.3217,1.1388 0.6265,1.7653l-3.4502 0c-0.0889,-0.2328 -0.2032,-0.5757 -0.3344,-1.0287 -0.055,-0.2074 -0.0974,-0.3429 -0.1228,-0.4106 -0.5969,0.5799 -1.2319,1.0117 -1.9092,1.3038 -0.6773,0.2879 -1.4012,0.4318 -2.1717,0.4318 -1.3547,0 -2.4257,-0.3683 -3.2046,-1.1006 -0.7832,-0.7366 -1.1727,-1.668 -1.1727,-2.794 0,-0.7409 0.1778,-1.4055 0.5334,-1.9897 0.3556,-0.5842 0.8552,-1.0287 1.4944,-1.3377 0.6392,-0.3091 1.5663,-0.58 2.7728,-0.8128 1.6256,-0.3048 2.7559,-0.5927 3.3825,-0.8552l0 -0.3471c0,-0.6731 -0.1651,-1.1472 -0.4953,-1.4351 -0.3302,-0.2836 -0.9525,-0.4276 -1.8712,-0.4276 -0.6223,0 -1.1049,0.1228 -1.452,0.3683 -0.3471,0.2413 -0.6265,0.6689 -0.8424,1.2827zm4.6609 2.8279c-0.4445,0.1482 -1.1515,0.326 -2.1209,0.5334 -0.9652,0.2074 -1.596,0.4106 -1.8966,0.6054 -0.4529,0.3259 -0.6815,0.7323 -0.6815,1.2276 0,0.4911 0.182,0.9102 0.5461,1.2658 0.364,0.3556 0.8255,0.5334 1.3885,0.5334 0.6308,0 1.2277,-0.2074 1.7992,-0.6181 0.4233,-0.3132 0.6985,-0.6985 0.8297,-1.1557 0.0931,-0.2963 0.1355,-0.8636 0.1355,-1.6975l0 -0.6943z"/>
  </g>
 </g>
</svg>
