<?xml version="1.0" encoding="UTF-8" standalone="no"?>
<!-- Created with Inkscape (http://www.inkscape.org/) -->

<svg
   xmlns:dc="http://purl.org/dc/elements/1.1/"
   xmlns:cc="http://creativecommons.org/ns#"
   xmlns:rdf="http://www.w3.org/1999/02/22-rdf-syntax-ns#"
   xmlns:svg="http://www.w3.org/2000/svg"
   xmlns="http://www.w3.org/2000/svg"
   xmlns:sodipodi="http://sodipodi.sourceforge.net/DTD/sodipodi-0.dtd"
   xmlns:inkscape="http://www.inkscape.org/namespaces/inkscape"
   version="1.0"
   width="1409.8586"
   height="508.9075"
   id="svg2"
   inkscape:version="0.48.3.1 r9886"
   sodipodi:docname="ppuk.svg">
  <sodipodi:namedview
     pagecolor="#ffffff"
     bordercolor="#666666"
     borderopacity="1"
     objecttolerance="10"
     gridtolerance="10"
     guidetolerance="10"
     inkscape:pageopacity="0"
     inkscape:pageshadow="2"
     inkscape:window-width="974"
     inkscape:window-height="743"
     id="namedview9"
     showgrid="false"
     inkscape:zoom="0.381"
     inkscape:cx="704.92927"
     inkscape:cy="96.453757"
     inkscape:window-x="-4"
     inkscape:window-y="0"
     inkscape:window-maximized="1"
     inkscape:current-layer="svg2"
     fit-margin-top="0"
     fit-margin-left="0"
     fit-margin-right="0"
     fit-margin-bottom="0" />
  <defs
     id="defs4" />
  <metadata
     id="metadata7">
    <rdf:RDF>
      <cc:Work
         rdf:about="">
        <dc:format>image/svg+xml</dc:format>
        <dc:type
           rdf:resource="http://purl.org/dc/dcmitype/StillImage" />
        <dc:title></dc:title>
      </cc:Work>
    </rdf:RDF>
  </metadata>
  <g
     id="g3024"
     transform="translate(-39.165207,-122.29146)">
    <path
       d="m 663.89495,256.67059 -26.03096,0 0,37.86033 26.03096,0 c 12.61896,0 19.97891,-9.20327 19.97891,-18.93185 0,-9.72849 -7.35995,-18.92848 -19.97891,-18.92848 m 2.0975,79.13625 -28.12846,0 0,66.78166 -46.00977,0 0,-187.20053 74.13823,0 c 41.54363,0 63.89113,29.45326 63.89113,60.2111 0,30.7647 -22.3475,60.20777 -63.89113,60.20777"
       id="path3079"
       style="fill:#000000;fill-opacity:1;fill-rule:nonzero;stroke:none"
       inkscape:connector-curvature="0" />
    <path
       d="m 756.72156,215.3924 46.00977,0 0,187.197 -46.00977,0 0,-187.197 z"
       id="path3081"
       style="fill:#000000;fill-opacity:1;fill-rule:nonzero;stroke:none"
       inkscape:connector-curvature="0" />
    <path
       d="m 912.63893,256.67059 -26.03085,0 0,37.86033 26.03085,0 c 12.61902,0 19.97892,-9.20327 19.97892,-18.93185 0,-9.72849 -7.3599,-18.92848 -19.97892,-18.92848 m 22.6085,145.91791 -33.12647,-69.67204 -15.51288,0 0,69.67204 -46.00972,0 0,-187.20053 74.13818,0 c 41.54357,0 63.89113,29.45326 63.89113,60.2111 0,25.5023 -15.77715,41.54367 -30.49367,48.90695 l 40.48648,78.08248 -53.37305,0 z"
       id="path3085"
       style="fill:#000000;fill-opacity:1;fill-rule:nonzero;stroke:none"
       inkscape:connector-curvature="0" />
    <path
       d="m 1080.134,286.37672 -16.8241,49.95407 32.6013,0 -15.7772,-49.95407 z m 36.5456,116.21035 -8.6781,-27.86741 -57.5783,0 -9.1998,27.86741 -48.11418,0 68.08958,-187.1971 35.4951,0 68.0929,187.1971 -48.1072,0 z"
       id="path3089"
       style="fill:#000000;fill-opacity:1;fill-rule:nonzero;stroke:none"
       inkscape:connector-curvature="0" />
    <path
       d="m 1248.9297,256.406 0,146.18213 -46.0131,0 0,-146.18213 -46.0065,0 0,-41.01513 138.0293,0 0,41.0118 -46.0097,0 0,0.003 z"
       id="path3093"
       style="fill:#000000;fill-opacity:1;fill-rule:nonzero;stroke:none"
       inkscape:connector-curvature="0" />
    <path
       d="m 1321.7703,402.58707 0,-187.1971 127.2504,0 0,41.0116 -81.2372,0 0,31.28992 69.4077,0 0,41.01502 -69.4077,0 0,32.86548 81.2403,0 0,41.01508 -127.2535,0 z"
       id="path3097"
       style="fill:#000000;fill-opacity:1;fill-rule:nonzero;stroke:none"
       inkscape:connector-curvature="0" />
    <path
       d="m 626.21857,456.42006 -20.52109,0 0,31.17463 20.52109,0 c 9.864,0 16.57673,-5.65553 16.57673,-15.51958 -0.004,-9.86743 -6.71273,-15.65505 -16.57673,-15.65505 m 0.78606,44.06474 -21.30715,0 0,36.83011 -14.20487,0 0,-93.65282 35.51202,0 c 18.28469,0 29.99206,12.10061 29.99206,28.41302 0,16.30913 -11.70399,28.40969 -29.99206,28.40969"
       id="path3101"
       style="fill:#000000;fill-opacity:1;fill-rule:nonzero;stroke:none"
       inkscape:connector-curvature="0" />
    <path
       d="m 696.85523,464.83821 -14.59785,41.56734 28.80266,0 -14.20481,-41.56734 z m 24.59747,72.4777 -6.44846,-18.80991 -36.95882,0 -6.44508,18.80991 -15.12988,0 34.33282,-93.65276 11.44315,0 34.32939,93.65276 -15.12312,0 z"
       id="path3105"
       style="fill:#000000;fill-opacity:1;fill-rule:nonzero;stroke:none"
       inkscape:connector-curvature="0" />
    <path
       d="m 785.12296,456.42006 -21.04625,0 0,29.33121 21.04625,0 c 9.47102,0 15.91267,-5.3911 15.91267,-14.59447 0,-9.21002 -6.44165,-14.73674 -15.91267,-14.73674 m 16.44122,80.89485 -19.73154,-39.45965 -17.75593,0 0,39.45965 -14.20149,0 0,-93.65282 36.30151,0 c 17.75265,0 29.0671,11.44648 29.0671,27.35914 0,13.41871 -8.15636,21.96805 -18.68116,24.86191 l 21.57153,41.42839 -16.57002,0 0,0.002 z"
       id="path3109"
       style="fill:#000000;fill-opacity:1;fill-rule:nonzero;stroke:none"
       inkscape:connector-curvature="0" />
    <path
       d="m 867.7321,456.42006 0,80.89485 -14.20143,0 0,-80.89485 -25.78005,0 0,-12.75797 65.76153,0 0,12.75797 -25.78005,0 z"
       id="path3113"
       style="fill:#000000;fill-opacity:1;fill-rule:nonzero;stroke:none"
       inkscape:connector-curvature="0" />
    <path
       d="m 940.35113,498.77346 0,38.53807 -14.2082,0 0,-38.53807 -28.01317,-55.11137 15.51958,0 19.59597,41.17088 19.60278,-41.17088 15.51616,0 -28.01312,55.11137 z"
       id="path3117"
       style="fill:#000000;fill-opacity:1;fill-rule:nonzero;stroke:none"
       inkscape:connector-curvature="0" />
    <path
       d="m 1044.9296,538.10245 c -19.0673,0 -33.5433,-13.01892 -33.5433,-32.35389 l 0,-62.08504 14.2117,0 0,61.4242 c 0,12.49359 7.6275,20.25681 19.3316,20.25681 11.7041,0 19.4707,-7.76322 19.4707,-20.25681 l 0,-61.4242 14.2047,0 0,62.08504 c 0,19.33497 -14.6046,32.35389 -33.6754,32.35389"
       id="path3121"
       style="fill:#000000;fill-opacity:1;fill-rule:nonzero;stroke:none"
       inkscape:connector-curvature="0" />
    <path
       d="m 1157.9232,537.31491 -26.3087,-46.16905 -15.7771,18.94204 0,27.22701 -14.2116,0 0,-93.65282 14.2116,0 0,47.09074 38.2771,-47.09074 17.3561,0 -30.3851,36.69808 33.5468,56.95474 -16.7091,0 z"
       id="path3125"
       style="fill:#000000;fill-opacity:1;fill-rule:nonzero;stroke:none"
       inkscape:connector-curvature="0" />
  </g>
  <g
     id="g3039"
     transform="translate(-39.165207,-113.72734)">
    <path
       d="m 293.41162,586.41166 c 120.41106,0 218.01895,-97.60794 218.01895,-218.01905 0,-120.41306 -97.60789,-218.02697 -218.01895,-218.02697 -120.40905,0 -218.022958,97.6099 -218.022958,218.02697 0,120.4071 97.613908,218.01905 218.022958,218.01905 M 39.165207,368.18316 c 0,-140.5314 113.922353,-254.45582 254.453863,-254.45582 140.5295,0 254.45386,113.92442 254.45386,254.45582 0,140.53357 -113.92436,254.45169 -254.45386,254.45169 -140.53352,0 -254.453863,-113.91812 -254.453863,-254.45169"
       id="path3069"
       style="fill:#000000;fill-opacity:1;fill-rule:nonzero;stroke:none"
       inkscape:connector-curvature="0" />
    <path
       d="m 199.26115,191.10367 21.61441,0 0,261.04232 -21.61441,0 0,-261.04232 z"
       id="path3071"
       style="fill:#000000;fill-opacity:1;fill-rule:nonzero;stroke:none"
       inkscape:connector-curvature="0" />
    <path
       d="m 177.22799,241.4073 c 0,0 28.26868,-23.69491 113.48164,-23.69491 128.44764,0 159.11395,67.35452 159.61657,116.80666 0.83776,81.8798 -108.67829,89.36782 -144.23356,95.18433 -83.00883,13.58184 -102.25946,38.57324 -102.57865,85.63577 -0.0998,14.53928 5.30591,35.3277 5.30591,35.3277 0,0 -17.87439,-33.2592 -17.87439,-70.24653 0,-44.48945 35.61104,-63.74019 55.69759,-76.07127 41.99005,-25.76537 44.89637,-54.96355 44.89637,-77.31601 0,-95.19431 -114.31148,-85.62574 -114.31148,-85.62574"
       id="path3075"
       style="fill:#000000;fill-opacity:1;fill-rule:nonzero;stroke:none"
       inkscape:connector-curvature="0" />
  </g>
</svg>
