<?xml version="1.0" encoding="utf-8"?>
<!-- Generator: Adobe Illustrator 16.0.0, SVG Export Plug-In . SVG Version: 6.00 Build 0)  -->
<!DOCTYPE svg PUBLIC "-//W3C//DTD SVG 1.1//EN" "http://www.w3.org/Graphics/SVG/1.1/DTD/svg11.dtd">
<svg version="1.1" id="Layer_1" xmlns="http://www.w3.org/2000/svg" xmlns:xlink="http://www.w3.org/1999/xlink" x="0px" y="0px"
	 width="612px" height="612px" viewBox="0 0 612 612" enable-background="new 0 0 612 612" xml:space="preserve">
<circle fill="#CC0000" cx="306" cy="306" r="306"/>
<circle fill="#FFFFFF" cx="306" cy="306" r="275.4"/>
<path fill="#000099" d="M187.027,400.473V143.003c-11.444-0.735-20.992,0-26.989,1.775c-1.714-3.732,8.812-9.486,26.989-14.994
	V80.212h26.806v42.84C310.406,103.04,502.941,102,503.982,268.953c0.673,117.871-208.142,99.879-268.668,138.129
	c-65.851,41.493-36.292,129.314-36.292,129.314S159.181,454.145,187.027,400.473z M213.833,371.769
	c28.274-19.216,76.806-42.411,86.169-86.78c18.849-89.23-37.883-126.256-86.169-137.885V371.769z"/>
<polygon fill="#FFFFFF" points="395,204.92 408.15,231.566 437.557,235.839 416.278,256.58 421.302,285.867 395,272.04 
	368.698,285.867 373.722,256.58 352.443,235.839 381.85,231.566 "/>
</svg>
